{
.appVersion = "3114";
classes = (
{
automatic = 1;

glyphs = (
{
color = 6;
glyphname = A;
lastChange = "2022-02-25 13:22:32 +0000";
layers = (
{
anchors = (
{
name = bottom;
position = "{76, 0}";
},
{
name = ogonek;
position = "{133, 0}";
},
{
name = top;
position = "{76, 1350}";
}
);
layerId = "A1A0948C-E637-4A65-8CCC-05505AD98C44";
paths = (
{
closed = 1;
nodes = (
"56 1350 LINE",
"98 1350 LINE",
"133 0 LINE",
"111 0 LINE",
"100 437 LINE",
"54 437 LINE",
"43 0 LINE",
"21 0 LINE"
);
},
{
closed = 1;
nodes = (
"100 459 LINE",
"78 1328 LINE",
"76 1328 LINE",
"54 459 LINE"
);
}
);
width = 161;
},
{
anchors = (
{
name = bottom;
position = "{379, 0}";
},
{
name = ogonek;
position = "{749, 0}";
},
{
name = top;
position = "{379, 1350}";
}
);
layerId = "BA0CA162-2A9B-49EE-921D-3B4346C7D39F";
paths = (
{
closed = 1;
nodes = (
"103 1350 LINE",
"651 1350 LINE",
"749 0 LINE",
"399 0 LINE",
"393 314 LINE",
"365 314 LINE",
"359 0 LINE",
"9 0 LINE"
);
},
{
closed = 1;
nodes = (
"394 568 LINE",
"382 1100 LINE",
"376 1100 LINE",
"364 568 LINE"
);
}
);
width = 758;
},
{
anchors = (
{
name = bottom;
position = "{1192, 0}";
},
{
name = ogonek;
position = "{2294, 0}";
},
{
name = top;
position = "{1192, 1350}";
}
);
layerId = "C75D3228-2D13-4E9D-9829-45195F4951D0";
paths = (
{
closed = 1;
nodes = (
"828 1350 LINE",
"1566 1350 LINE",
"2294 0 LINE",
"1704 0 LINE",
"1574 264 LINE",
"819 264 LINE",
"688 0 LINE",
"98 0 LINE"
);
},
{
closed = 1;
nodes = (
"1429 606 LINE",
"1199 1072 LINE",
"1197 1072 LINE",
"966 606 LINE"
);
}
);
width = 2388;
},
{
anchors = (
{
name = bottom;
position = "{1065, 0}";
},
{
name = ogonek;
position = "{2010, 0}";
},
{
name = top;
position = "{1065, 1350}";
}
);
layerId = "71977205-6510-4B11-BB00-17BACA883C8F";
paths = (
{
closed = 1;
nodes = (
"1047 1357 LINE",
"1086 1357 LINE",
"2010 0 LINE",
"1982 0 LINE",
"1685 437 LINE",
"447 437 LINE",
"149 0 LINE",
"120 0 LINE"
);
},
{
closed = 1;
nodes = (
"1669 459 LINE",
"1067 1342 LINE",
"1066 1342 LINE",
"463 459 LINE"
);
}
);
width = 2130;
},
{
anchors = (
{
name = bottom;
position = "{948, 0}";
},
{
name = ogonek;
position = "{1891, 0}";
},
{
name = top;
position = "{1185, 1350}";
}
);
layerId = "5997A0D0-E78E-41EC-9011-DECBEAD8517D";
paths = (
{
closed = 1;
nodes = (
"1168 1357 LINE",
"1207 1357 LINE",
"1891 0 LINE",
"1863 0 LINE",
"1643 437 LINE",
"405 437 LINE",
"30 0 LINE",
"1 0 LINE"
);
},
{
closed = 1;
nodes = (
"1632 459 LINE",
"1187 1342 LINE",
"1186 1342 LINE",
"426 459 LINE"
);
}
);
width = 2130;
},
{
anchors = (
{
name = bottom;
position = "{279, 0}";
},
{
name = ogonek;
position = "{647, 0}";
},
{
name = top;
position = "{518, 1350}";
}
);
layerId = "55C4185A-9C39-4468-B19C-DE0A3E571700";
paths = (
{
closed = 1;
nodes = (
"239 1350 LINE",
"787 1350 LINE",
"647 0 LINE",
"297 0 LINE",
"346 314 LINE",
"318 314 LINE",
"257 0 LINE",
"-93 0 LINE"
);
},
{
closed = 1;
nodes = (
"392 568 LINE",
"474 1100 LINE",
"468 1100 LINE",
"362 568 LINE"
);
}
);
width = 758;
},
{
anchors = (
{
name = bottom;
position = "{-24, 0}";
},
{
name = ogonek;
position = "{34, 0}";
},
{
name = top;
position = "{215, 1350}";
}
);
layerId = "4F53612F-C4F8-4368-83AD-8913BEEF8F1D";
paths = (
{
closed = 1;
nodes = (
"194 1350 LINE",
"237 1350 LINE",
"34 0 LINE",
"12 0 LINE",
"78 437 LINE",
"32 437 LINE",
"-56 0 LINE",
"-78 0 LINE"
);
},
{
closed = 1;
nodes = (
"82 459 LINE",
"213 1328 LINE",
"210 1328 LINE",
"36 459 LINE"
);
}
);
width = 161;
},
{
anchors = (
{
name = bottom;
position = "{1070, 0}";
},
{
name = ogonek;
position = "{2195, 0}";
},
{
name = top;
position = "{1345, 1350}";
}
);
layerId = "E5A4176B-9C10-4B01-BBC9-D7999ECBFAF8";
paths = (
{
closed = 1;
nodes = (
"957 1350 LINE",
"1695 1350 LINE",
"2185 0 LINE",
"1595 0 LINE",
"1512 264 LINE",
"757 264 LINE",
"579 0 LINE",
"-11 0 LINE"
);
},
{
closed = 1;
nodes = (
"1427 606 LINE",
"1279 1072 LINE",
"1277 1072 LINE",
"964 606 LINE"
);
}
);
width = 2388;
}
);
leftKerningGroup = A;
note = A;
rightKerningGroup = A;
unicode = 0041;
},
{
color = 3;
glyphname = AE;
lastChange = "2022-02-25 13:22:32 +0000";
layers = (
{
anchors = (
{
name = bottom;
position = "{110, 0}";
},
{
name = top;
position = "{110, 1350}";
}
);
components = (
{
alignment = -1;
name = E;
transform = "{1, 0, 0, 1, 69, 0}";
}
);
layerId = "A1A0948C-E637-4A65-8CCC-05505AD98C44";
paths = (
{
closed = 1;
nodes = (
"86 1350 LINE",
"104 1350 LINE",
"102 1334 LINE",
"43 0 LINE",
"21 0 LINE"
);
},
{
closed = 1;
nodes = (
"41 344 LINE",
"109 344 LINE",
"109 322 LINE",
"43 322 LINE"
);
}
);
width = 211;
},
{
anchors = (
{
name = bottom;
position = "{467, 0}";
},
{
name = top;
position = "{467, 1350}";
}
);
components = (
{
alignment = -1;
name = E;
transform = "{1, 0, 0, 1, 435, 0}";
}
);
layerId = "BA0CA162-2A9B-49EE-921D-3B4346C7D39F";
paths = (
{
closed = 1;
nodes = (
"163 1350 LINE",
"451 1350 LINE",
"451 1160 LINE",
"377 0 LINE",
"9 0 LINE"
);
},
{
closed = 1;
nodes = (
"293 448 LINE",
"569 448 LINE",
"569 204 LINE",
"239 204 LINE"
);
}
);
width = 937;
},
{
anchors = (
{
name = bottom;
position = "{1631, 0}";
},
{
name = top;
position = "{1631, 1350}";
}
);
components = (
{
alignment = -1;
name = E;
transform = "{1, 0, 0, 1, 1440, 0}";
}
);
layerId = "C75D3228-2D13-4E9D-9829-45195F4951D0";
paths = (
{
closed = 1;
nodes = (
"1270 1350 LINE",
"1764 1350 LINE",
"1764 1218 LINE",
"688 0 LINE",
"98 0 LINE"
);
},
{
closed = 1;
nodes = (
"758 604 LINE",
"1630 604 LINE",
"1630 250 LINE",
"638 250 LINE"
);
}
);
width = 3364;
},
{
anchors = (
{
name = bottom;
position = "{1625, 0}";
},
{
name = top;
position = "{1625, 1350}";
}
);
components = (
{
alignment = -1;
name = E;
transform = "{1, 0, 0, 1, 1346, 0}";
}
);
layerId = "71977205-6510-4B11-BB00-17BACA883C8F";
paths = (
{
closed = 1;
nodes = (
"1490 1350 LINE",
"1513 1350 LINE",
"1513 1339 LINE",
"149 0 LINE",
"120 0 LINE"
);
},
{
closed = 1;
nodes = (
"598 459 LINE",
"1508 459 LINE",
"1508 437 LINE",
"568 437 LINE"
);
}
);
width = 3188;
},
{
anchors = (
{
name = bottom;
position = "{1326, 0}";
},
{
name = top;
position = "{1565, 1350}";
}
);
components = (
{
alignment = -1;
name = E;
transform = "{1, 0, 0, 1, 1175, 0}";
}
);
layerId = "5997A0D0-E78E-41EC-9011-DECBEAD8517D";
paths = (
{
closed = 1;
nodes = (
"1431 1350 LINE",
"1457 1350 LINE",
"1455 1338 LINE",
"33 0 LINE",
"1 0 LINE"
);
},
{
closed = 1;
nodes = (
"499 444 LINE",
"1301 444 LINE",
"1297 422 LINE",
"461 422 LINE"
);
}
);
width = 3017;
},
{
anchors = (
{
name = bottom;
position = "{379, 0}";
},
{
name = top;
position = "{618, 1350}";
}
);
components = (
{
alignment = -1;
name = E;
transform = "{1, 0, 0, 1, 438, 0}";
}
);
layerId = "55C4185A-9C39-4468-B19C-DE0A3E571700";
paths = (
{
closed = 1;
nodes = (
"299 1350 LINE",
"591 1350 LINE",
"554 1160 LINE",
"275 0 LINE",
"-93 0 LINE"
);
},
{
closed = 1;
nodes = (
"270 448 LINE",
"546 448 LINE",
"503 204 LINE",
"173 204 LINE"
);
}
);
width = 940;
},
{
anchors = (
{
name = bottom;
position = "{9, 0}";
},
{
name = top;
position = "{248, 1350}";
}
);
components = (
{
alignment = -1;
name = E;
transform = "{1, 0, 0, 1, 63, 0}";
}
);
layerId = "4F53612F-C4F8-4368-83AD-8913BEEF8F1D";
paths = (
{
closed = 1;
nodes = (
"220 1350 LINE",
"238 1350 LINE",
"235 1334 LINE",
"-56 0 LINE",
"-78 0 LINE"
);
},
{
closed = 1;
nodes = (
"3 344 LINE",
"71 344 LINE",
"67 322 LINE",
"1 322 LINE"
);
}
);
width = 205;
},
{
anchors = (
{
name = bottom;
position = "{1566, 0}";
},
{
name = top;
position = "{1805, 1350}";
}
);
components = (
{
alignment = -1;
name = E;
transform = "{1, 0, 0, 1, 1470, 0}";
}
);
layerId = "E5A4176B-9C10-4B01-BBC9-D7999ECBFAF8";
paths = (
{
closed = 1;
nodes = (
"1309 1350 LINE",
"1803 1350 LINE",
"1780 1218 LINE",
"579 0 LINE",
"-11 0 LINE"
);
},
{
closed = 1;
nodes = (
"725 604 LINE",
"1627 604 LINE",
"1565 250 LINE",
"543 250 LINE"
);
}
);
width = 3394;
}
);
leftKerningGroup = A;
leftMetricsKey = A;
rightKerningGroup = E;
rightMetricsKey = E;
unicode = 00C6;
},
{
color = 6;
glyphname = B;
lastChange = "2022-02-25 13:22:32 +0000";
layers = (
{
anchors = (
{
name = bottom;
position = "{84, 0}";
},
{
name = top;
position = "{84, 1350}";
}
);
layerId = "A1A0948C-E637-4A65-8CCC-05505AD98C44";
paths = (
{
closed = 1;
nodes = (
"28 1350 LINE",
"65 1350 LINE SMOOTH",
"130 1350 OFFCURVE",
"130 1168 OFFCURVE",
"130 1068 QCURVE SMOOTH",
"130 952 OFFCURVE",
"130 768 OFFCURVE",
"90 762 QCURVE",
"130 756 OFFCURVE",
"130 530 OFFCURVE",
"130 396 QCURVE SMOOTH",
"130 236 OFFCURVE",
"130 0 OFFCURVE",
"67 0 QCURVE SMOOTH",
"28 0 LINE"
);
},
{
closed = 1;
nodes = (
"67 22 LINE SMOOTH",
"108 22 OFFCURVE",
"108 236 OFFCURVE",
"108 396 QCURVE SMOOTH",
"108 530 OFFCURVE",
"108 750 OFFCURVE",
"68 750 QCURVE SMOOTH",
"50 750 LINE",
"50 22 LINE"
);
},
{
closed = 1;
nodes = (
"68 772 LINE SMOOTH",
"108 772 OFFCURVE",
"108 954 OFFCURVE",
"108 1070 QCURVE SMOOTH",
"108 1170 OFFCURVE",
"108 1328 OFFCURVE",
"65 1328 QCURVE SMOOTH",
"50 1328 LINE",
"50 772 LINE"
);
}
);
width = 168;
},
{
anchors = (
{
name = bottom;
position = "{371, 0}";
},
{
name = top;
position = "{371, 1350}";
}
);
layerId = "BA0CA162-2A9B-49EE-921D-3B4346C7D39F";
paths = (
{
closed = 1;
nodes = (
"12 1350 LINE",
"520 1350 LINE SMOOTH",
"730 1350 OFFCURVE",
"730 1086 OFFCURVE",
"730 1024 QCURVE SMOOTH",
"730 956 OFFCURVE",
"730 748 OFFCURVE",
"588 746 QCURVE",
"730 738 OFFCURVE",
"730 508 OFFCURVE",
"730 408 QCURVE SMOOTH",
"730 266 OFFCURVE",
"730 0 OFFCURVE",
"496 0 QCURVE SMOOTH",
"12 0 LINE"
);
},
{
closed = 1;
nodes = (
"370 254 LINE SMOOTH",
"384 254 OFFCURVE",
"384 324 OFFCURVE",
"384 424 QCURVE SMOOTH",
"384 524 OFFCURVE",
"384 617 OFFCURVE",
"368 617 QCURVE SMOOTH",
"360 617 LINE",
"360 254 LINE"
);
},
{
closed = 1;
nodes = (
"368 869 LINE",
"384 869 OFFCURVE",
"384 932 OFFCURVE",
"384 992 QCURVE SMOOTH",
"384 1052 OFFCURVE",
"384 1100 OFFCURVE",
"368 1100 QCURVE SMOOTH",
"360 1100 LINE",
"360 869 LINE"
);
}
);
width = 742;
},
{
anchors = (
{
name = bottom;
position = "{1106, 0}";
},
{
name = top;
position = "{1106, 1350}";
}
);
layerId = "C75D3228-2D13-4E9D-9829-45195F4951D0";
paths = (
{
closed = 1;
nodes = (
"140 1350 LINE",
"1328 1350 LINE SMOOTH",
"1695 1350 OFFCURVE",
"1960 1180 OFFCURVE",
"1960 1014 QCURVE SMOOTH",
"1960 858 OFFCURVE",
"1756 696 OFFCURVE",
"1630 690 QCURVE",
"1756 684 OFFCURVE",
"2032 543 OFFCURVE",
"2032 369 QCURVE SMOOTH",
"2032 191 OFFCURVE",
"1777 0 OFFCURVE",
"1414 0 QCURVE SMOOTH",
"140 0 LINE"
);
},
{
closed = 1;
nodes = (
"1310 362 LINE SMOOTH",
"1414 362 OFFCURVE",
"1466 402 OFFCURVE",
"1466 448 QCURVE SMOOTH",
"1466 494 OFFCURVE",
"1414 532 OFFCURVE",
"1310 532 QCURVE SMOOTH",
"706 532 LINE",
"706 362 LINE"
);
},
{
closed = 1;
nodes = (
"1250 826 LINE SMOOTH",
"1334 826 OFFCURVE",
"1386 870 OFFCURVE",
"1386 910 QCURVE SMOOTH",
"1386 950 OFFCURVE",
"1334 988 OFFCURVE",
"1250 988 QCURVE SMOOTH",
"706 988 LINE",
"706 826 LINE"
);
}
);
width = 2192;
},
{
anchors = (
{
name = bottom;
position = "{1009, 0}";
},
{
name = top;
position = "{1009, 1350}";
}
);
layerId = "71977205-6510-4B11-BB00-17BACA883C8F";
paths = (
{
closed = 1;
nodes = (
"150 1350 LINE",
"1289 1350 LINE SMOOTH",
"1494 1350 OFFCURVE",
"1697 1204 OFFCURVE",
"1697 1047 QCURVE SMOOTH",
"1697 889 OFFCURVE",
"1471 722 OFFCURVE",
"1353 716 QCURVE",
"1492 710 OFFCURVE",
"1736 557 OFFCURVE",
"1736 373 QCURVE SMOOTH",
"1736 183 OFFCURVE",
"1517 0 OFFCURVE",
"1344 0 QCURVE SMOOTH",
"150 0 LINE"
);
},
{
closed = 1;
nodes = (
"1335 22 LINE SMOOTH",
"1507 22 OFFCURVE",
"1712 193 OFFCURVE",
"1712 373 QCURVE SMOOTH",
"1712 551 OFFCURVE",
"1453 704 OFFCURVE",
"1198 704 QCURVE SMOOTH",
"172 704 LINE",
"172 22 LINE"
);
},
{
closed = 1;
nodes = (
"1198 726 LINE SMOOTH",
"1437 726 OFFCURVE",
"1673 895 OFFCURVE",
"1673 1047 QCURVE SMOOTH",
"1673 1192 OFFCURVE",
"1486 1328 OFFCURVE",
"1280 1328 QCURVE SMOOTH",
"172 1328 LINE",
"172 726 LINE"
);
}
);
width = 1981;
},
{
anchors = (
{
name = bottom;
position = "{789, 0}";
},
{
name = top;
position = "{1028, 1350}";
}
);
layerId = "5997A0D0-E78E-41EC-9011-DECBEAD8517D";
paths = (
{
closed = 1;
nodes = (
"269 1350 LINE",
"1408 1350 LINE SMOOTH",
"1613 1350 OFFCURVE",
"1790 1200 OFFCURVE",
"1763 1047 QCURVE SMOOTH",
"1735 886 OFFCURVE",
"1479 722 OFFCURVE",
"1360 716 QCURVE",
"1498 710 OFFCURVE",
"1714 555 OFFCURVE",
"1683 373 QCURVE SMOOTH",
"1650 180 OFFCURVE",
"1398 0 OFFCURVE",
"1225 0 QCURVE SMOOTH",
"31 0 LINE"
);
},
{
closed = 1;
nodes = (
"1220 22 LINE SMOOTH",
"1392 22 OFFCURVE",
"1627 193 OFFCURVE",
"1659 373 QCURVE SMOOTH",
"1690 551 OFFCURVE",
"1458 704 OFFCURVE",
"1203 704 QCURVE SMOOTH",
"177 704 LINE",
"57 22 LINE"
);
},
{
closed = 1;
nodes = (
"1207 726 LINE SMOOTH",
"1446 726 OFFCURVE",
"1712 895 OFFCURVE",
"1739 1047 QCURVE SMOOTH",
"1764 1192 OFFCURVE",
"1601 1328 OFFCURVE",
"1395 1328 QCURVE SMOOTH",
"287 1328 LINE",
"181 726 LINE"
);
}
);
width = 1971;
},
{
anchors = (
{
name = bottom;
position = "{275, 0}";
},
{
name = top;
position = "{514, 1350}";
}
);
layerId = "55C4185A-9C39-4468-B19C-DE0A3E571700";
paths = (
{
closed = 1;
nodes = (
"148 1350 LINE",
"656 1350 LINE SMOOTH",
"866 1350 OFFCURVE",
"819 1086 OFFCURVE",
"809 1024 QCURVE SMOOTH",
"797 956 OFFCURVE",
"760 748 OFFCURVE",
"618 746 QCURVE",
"758 738 OFFCURVE",
"718 508 OFFCURVE",
"700 408 QCURVE SMOOTH",
"675 266 OFFCURVE",
"628 0 OFFCURVE",
"394 0 QCURVE SMOOTH",
"-90 0 LINE"
);
},
{
closed = 1;
nodes = (
"313 254 LINE SMOOTH",
"327 254 OFFCURVE",
"339 324 OFFCURVE",
"357 424 QCURVE SMOOTH",
"374 524 OFFCURVE",
"391 617 OFFCURVE",
"375 617 QCURVE SMOOTH",
"367 617 LINE",
"303 254 LINE"
);
},
{
closed = 1;
nodes = (
"419 869 LINE",
"435 869 OFFCURVE",
"446 932 OFFCURVE",
"457 992 QCURVE SMOOTH",
"467 1052 OFFCURVE",
"476 1100 OFFCURVE",
"460 1100 QCURVE SMOOTH",
"452 1100 LINE",
"411 869 LINE"
);
}
);
width = 742;
},
{
anchors = (
{
name = bottom;
position = "{-12, 0}";
},
{
name = top;
position = "{227, 1350}";
}
);
layerId = "4F53612F-C4F8-4368-83AD-8913BEEF8F1D";
paths = (
{
closed = 1;
nodes = (
"170 1350 LINE",
"207 1350 LINE SMOOTH",
"272 1350 OFFCURVE",
"240 1168 OFFCURVE",
"222 1068 QCURVE SMOOTH",
"202 952 OFFCURVE",
"169 768 OFFCURVE",
"128 762 QCURVE",
"167 756 OFFCURVE",
"127 530 OFFCURVE",
"104 396 QCURVE SMOOTH",
"76 236 OFFCURVE",
"34 0 OFFCURVE",
"-29 0 QCURVE SMOOTH",
"-68 0 LINE"
);
},
{
closed = 1;
nodes = (
"-25 22 LINE SMOOTH",
"16 22 OFFCURVE",
"54 236 OFFCURVE",
"82 396 QCURVE SMOOTH",
"111 563 OFFCURVE",
"144 750 OFFCURVE",
"104 750 QCURVE SMOOTH",
"86 750 LINE",
"-42 22 LINE"
);
},
{
closed = 1;
nodes = (
"108 772 LINE SMOOTH",
"148 772 OFFCURVE",
"183 967 OFFCURVE",
"201 1070 QCURVE SMOOTH",
"223 1193 OFFCURVE",
"246 1328 OFFCURVE",
"203 1328 QCURVE SMOOTH",
"188 1328 LINE",
"90 772 LINE"
);
}
);
width = 171;
},
{
anchors = (
{
name = bottom;
position = "{1003, 0}";
},
{
name = top;
position = "{1242, 1350}";
}
);
layerId = "E5A4176B-9C10-4B01-BBC9-D7999ECBFAF8";
paths = (
{
closed = 1;
nodes = (
"280 1350 LINE",
"1468 1350 LINE SMOOTH",
"1825 1350 OFFCURVE",
"2043 1205 OFFCURVE",
"2043 1074 QCURVE SMOOTH",
"2043 877 OFFCURVE",
"1781 696 OFFCURVE",
"1654 690 QCURVE",
"1779 684 OFFCURVE",
"2005 569 OFFCURVE",
"2005 416 QCURVE SMOOTH",
"2005 202 OFFCURVE",
"1679 0 OFFCURVE",
"1316 0 QCURVE SMOOTH",
"42 0 LINE"
);
},
{
closed = 1;
nodes = (
"1276 362 LINE SMOOTH",
"1380 362 OFFCURVE",
"1439 402 OFFCURVE",
"1447 448 QCURVE SMOOTH",
"1455 494 OFFCURVE",
"1410 532 OFFCURVE",
"1306 532 QCURVE SMOOTH",
"702 532 LINE",
"672 362 LINE"
);
},
{
closed = 1;
nodes = (
"1298 826 LINE SMOOTH",
"1382 826 OFFCURVE",
"1441 870 OFFCURVE",
"1448 910 QCURVE SMOOTH",
"1455 950 OFFCURVE",
"1410 988 OFFCURVE",
"1326 988 QCURVE SMOOTH",
"782 988 LINE",
"754 826 LINE"
);
}
);
width = 2184;
}
);
leftKerningGroup = H;
leftMetricsKey = H;
note = B;
rightKerningGroup = B;
unicode = 0042;
},
{
color = 6;
glyphname = C;
lastChange = "2022-02-25 13:22:32 +0000";
layers = (
{
anchors = (
{
name = bottom;
position = "{88, 0}";
},
{
name = top;
position = "{88, 1350}";
}
);
layerId = "A1A0948C-E637-4A65-8CCC-05505AD98C44";
paths = (
{
closed = 1;
nodes = (
"30 -8 OFFCURVE",
"30 206 OFFCURVE",
"30 678 QCURVE SMOOTH",
"30 1150 OFFCURVE",
"28 1356 OFFCURVE",
"88 1356 QCURVE SMOOTH",
"146 1356 OFFCURVE",
"146 1150 OFFCURVE",
"146 794 QCURVE",
"124 794 LINE",
"124 1144 OFFCURVE",
"124 1334 OFFCURVE",
"88 1334 QCURVE SMOOTH",
"50 1334 OFFCURVE",
"52 1144 OFFCURVE",
"52 678 QCURVE SMOOTH",
"52 212 OFFCURVE",
"52 14 OFFCURVE",
"88 14 QCURVE SMOOTH",
"124 14 OFFCURVE",
"124 214 OFFCURVE",
"124 556 QCURVE",
"146 556 LINE",
"146 206 OFFCURVE",
"146 -8 OFFCURVE",
"88 -8 QCURVE SMOOTH"
);
}
);
width = 184;
},
{
anchors = (
{
name = bottom;
position = "{370, 0}";
},
{
name = top;
position = "{370, 1350}";
}
);
layerId = "BA0CA162-2A9B-49EE-921D-3B4346C7D39F";
paths = (
{
closed = 1;
nodes = (
"12 -8 OFFCURVE",
"12 380 OFFCURVE",
"12 680 QCURVE SMOOTH",
"12 980 OFFCURVE",
"12 1362 OFFCURVE",
"366 1362 QCURVE SMOOTH",
"728 1362 OFFCURVE",
"728 980 OFFCURVE",
"728 774 QCURVE",
"382 774 LINE",
"382 1064 OFFCURVE",
"382 1108 OFFCURVE",
"370 1108 QCURVE SMOOTH",
"358 1108 OFFCURVE",
"358 1064 OFFCURVE",
"358 680 QCURVE SMOOTH",
"358 290 OFFCURVE",
"358 246 OFFCURVE",
"370 246 QCURVE SMOOTH",
"382 246 OFFCURVE",
"382 290 OFFCURVE",
"382 572 QCURVE",
"728 572 LINE",
"728 380 OFFCURVE",
"728 -8 OFFCURVE",
"368 -8 QCURVE SMOOTH"
);
}
);
width = 740;
},
{
anchors = (
{
name = bottom;
position = "{1068, 0}";
},
{
name = top;
position = "{1068, 1350}";
}
);
layerId = "C75D3228-2D13-4E9D-9829-45195F4951D0";
paths = (
{
closed = 1;
nodes = (
"614 -8 OFFCURVE",
"50 344 OFFCURVE",
"50 678 QCURVE SMOOTH",
"50 1012 OFFCURVE",
"614 1362 OFFCURVE",
"1082 1362 QCURVE SMOOTH",
"1550 1362 OFFCURVE",
"2056 1038 OFFCURVE",
"2056 814 QCURVE",
"1478 814 LINE",
"1478 874 OFFCURVE",
"1256 1000 OFFCURVE",
"1072 1000 QCURVE SMOOTH",
"884 1000 OFFCURVE",
"628 838 OFFCURVE",
"628 678 QCURVE SMOOTH",
"628 518 OFFCURVE",
"884 354 OFFCURVE",
"1072 354 QCURVE SMOOTH",
"1254 354 OFFCURVE",
"1478 486 OFFCURVE",
"1478 546 QCURVE",
"2056 546 LINE",
"2056 322 OFFCURVE",
"1550 -8 OFFCURVE",
"1082 -8 QCURVE SMOOTH"
);
}
);
width = 2167;
},
{
anchors = (
{
name = bottom;
position = "{941, 0}";
},
{
name = top;
position = "{941, 1350}";
}
);
layerId = "71977205-6510-4B11-BB00-17BACA883C8F";
paths = (
{
closed = 1;
nodes = (
"569 -10 OFFCURVE",
"113 367 OFFCURVE",
"113 676 QCURVE SMOOTH",
"113 982 OFFCURVE",
"569 1363 OFFCURVE",
"958 1363 QCURVE SMOOTH",
"1335 1363 OFFCURVE",
"1757 1035 OFFCURVE",
"1757 877 QCURVE",
"1734 877 LINE",
"1734 1022 OFFCURVE",
"1332 1341 OFFCURVE",
"958 1341 QCURVE SMOOTH",
"577 1341 OFFCURVE",
"137 969 OFFCURVE",
"137 676 QCURVE SMOOTH",
"137 382 OFFCURVE",
"578 12 OFFCURVE",
"958 12 QCURVE SMOOTH",
"1332 12 OFFCURVE",
"1734 336 OFFCURVE",
"1734 482 QCURVE",
"1757 482 LINE",
"1757 324 OFFCURVE",
"1336 -10 OFFCURVE",
"958 -10 QCURVE SMOOTH"
);
}
);
width = 2016;
},
{
anchors = (
{
name = bottom;
position = "{733, 0}";
},
{
name = top;
position = "{972, 1350}";
}
);
layerId = "5997A0D0-E78E-41EC-9011-DECBEAD8517D";
paths = (
{
closed = 1;
nodes = (
"457 -10 OFFCURVE",
"73 377 OFFCURVE",
"114 676 QCURVE SMOOTH",
"159 1003 OFFCURVE",
"686 1363 OFFCURVE",
"1075 1363 QCURVE SMOOTH",
"1452 1363 OFFCURVE",
"1810 1074 OFFCURVE",
"1793 877 QCURVE",
"1770 877 LINE",
"1785 1061 OFFCURVE",
"1450 1341 OFFCURVE",
"1076 1341 QCURVE SMOOTH",
"695 1341 OFFCURVE",
"181 991 OFFCURVE",
"138 676 QCURVE SMOOTH",
"99 392 OFFCURVE",
"460 12 OFFCURVE",
"842 12 QCURVE SMOOTH",
"1216 12 OFFCURVE",
"1675 316 OFFCURVE",
"1701 482 QCURVE",
"1724 482 LINE",
"1696 304 OFFCURVE",
"1224 -10 OFFCURVE",
"846 -10 QCURVE SMOOTH"
);
}
);
width = 2016;
},
{
anchors = (
{
name = bottom;
position = "{270, 0}";
},
{
name = top;
position = "{509, 1350}";
}
);
layerId = "55C4185A-9C39-4468-B19C-DE0A3E571700";
paths = (
{
closed = 1;
nodes = (
"-90 -8 OFFCURVE",
"-21 380 OFFCURVE",
"32 680 QCURVE SMOOTH",
"84 980 OFFCURVE",
"152 1362 OFFCURVE",
"506 1362 QCURVE SMOOTH",
"868 1362 OFFCURVE",
"800 980 OFFCURVE",
"764 774 QCURVE",
"418 774 LINE",
"469 1064 OFFCURVE",
"477 1108 OFFCURVE",
"465 1108 QCURVE SMOOTH",
"453 1108 OFFCURVE",
"445 1064 OFFCURVE",
"378 680 QCURVE SMOOTH",
"309 290 OFFCURVE",
"301 246 OFFCURVE",
"313 246 QCURVE SMOOTH",
"325 246 OFFCURVE",
"333 290 OFFCURVE",
"382 572 QCURVE",
"728 572 LINE",
"695 380 OFFCURVE",
"626 -8 OFFCURVE",
"266 -8 QCURVE SMOOTH"
);
}
);
width = 740;
},
{
anchors = (
{
name = bottom;
position = "{-6, 0}";
},
{
name = top;
position = "{233, 1350}";
}
);
layerId = "4F53612F-C4F8-4368-83AD-8913BEEF8F1D";
paths = (
{
closed = 1;
nodes = (
"-67 -8 OFFCURVE",
"-30 206 OFFCURVE",
"54 678 QCURVE SMOOTH",
"137 1150 OFFCURVE",
"171 1356 OFFCURVE",
"229 1356 QCURVE SMOOTH",
"289 1356 OFFCURVE",
"253 1150 OFFCURVE",
"190 794 QCURVE",
"168 794 LINE",
"230 1144 OFFCURVE",
"263 1334 OFFCURVE",
"227 1334 QCURVE SMOOTH",
"189 1334 OFFCURVE",
"158 1144 OFFCURVE",
"76 678 QCURVE SMOOTH",
"-6 212 OFFCURVE",
"-41 14 OFFCURVE",
"-5 14 QCURVE SMOOTH",
"31 14 OFFCURVE",
"66 214 OFFCURVE",
"126 556 QCURVE",
"148 556 LINE",
"86 206 OFFCURVE",
"49 -8 OFFCURVE",
"-8 -8 QCURVE SMOOTH"
);
}
);
width = 184;
},
{
anchors = (
{
name = bottom;
position = "{964, 0}";
},
{
name = top;
position = "{1203, 1350}";
}
);
layerId = "E5A4176B-9C10-4B01-BBC9-D7999ECBFAF8";
paths = (
{
closed = 1;
nodes = (
"522 -8 OFFCURVE",
"20 344 OFFCURVE",
"69 678 QCURVE SMOOTH",
"118 1014 OFFCURVE",
"744 1362 OFFCURVE",
"1212 1362 QCURVE SMOOTH",
"1680 1362 OFFCURVE",
"2129 1038 OFFCURVE",
"2099 814 QCURVE",
"1521 814 LINE",
"1528 874 OFFCURVE",
"1332 1000 OFFCURVE",
"1148 1000 QCURVE SMOOTH",
"960 1000 OFFCURVE",
"665 848 OFFCURVE",
"647 678 QCURVE SMOOTH",
"630 517 OFFCURVE",
"846 354 OFFCURVE",
"1034 354 QCURVE SMOOTH",
"1216 354 OFFCURVE",
"1463 486 OFFCURVE",
"1474 546 QCURVE",
"2052 546 LINE",
"2012 322 OFFCURVE",
"1458 -8 OFFCURVE",
"990 -8 QCURVE SMOOTH"
);
}
);
width = 2167;
}
);
leftKerningGroup = O;
note = C;
rightKerningGroup = O;
unicode = 0043;
},
{
color = 6;
glyphname = D;
lastChange = "2022-02-25 13:22:32 +0000";
layers = (
{
anchors = (
{
name = bottom;
position = "{75, 0}";
},
{
name = center;
position = "{85, 675}";
},
{
name = top;
position = "{75, 1350}";
}
);
layerId = "A1A0948C-E637-4A65-8CCC-05505AD98C44";
paths = (
{
closed = 1;
nodes = (
"28 1350 LINE",
"70 1350 LINE SMOOTH",
"132 1350 OFFCURVE",
"132 1106 OFFCURVE",
"132 674 QCURVE SMOOTH",
"132 242 OFFCURVE",
"132 0 OFFCURVE",
"70 0 QCURVE SMOOTH",
"28 0 LINE"
);
},
{
closed = 1;
nodes = (
"68 22 LINE SMOOTH",
"110 22 OFFCURVE",
"110 248 OFFCURVE",
"110 674 QCURVE SMOOTH",
"110 1100 OFFCURVE",
"110 1328 OFFCURVE",
"68 1328 QCURVE SMOOTH",
"50 1328 LINE",
"50 22 LINE"
);
}
);
width = 162;
},
{
anchors = (
{
name = bottom;
position = "{370, 0}";
},
{
name = center;
position = "{370, 675}";
},
{
name = top;
position = "{370, 1350}";
}
);
layerId = "BA0CA162-2A9B-49EE-921D-3B4346C7D39F";
paths = (
{
closed = 1;
nodes = (
"12 1350 LINE",
"486 1350 LINE SMOOTH",
"728 1350 OFFCURVE",
"728 1056 OFFCURVE",
"728 676 QCURVE SMOOTH",
"728 296 OFFCURVE",
"728 0 OFFCURVE",
"486 0 QCURVE SMOOTH",
"12 0 LINE"
);
},
{
closed = 1;
nodes = (
"366 254 LINE SMOOTH",
"382 254 OFFCURVE",
"382 306 OFFCURVE",
"382 676 QCURVE SMOOTH",
"382 1044 OFFCURVE",
"382 1096 OFFCURVE",
"366 1096 QCURVE SMOOTH",
"358 1096 LINE",
"358 254 LINE"
);
}
);
width = 740;
},
{
anchors = (
{
name = bottom;
position = "{1102, 0}";
},
{
name = center;
position = "{1102, 675}";
},
{
name = top;
position = "{1102, 1350}";
}
);
layerId = "C75D3228-2D13-4E9D-9829-45195F4951D0";
paths = (
{
closed = 1;
nodes = (
"140 1350 LINE",
"1268 1350 LINE SMOOTH",
"1632 1350 OFFCURVE",
"2082 1030 OFFCURVE",
"2082 676 QCURVE SMOOTH",
"2082 322 OFFCURVE",
"1632 0 OFFCURVE",
"1268 0 QCURVE SMOOTH",
"140 0 LINE"
);
},
{
closed = 1;
nodes = (
"1138 362 LINE SMOOTH",
"1330 362 OFFCURVE",
"1516 504 OFFCURVE",
"1516 676 QCURVE SMOOTH",
"1516 846 OFFCURVE",
"1330 988 OFFCURVE",
"1138 988 QCURVE SMOOTH",
"706 988 LINE",
"706 362 LINE"
);
}
);
width = 2169;
},
{
anchors = (
{
name = bottom;
position = "{916, 0}";
},
{
name = center;
position = "{949, 675}";
},
{
name = top;
position = "{866, 1350}";
}
);
layerId = "71977205-6510-4B11-BB00-17BACA883C8F";
paths = (
{
closed = 1;
nodes = (
"150 1350 LINE",
"905 1350 LINE SMOOTH",
"1285 1350 OFFCURVE",
"1722 1034 OFFCURVE",
"1722 676 QCURVE SMOOTH",
"1722 318 OFFCURVE",
"1284 0 OFFCURVE",
"905 0 QCURVE SMOOTH",
"150 0 LINE"
);
},
{
closed = 1;
nodes = (
"899 22 LINE SMOOTH",
"1274 22 OFFCURVE",
"1698 329 OFFCURVE",
"1698 676 QCURVE SMOOTH",
"1698 1024 OFFCURVE",
"1274 1328 OFFCURVE",
"899 1328 QCURVE SMOOTH",
"172 1328 LINE",
"172 22 LINE"
);
}
);
width = 1916;
},
{
anchors = (
{
name = bottom;
position = "{749, 0}";
},
{
name = center;
position = "{269, 675}";
},
{
name = top;
position = "{994, 1350}";
}
);
layerId = "5997A0D0-E78E-41EC-9011-DECBEAD8517D";
paths = (
{
closed = 1;
nodes = (
"269 1350 LINE",
"1024 1350 LINE SMOOTH",
"1404 1350 OFFCURVE",
"1771 1024 OFFCURVE",
"1722 676 QCURVE SMOOTH",
"1670 306 OFFCURVE",
"1165 0 OFFCURVE",
"786 0 QCURVE SMOOTH",
"31 0 LINE"
);
},
{
closed = 1;
nodes = (
"784 22 LINE SMOOTH",
"1159 22 OFFCURVE",
"1645 317 OFFCURVE",
"1698 676 QCURVE SMOOTH",
"1748 1014 OFFCURVE",
"1389 1328 OFFCURVE",
"1014 1328 QCURVE SMOOTH",
"287 1328 LINE",
"57 22 LINE"
);
}
);
width = 1926;
},
{
anchors = (
{
name = bottom;
position = "{272, 0}";
},
{
name = center;
position = "{392, 675}";
},
{
name = top;
position = "{511, 1350}";
}
);
layerId = "55C4185A-9C39-4468-B19C-DE0A3E571700";
paths = (
{
closed = 1;
nodes = (
"148 1350 LINE",
"622 1350 LINE SMOOTH",
"864 1350 OFFCURVE",
"812 1056 OFFCURVE",
"745 676 QCURVE SMOOTH",
"678 296 OFFCURVE",
"626 0 OFFCURVE",
"384 0 QCURVE SMOOTH",
"-90 0 LINE"
);
},
{
closed = 1;
nodes = (
"309 254 LINE SMOOTH",
"325 254 OFFCURVE",
"334 306 OFFCURVE",
"399 676 QCURVE SMOOTH",
"464 1044 OFFCURVE",
"473 1096 OFFCURVE",
"457 1096 QCURVE SMOOTH",
"449 1096 LINE",
"301 254 LINE"
);
}
);
width = 742;
},
{
anchors = (
{
name = bottom;
position = "{-13, 0}";
},
{
name = center;
position = "{107, 675}";
},
{
name = top;
position = "{226, 1350}";
}
);
layerId = "4F53612F-C4F8-4368-83AD-8913BEEF8F1D";
paths = (
{
closed = 1;
nodes = (
"170 1350 LINE",
"212 1350 LINE SMOOTH",
"274 1350 OFFCURVE",
"231 1106 OFFCURVE",
"155 674 QCURVE SMOOTH",
"79 242 OFFCURVE",
"36 0 OFFCURVE",
"-26 0 QCURVE SMOOTH",
"-68 0 LINE"
);
},
{
closed = 1;
nodes = (
"-24 22 LINE SMOOTH",
"18 22 OFFCURVE",
"58 248 OFFCURVE",
"133 674 QCURVE SMOOTH",
"208 1100 OFFCURVE",
"248 1328 OFFCURVE",
"206 1328 QCURVE SMOOTH",
"188 1328 LINE",
"-42 22 LINE"
);
}
);
width = 163;
},
{
anchors = (
{
name = bottom;
position = "{960, 0}";
},
{
name = center;
position = "{1150, 675}";
},
{
name = top;
position = "{1199, 1350}";
}
);
layerId = "E5A4176B-9C10-4B01-BBC9-D7999ECBFAF8";
paths = (
{
closed = 1;
nodes = (
"280 1350 LINE",
"1388 1350 LINE SMOOTH",
"1752 1350 OFFCURVE",
"2146 1020 OFFCURVE",
"2103 676 QCURVE SMOOTH",
"2059 320 OFFCURVE",
"1554 0 OFFCURVE",
"1190 0 QCURVE SMOOTH",
"42 0 LINE"
);
},
{
closed = 1;
nodes = (
"1104 362 LINE SMOOTH",
"1296 362 OFFCURVE",
"1507 504 OFFCURVE",
"1537 676 QCURVE SMOOTH",
"1567 846 OFFCURVE",
"1406 988 OFFCURVE",
"1214 988 QCURVE SMOOTH",
"782 988 LINE",
"672 362 LINE"
);
}
);
width = 2191;
}
);
leftKerningGroup = H;
leftMetricsKey = H;
note = D;
rightKerningGroup = O;
rightMetricsKey = O;
unicode = 0044;
},
{
color = 3;
glyphname = Eth;
lastChange = "2022-02-25 13:22:32 +0000";
layers = (
{
components = (
{
name = D;
transform = "{1, 0, 0, 1, 36, 0}";
}
);
layerId = "A1A0948C-E637-4A65-8CCC-05505AD98C44";
paths = (
{
closed = 1;
nodes = (
"28 688 LINE",
"126 688 LINE",
"126 666 LINE",
"28 666 LINE"
);
}
);
width = 198;
},
{
components = (
{
alignment = -1;
name = D;
transform = "{1, 0, 0, 1, 52, 0}";
}
);
layerId = "BA0CA162-2A9B-49EE-921D-3B4346C7D39F";
paths = (
{
closed = 1;
nodes = (
"12 788 LINE",
"422 788 LINE",
"422 564 LINE",
"12 564 LINE"
);
}
);
width = 792;
},
{
components = (
{
alignment = -1;
name = D;
transform = "{1, 0, 0, 1, 44, 0}";
}
);
layerId = "C75D3228-2D13-4E9D-9829-45195F4951D0";
paths = (
{
closed = 1;
nodes = (
"-52 858 LINE",
"1088 858 LINE",
"1088 494 LINE",
"-52 494 LINE"
);
}
);
width = 2213;
},
{
components = (
{
name = D;
transform = "{1, 0, 0, 1, -6, 0}";
}
);
layerId = "71977205-6510-4B11-BB00-17BACA883C8F";
paths = (
{
closed = 1;
nodes = (
"-78 688 LINE",
"602 688 LINE",
"602 666 LINE",
"-78 666 LINE"
);
}
);
width = 1910;
},
{
components = (
{
name = D;
}
);
layerId = "5997A0D0-E78E-41EC-9011-DECBEAD8517D";
paths = (
{
closed = 1;
nodes = (
"-62 688 LINE",
"540 688 LINE",
"538 666 LINE",
"-64 666 LINE"
);
}
);
width = 1926;
},
{
components = (
{
alignment = -1;
name = D;
transform = "{1, 0, 0, 1, 54, 0}";
}
);
layerId = "55C4185A-9C39-4468-B19C-DE0A3E571700";
paths = (
{
closed = 1;
nodes = (
"50 788 LINE",
"465 788 LINE",
"425 564 LINE",
"8 564 LINE"
);
}
);
width = 796;
},
{
components = (
{
name = D;
transform = "{1, 0, 0, 1, 50, 0}";
}
);
layerId = "4F53612F-C4F8-4368-83AD-8913BEEF8F1D";
paths = (
{
closed = 1;
nodes = (
"54 688 LINE",
"152 688 LINE",
"150 666 LINE",
"50 666 LINE"
);
}
);
width = 213;
},
{
components = (
{
alignment = -1;
name = D;
transform = "{1, 0, 0, 1, 44, 0}";
}
);
layerId = "E5A4176B-9C10-4B01-BBC9-D7999ECBFAF8";
paths = (
{
closed = 1;
nodes = (
"-64 858 LINE",
"1108 858 LINE",
"1052 494 LINE",
"-120 494 LINE"
);
}
);
width = 2235;
}
);
leftKerningGroup = H;
rightKerningGroup = O;
rightMetricsKey = D;
unicode = 00D0;
},
{
color = 6;
glyphname = E;
lastChange = "2022-02-25 13:22:32 +0000";
layers = (
{
anchors = (
{
name = bottom;
position = "{73, 0}";
},
{
name = ogonek;
position = "{89, 0}";
},
{
name = top;
position = "{73, 1350}";
},
{
name = topleft;
position = "{24, 1350}";
}
);
layerId = "A1A0948C-E637-4A65-8CCC-05505AD98C44";
paths = (
{
closed = 1;
nodes = (
"32 1350 LINE",
"108 1350 LINE",
"108 1328 LINE",
"54 1328 LINE",
"54 710 LINE",
"108 710 LINE",
"108 688 LINE",
"54 688 LINE",
"54 22 LINE",
"108 22 LINE",
"108 0 LINE",
"32 0 LINE"
);
}
);
width = 142;
},
{
anchors = (
{
name = bottom;
position = "{251, 0}";
},
{
name = ogonek;
position = "{364, 0}";
},
{
name = top;
position = "{251, 1350}";
},
{
name = topleft;
position = "{20, 1350}";
}
);
layerId = "BA0CA162-2A9B-49EE-921D-3B4346C7D39F";
paths = (
{
closed = 1;
nodes = (
"12 1350 LINE",
"490 1350 LINE",
"490 1096 LINE",
"360 1096 LINE",
"360 805 LINE",
"490 805 LINE",
"490 555 LINE",
"360 555 LINE",
"360 254 LINE",
"490 254 LINE",
"490 0 LINE",
"12 0 LINE"
);
}
);
width = 502;
},
{
anchors = (
{
name = bottom;
position = "{932, 0}";
},
{
name = ogonek;
position = "{1476, 0}";
},
{
name = top;
position = "{932, 1350}";
},
{
name = topleft;
position = "{20, 1350}";
}
);
layerId = "C75D3228-2D13-4E9D-9829-45195F4951D0";
paths = (
{
closed = 1;
nodes = (
"120 1350 LINE",
"1776 1350 LINE",
"1776 988 LINE",
"686 988 LINE",
"686 844 LINE",
"1676 844 LINE",
"1676 508 LINE",
"686 508 LINE",
"686 362 LINE",
"1776 362 LINE",
"1776 0 LINE",
"120 0 LINE"
);
}
);
width = 1924;
},
{
anchors = (
{
name = bottom;
position = "{921, 0}";
},
{
name = ogonek;
position = "{950, 0}";
},
{
name = top;
position = "{921, 1350}";
},
{
name = topleft;
position = "{19, 1350}";
}
);
layerId = "71977205-6510-4B11-BB00-17BACA883C8F";
paths = (
{
closed = 1;
nodes = (
"156 1350 LINE",
"1617 1350 LINE",
"1617 1328 LINE",
"178 1328 LINE",
"178 710 LINE",
"1548 710 LINE",
"1548 688 LINE",
"178 688 LINE",
"178 22 LINE",
"1617 22 LINE",
"1617 0 LINE",
"156 0 LINE"
);
}
);
width = 1842;
},
{
anchors = (
{
name = bottom;
position = "{715, 0}";
},
{
name = ogonek;
position = "{733, 0}";
},
{
name = top;
position = "{954, 1350}";
},
{
name = topleft;
position = "{164, 1350}";
}
);
layerId = "5997A0D0-E78E-41EC-9011-DECBEAD8517D";
paths = (
{
closed = 1;
nodes = (
"274 1350 LINE",
"1735 1350 LINE",
"1731 1328 LINE",
"292 1328 LINE",
"183 710 LINE",
"1553 710 LINE",
"1549 688 LINE",
"179 688 LINE",
"62 22 LINE",
"1501 22 LINE",
"1497 0 LINE",
"36 0 LINE"
);
}
);
width = 1842;
},
{
anchors = (
{
name = bottom;
position = "{155, 0}";
},
{
name = ogonek;
position = "{275, 0}";
},
{
name = top;
position = "{394, 1350}";
},
{
name = topleft;
position = "{164, 1350}";
}
);
layerId = "55C4185A-9C39-4468-B19C-DE0A3E571700";
paths = (
{
closed = 1;
nodes = (
"148 1350 LINE",
"626 1350 LINE",
"581 1096 LINE",
"451 1096 LINE",
"400 805 LINE",
"530 805 LINE",
"486 555 LINE",
"356 555 LINE",
"303 254 LINE",
"433 254 LINE",
"388 0 LINE",
"-90 0 LINE"
);
}
);
width = 502;
},
{
anchors = (
{
name = bottom;
position = "{-26, 0}";
},
{
name = ogonek;
position = "{-10, 0}";
},
{
name = top;
position = "{213, 1350}";
},
{
name = topleft;
position = "{164, 1350}";
}
);
layerId = "4F53612F-C4F8-4368-83AD-8913BEEF8F1D";
paths = (
{
closed = 1;
nodes = (
"173 1350 LINE",
"249 1350 LINE",
"245 1328 LINE",
"191 1328 LINE",
"82 710 LINE",
"136 710 LINE",
"132 688 LINE",
"78 688 LINE",
"-39 22 LINE",
"15 22 LINE",
"11 0 LINE",
"-65 0 LINE"
);
}
);
width = 142;
},
{
anchors = (
{
name = bottom;
position = "{836, 0}";
},
{
name = ogonek;
position = "{1286, 0}";
},
{
name = top;
position = "{1075, 1350}";
},
{
name = topleft;
position = "{164, 1350}";
}
);
layerId = "E5A4176B-9C10-4B01-BBC9-D7999ECBFAF8";
paths = (
{
closed = 1;
nodes = (
"239 1350 LINE",
"1895 1350 LINE",
"1831 988 LINE",
"741 988 LINE",
"716 844 LINE",
"1706 844 LINE",
"1647 508 LINE",
"657 508 LINE",
"631 362 LINE",
"1721 362 LINE",
"1657 0 LINE",
"1 0 LINE"
);
}
);
width = 1924;
}
);
leftKerningGroup = H;
note = E;
rightKerningGroup = E;
unicode = 0045;
},
{
color = 6;
glyphname = Schwa;
lastChange = "2022-02-25 13:22:32 +0000";
layers = (
{
anchors = (
{
name = bottom;
position = "{90, -11}";
},
{
name = top;
position = "{91, 1350}";
}
);
layerId = "A1A0948C-E637-4A65-8CCC-05505AD98C44";
paths = (
{
closed = 1;
nodes = (
"28 -11 OFFCURVE",
"28 285 OFFCURVE",
"28 678 QCURVE",
"28 682 OFFCURVE",
"28 688 QCURVE",
"138 688 LINE",
"138 665 LINE",
"42 665 LINE",
"50 676 LINE",
"50 299 OFFCURVE",
"50 11 OFFCURVE",
"90 11 QCURVE SMOOTH",
"130 11 OFFCURVE",
"130 299 OFFCURVE",
"130 676 QCURVE SMOOTH",
"130 988 OFFCURVE",
"130 1334 OFFCURVE",
"91 1334 QCURVE",
"91 1356 LINE",
"152 1356 OFFCURVE",
"152 992 OFFCURVE",
"152 678 QCURVE SMOOTH",
"152 295 OFFCURVE",
"152 -11 OFFCURVE",
"90 -11 QCURVE SMOOTH"
);
},
{
closed = 1;
nodes = (
"28 890 LINE",
"28 1230 OFFCURVE",
"30 1356 OFFCURVE",
"91 1356 CURVE",
"94 1346 LINE",
"91 1334 LINE",
"51 1334 OFFCURVE",
"50 1203 OFFCURVE",
"50 890 CURVE"
);
}
);
width = 182;
},
{
anchors = (
{
name = bottom;
position = "{374, -9}";
},
{
name = top;
position = "{374, 1350}";
}
);
layerId = "BA0CA162-2A9B-49EE-921D-3B4346C7D39F";
paths = (
{
closed = 1;
nodes = (
"12 -9 OFFCURVE",
"12 347 OFFCURVE",
"12 667 QCURVE SMOOTH",
"12 731 OFFCURVE",
"12 787 QCURVE",
"416 787 LINE",
"416 563 LINE",
"340 563 LINE",
"360 591 LINE",
"360 337 OFFCURVE",
"360 247 OFFCURVE",
"374 247 QCURVE SMOOTH",
"388 247 OFFCURVE",
"388 337 OFFCURVE",
"388 667 QCURVE SMOOTH",
"388 1003 OFFCURVE",
"388 1106 OFFCURVE",
"376 1106 QCURVE",
"376 1360 LINE",
"736 1360 OFFCURVE",
"736 997 OFFCURVE",
"736 677 QCURVE SMOOTH",
"736 347 OFFCURVE",
"736 -9 OFFCURVE",
"374 -9 QCURVE SMOOTH"
);
},
{
closed = 1;
nodes = (
"12 905 LINE",
"12 1258 OFFCURVE",
"55 1360 OFFCURVE",
"376 1360 CURVE",
"394 1244 LINE",
"376 1106 LINE",
"361 1106 OFFCURVE",
"360 1050 OFFCURVE",
"360 905 CURVE"
);
}
);
width = 748;
},
{
anchors = (
{
name = bottom;
position = "{878, -8}";
},
{
name = top;
position = "{878, 1350}";
}
);
layerId = "71977205-6510-4B11-BB00-17BACA883C8F";
paths = (
{
closed = 1;
nodes = (
"556 -8 OFFCURVE",
"142 311 OFFCURVE",
"142 656 QCURVE SMOOTH",
"142 667 OFFCURVE",
"142 680 QCURVE",
"1614 680 LINE",
"1614 657 LINE",
"156 657 LINE",
"167 668 LINE",
"167 321 OFFCURVE",
"565 14 OFFCURVE",
"878 14 QCURVE SMOOTH",
"1183 14 OFFCURVE",
"1602 327 OFFCURVE",
"1602 668 QCURVE SMOOTH",
"1602 1018 OFFCURVE",
"1208 1339 OFFCURVE",
"878 1339 QCURVE",
"878 1361 LINE",
"1212 1361 OFFCURVE",
"1626 1035 OFFCURVE",
"1626 667 QCURVE SMOOTH",
"1626 312 OFFCURVE",
"1189 -8 OFFCURVE",
"878 -8 QCURVE SMOOTH"
);
},
{
closed = 1;
nodes = (
"154 975 LINE",
"154 1193 OFFCURVE",
"482 1361 OFFCURVE",
"878 1361 CURVE",
"881 1351 LINE",
"878 1339 LINE",
"500 1339 OFFCURVE",
"178 1181 OFFCURVE",
"178 975 CURVE"
);
}
);
width = 1820;
},
{
anchors = (
{
name = bottom;
position = "{1056, -11}";
},
{
name = top;
position = "{1034, 1350}";
}
);
layerId = "C75D3228-2D13-4E9D-9829-45195F4951D0";
paths = (
{
closed = 1;
nodes = (
"636 -14 OFFCURVE",
"80 331 OFFCURVE",
"80 684 QCURVE SMOOTH",
"80 778 OFFCURVE",
"98 836 QCURVE",
"1558 836 LINE",
"1558 512 LINE",
"620 512 LINE",
"626 558 LINE",
"626 392 OFFCURVE",
"880 306 OFFCURVE",
"1054 306 QCURVE SMOOTH",
"1268 306 OFFCURVE",
"1510 424 OFFCURVE",
"1510 684 QCURVE SMOOTH",
"1510 906 OFFCURVE",
"1278 1038 OFFCURVE",
"1034 1038 QCURVE",
"1036 1366 LINE",
"1450 1366 OFFCURVE",
"2034 1074 OFFCURVE",
"2034 684 QCURVE SMOOTH",
"2034 314 OFFCURVE",
"1454 -14 OFFCURVE",
"1056 -14 QCURVE SMOOTH"
);
},
{
closed = 1;
nodes = (
"175 1253 LINE",
"283 1310 OFFCURVE",
"766 1366 OFFCURVE",
"1036 1366 CURVE",
"1072 1244 LINE",
"1034 1038 LINE",
"870 1038 OFFCURVE",
"687 1006 OFFCURVE",
"632 980 CURVE"
);
}
);
width = 2121;
},
{
anchors = (
{
name = bottom;
position = "{2, 0}";
},
{
name = top;
position = "{232, 1350}";
}
);
layerId = "4F53612F-C4F8-4368-83AD-8913BEEF8F1D";
paths = (
{
closed = 1;
nodes = (
"-71 -11 OFFCURVE",
"-18 285 OFFCURVE",
"51 678 QCURVE",
"52 682 OFFCURVE",
"53 688 QCURVE",
"163 688 LINE",
"159 665 LINE",
"63 665 LINE",
"73 676 LINE",
"6 299 OFFCURVE",
"-45 11 OFFCURVE",
"-5 11 QCURVE SMOOTH",
"35 11 OFFCURVE",
"86 299 OFFCURVE",
"153 676 QCURVE SMOOTH",
"208 988 OFFCURVE",
"269 1334 OFFCURVE",
"230 1334 QCURVE",
"234 1356 LINE",
"295 1356 OFFCURVE",
"230 992 OFFCURVE",
"175 678 QCURVE SMOOTH",
"107 295 OFFCURVE",
"53 -11 OFFCURVE",
"-9 -11 QCURVE SMOOTH"
);
},
{
closed = 1;
nodes = (
"88 890 LINE",
"148 1230 OFFCURVE",
"173 1356 OFFCURVE",
"234 1356 CURVE",
"235 1346 LINE",
"230 1334 LINE",
"190 1334 OFFCURVE",
"166 1203 OFFCURVE",
"110 890 CURVE"
);
}
);
width = 182;
},
{
anchors = (
{
name = bottom;
position = "{266, 0}";
},
{
name = top;
position = "{504, 1350}";
}
);
layerId = "55C4185A-9C39-4468-B19C-DE0A3E571700";
paths = (
{
closed = 1;
nodes = (
"-94 -9 OFFCURVE",
"-31 347 OFFCURVE",
"26 667 QCURVE SMOOTH",
"37 731 OFFCURVE",
"47 787 QCURVE",
"451 787 LINE",
"411 563 LINE",
"335 563 LINE",
"360 591 LINE",
"315 337 OFFCURVE",
"299 247 OFFCURVE",
"313 247 QCURVE SMOOTH",
"327 247 OFFCURVE",
"343 337 OFFCURVE",
"402 667 QCURVE SMOOTH",
"461 1003 OFFCURVE",
"479 1106 OFFCURVE",
"467 1106 QCURVE",
"512 1360 LINE",
"872 1360 OFFCURVE",
"808 997 OFFCURVE",
"751 677 QCURVE SMOOTH",
"693 347 OFFCURVE",
"630 -9 OFFCURVE",
"268 -9 QCURVE SMOOTH"
);
},
{
closed = 1;
nodes = (
"67 905 LINE",
"130 1258 OFFCURVE",
"191 1360 OFFCURVE",
"512 1360 CURVE",
"509 1244 LINE",
"467 1106 LINE",
"452 1106 OFFCURVE",
"441 1050 OFFCURVE",
"415 905 CURVE"
);
}
);
width = 748;
},
{
anchors = (
{
name = bottom;
position = "{757, 0}";
},
{
name = top;
position = "{995, 1350}";
}
);
layerId = "5997A0D0-E78E-41EC-9011-DECBEAD8517D";
paths = (
{
closed = 1;
nodes = (
"428 -8 OFFCURVE",
"68 311 OFFCURVE",
"128 656 QCURVE SMOOTH",
"130 667 OFFCURVE",
"133 680 QCURVE",
"1605 680 LINE",
"1601 657 LINE",
"143 657 LINE",
"156 668 LINE",
"94 321 OFFCURVE",
"438 14 OFFCURVE",
"751 14 QCURVE SMOOTH",
"1056 14 OFFCURVE",
"1530 327 OFFCURVE",
"1591 668 QCURVE SMOOTH",
"1652 1018 OFFCURVE",
"1315 1339 OFFCURVE",
"985 1339 QCURVE",
"983 1361 LINE",
"1317 1361 OFFCURVE",
"1679 1035 OFFCURVE",
"1614 667 QCURVE SMOOTH",
"1552 312 OFFCURVE",
"1061 -8 OFFCURVE",
"750 -8 QCURVE SMOOTH"
);
},
{
closed = 1;
nodes = (
"197 975 LINE",
"235 1193 OFFCURVE",
"587 1361 OFFCURVE",
"983 1361 CURVE",
"990 1351 LINE",
"985 1339 LINE",
"607 1339 OFFCURVE",
"257 1181 OFFCURVE",
"221 975 CURVE"
);
}
);
width = 1819;
},
{
anchors = (
{
name = bottom;
position = "{932, 0}";
},
{
name = top;
position = "{1150, 1350}";
}
);
layerId = "E5A4176B-9C10-4B01-BBC9-D7999ECBFAF8";
paths = (
{
closed = 1;
nodes = (
"512 -14 OFFCURVE",
"17 331 OFFCURVE",
"79 684 QCURVE SMOOTH",
"96 778 OFFCURVE",
"124 836 QCURVE",
"1584 836 LINE",
"1527 512 LINE",
"589 512 LINE",
"603 558 LINE",
"574 392 OFFCURVE",
"813 306 OFFCURVE",
"987 306 QCURVE SMOOTH",
"1201 306 OFFCURVE",
"1464 424 OFFCURVE",
"1509 684 QCURVE SMOOTH",
"1549 906 OFFCURVE",
"1340 1038 OFFCURVE",
"1096 1038 QCURVE",
"1156 1366 LINE",
"1570 1366 OFFCURVE",
"2102 1074 OFFCURVE",
"2033 684 QCURVE SMOOTH",
"1968 314 OFFCURVE",
"1330 -14 OFFCURVE",
"932 -14 QCURVE SMOOTH"
);
},
{
closed = 1;
nodes = (
"275 1253 LINE",
"393 1310 OFFCURVE",
"886 1366 OFFCURVE",
"1156 1366 CURVE",
"1170 1244 LINE",
"1096 1038 LINE",
"932 1038 OFFCURVE",
"743 1006 OFFCURVE",
"684 980 CURVE"
);
}
);
width = 2118;
}
);
leftKerningGroup = O;
leftMetricsKey = O;
rightKerningGroup = O;
rightMetricsKey = O;
unicode = 018F;
},
{
color = 6;
glyphname = F;
lastChange = "2022-02-25 13:22:32 +0000";
layers = (
{
anchors = (
{
name = bottom;
position = "{73, 0}";
},
{
name = top;
position = "{73, 1350}";
}
);
layerId = "A1A0948C-E637-4A65-8CCC-05505AD98C44";
paths = (
{
closed = 1;
nodes = (
"28 1350 LINE",
"112 1350 LINE",
"112 1328 LINE",
"50 1328 LINE",
"50 676 LINE",
"112 676 LINE",
"112 654 LINE",
"50 654 LINE",
"50 0 LINE",
"28 0 LINE"
);
}
);
width = 146;
},
{
anchors = (
{
name = bottom;
position = "{245, 0}";
},
{
name = top;
position = "{245, 1350}";
}
);
layerId = "BA0CA162-2A9B-49EE-921D-3B4346C7D39F";
paths = (
{
closed = 1;
nodes = (
"12 1350 LINE",
"486 1350 LINE",
"486 1096 LINE",
"360 1096 LINE",
"360 730 LINE",
"488 730 LINE",
"488 480 LINE",
"360 480 LINE",
"360 0 LINE",
"12 0 LINE"
);
}
);
width = 500;
},
{
anchors = (
{
name = bottom;
position = "{867, 0}";
},
{
name = top;
position = "{867, 1350}";
}
);
layerId = "C75D3228-2D13-4E9D-9829-45195F4951D0";
paths = (
{
closed = 1;
nodes = (
"96 1350 LINE",
"1632 1350 LINE",
"1632 988 LINE",
"662 988 LINE",
"662 748 LINE",
"1536 748 LINE",
"1536 412 LINE",
"662 412 LINE",
"662 0 LINE",
"96 0 LINE"
);
}
);
width = 1754;
},
{
anchors = (
{
name = bottom;
position = "{889, 0}";
},
{
name = top;
position = "{889, 1350}";
}
);
layerId = "71977205-6510-4B11-BB00-17BACA883C8F";
paths = (
{
closed = 1;
nodes = (
"189 1350 LINE",
"1584 1350 LINE",
"1584 1328 LINE",
"211 1328 LINE",
"211 667 LINE",
"1472 667 LINE",
"1472 645 LINE",
"211 645 LINE",
"211 0 LINE",
"189 0 LINE"
);
}
);
width = 1722;
},
{
anchors = (
{
name = bottom;
position = "{687, 0}";
},
{
name = top;
position = "{926, 1350}";
}
);
layerId = "5997A0D0-E78E-41EC-9011-DECBEAD8517D";
paths = (
{
closed = 1;
nodes = (
"268 1350 LINE",
"1663 1350 LINE",
"1659 1328 LINE",
"286 1328 LINE",
"170 667 LINE",
"1431 667 LINE",
"1427 645 LINE",
"166 645 LINE",
"52 0 LINE",
"30 0 LINE"
);
}
);
width = 1722;
},
{
anchors = (
{
name = bottom;
position = "{150, 0}";
},
{
name = top;
position = "{389, 1350}";
}
);
layerId = "55C4185A-9C39-4468-B19C-DE0A3E571700";
paths = (
{
closed = 1;
nodes = (
"151 1350 LINE",
"625 1350 LINE",
"580 1096 LINE",
"454 1096 LINE",
"390 730 LINE",
"518 730 LINE",
"474 480 LINE",
"346 480 LINE",
"261 0 LINE",
"-87 0 LINE"
);
}
);
width = 500;
},
{
anchors = (
{
name = bottom;
position = "{-22, 0}";
},
{
name = top;
position = "{217, 1350}";
}
);
layerId = "4F53612F-C4F8-4368-83AD-8913BEEF8F1D";
paths = (
{
closed = 1;
nodes = (
"172 1350 LINE",
"256 1350 LINE",
"252 1328 LINE",
"190 1328 LINE",
"75 676 LINE",
"137 676 LINE",
"133 654 LINE",
"71 654 LINE",
"-44 0 LINE",
"-66 0 LINE"
);
}
);
width = 146;
},
{
anchors = (
{
name = bottom;
position = "{772, 0}";
},
{
name = top;
position = "{1011, 1350}";
}
);
layerId = "E5A4176B-9C10-4B01-BBC9-D7999ECBFAF8";
paths = (
{
closed = 1;
nodes = (
"194 1350 LINE",
"1730 1350 LINE",
"1666 988 LINE",
"696 988 LINE",
"654 748 LINE",
"1528 748 LINE",
"1469 412 LINE",
"595 412 LINE",
"522 0 LINE",
"-44 0 LINE"
);
}
);
width = 1754;
}
);
leftKerningGroup = H;
note = F;
rightKerningGroup = F;
unicode = 0046;
},
{
color = 6;
glyphname = G;
lastChange = "2022-02-25 13:22:32 +0000";
layers = (
{
anchors = (
{
name = bottom;
position = "{86, 0}";
},
{
name = top;
position = "{86, 1350}";
}
);
layerId = "A1A0948C-E637-4A65-8CCC-05505AD98C44";
paths = (
{
closed = 1;
nodes = (
"28 -8 OFFCURVE",
"28 212 OFFCURVE",
"28 684 QCURVE SMOOTH",
"28 1156 OFFCURVE",
"28 1356 OFFCURVE",
"86 1356 QCURVE SMOOTH",
"143 1356 OFFCURVE",
"144 1130 OFFCURVE",
"144 836 QCURVE",
"122 836 LINE",
"122 1120 OFFCURVE",
"122 1334 OFFCURVE",
"86 1334 QCURVE SMOOTH",
"50 1334 OFFCURVE",
"50 1150 OFFCURVE",
"50 684 QCURVE SMOOTH",
"50 218 OFFCURVE",
"50 14 OFFCURVE",
"80 14 QCURVE SMOOTH",
"99 14 OFFCURVE",
"122 94 OFFCURVE",
"122 224 QCURVE",
"122 558 LINE",
"84 558 LINE",
"84 582 LINE",
"144 582 LINE",
"144 0 LINE",
"125 0 LINE",
"125 42 LINE",
"113 -8 OFFCURVE",
"80 -8 QCURVE SMOOTH"
);
}
);
width = 184;
},
{
anchors = (
{
name = bottom;
position = "{372, 0}";
},
{
name = top;
position = "{372, 1350}";
}
);
layerId = "BA0CA162-2A9B-49EE-921D-3B4346C7D39F";
paths = (
{
closed = 1;
nodes = (
"12 -8 OFFCURVE",
"12 380 OFFCURVE",
"12 680 QCURVE SMOOTH",
"12 990 OFFCURVE",
"12 1362 OFFCURVE",
"372 1362 QCURVE SMOOTH",
"732 1362 OFFCURVE",
"732 990 OFFCURVE",
"732 846 QCURVE",
"384 846 LINE",
"384 1061 OFFCURVE",
"384 1108 OFFCURVE",
"372 1108 QCURVE SMOOTH",
"360 1108 OFFCURVE",
"360 1062 OFFCURVE",
"360 650 QCURVE SMOOTH",
"360 348 OFFCURVE",
"360 246 OFFCURVE",
"378 246 QCURVE SMOOTH",
"391 246 OFFCURVE",
"398 306 OFFCURVE",
"398 471 QCURVE",
"408 468 LINE",
"377 468 LINE",
"377 702 LINE",
"732 702 LINE",
"732 0 LINE",
"570 0 LINE",
"519 89 LINE",
"469 -8 OFFCURVE",
"314 -8 QCURVE SMOOTH"
);
}
);
width = 744;
},
{
anchors = (
{
name = bottom;
position = "{1086, 1}";
},
{
name = top;
position = "{1087, 1350}";
}
);
layerId = "C75D3228-2D13-4E9D-9829-45195F4951D0";
paths = (
{
closed = 1;
nodes = (
"622 -8 OFFCURVE",
"80 343 OFFCURVE",
"80 680 QCURVE SMOOTH",
"80 1017 OFFCURVE",
"643 1362 OFFCURVE",
"1098 1362 QCURVE SMOOTH",
"1493 1362 OFFCURVE",
"2052 1099 OFFCURVE",
"2072 872 QCURVE",
"1506 872 LINE",
"1482 927 OFFCURVE",
"1289 1002 OFFCURVE",
"1100 1002 QCURVE SMOOTH",
"900 1002 OFFCURVE",
"652 838 OFFCURVE",
"652 680 QCURVE SMOOTH",
"652 521 OFFCURVE",
"901 352 OFFCURVE",
"1100 352 QCURVE SMOOTH",
"1289 352 OFFCURVE",
"1463 430 OFFCURVE",
"1479 487 QCURVE",
"1499 476 LINE",
"1140 476 LINE",
"1140 774 LINE",
"2072 774 LINE",
"2072 0 LINE",
"1725 0 LINE",
"1672 184 LINE",
"1518 -8 OFFCURVE",
"1076 -8 QCURVE SMOOTH"
);
}
);
width = 2267;
},
{
anchors = (
{
name = bottom;
position = "{1016, 0}";
},
{
name = top;
position = "{1016, 1350}";
}
);
layerId = "71977205-6510-4B11-BB00-17BACA883C8F";
paths = (
{
closed = 1;
nodes = (
"573 -8 OFFCURVE",
"142 378 OFFCURVE",
"142 672 QCURVE SMOOTH",
"142 967 OFFCURVE",
"573 1363 OFFCURVE",
"978 1363 QCURVE SMOOTH",
"1373 1363 OFFCURVE",
"1770 1024 OFFCURVE",
"1770 838 QCURVE",
"1746 838 LINE",
"1746 1015 OFFCURVE",
"1366 1341 OFFCURVE",
"978 1341 QCURVE SMOOTH",
"577 1341 OFFCURVE",
"166 956 OFFCURVE",
"166 672 QCURVE SMOOTH",
"166 390 OFFCURVE",
"577 14 OFFCURVE",
"979 14 QCURVE SMOOTH",
"1369 14 OFFCURVE",
"1737 332 OFFCURVE",
"1737 588 QCURVE",
"1741 583 LINE",
"1024 583 LINE",
"1024 605 LINE",
"1770 605 LINE",
"1770 0 LINE",
"1748 0 LINE",
"1748 472 LINE",
"1654 -8 OFFCURVE",
"979 -8 QCURVE SMOOTH"
);
}
);
width = 2042;
},
{
anchors = (
{
name = bottom;
position = "{822, 0}";
},
{
name = top;
position = "{1061, 1350}";
}
);
layerId = "5997A0D0-E78E-41EC-9011-DECBEAD8517D";
paths = (
{
closed = 1;
nodes = (
"449 -8 OFFCURVE",
"108 375 OFFCURVE",
"132 662 QCURVE SMOOTH",
"158 968 OFFCURVE",
"680 1363 OFFCURVE",
"1085 1363 QCURVE SMOOTH",
"1480 1363 OFFCURVE",
"1822 1024 OFFCURVE",
"1789 838 QCURVE",
"1765 838 LINE",
"1797 1015 OFFCURVE",
"1474 1341 OFFCURVE",
"1086 1341 QCURVE SMOOTH",
"687 1341 OFFCURVE",
"179 955 OFFCURVE",
"156 662 QCURVE SMOOTH",
"134 387 OFFCURVE",
"454 14 OFFCURVE",
"853 14 QCURVE SMOOTH",
"1243 14 OFFCURVE",
"1666 328 OFFCURVE",
"1712 584 QCURVE",
"1715 583 LINE",
"998 583 LINE",
"1002 605 LINE",
"1748 605 LINE",
"1642 0 LINE",
"1620 0 LINE",
"1703 472 LINE",
"1530 -8 OFFCURVE",
"855 -8 QCURVE SMOOTH"
);
}
);
width = 2033;
},
{
anchors = (
{
name = bottom;
position = "{270, 0}";
},
{
name = top;
position = "{509, 1350}";
}
);
layerId = "55C4185A-9C39-4468-B19C-DE0A3E571700";
paths = (
{
closed = 1;
nodes = (
"-94 -8 OFFCURVE",
"-25 380 OFFCURVE",
"28 680 QCURVE SMOOTH",
"82 990 OFFCURVE",
"148 1362 OFFCURVE",
"508 1362 QCURVE SMOOTH",
"868 1362 OFFCURVE",
"802 990 OFFCURVE",
"777 846 QCURVE",
"429 846 LINE",
"467 1061 OFFCURVE",
"475 1108 OFFCURVE",
"463 1108 QCURVE SMOOTH",
"451 1108 OFFCURVE",
"443 1062 OFFCURVE",
"370 650 QCURVE SMOOTH",
"317 348 OFFCURVE",
"299 246 OFFCURVE",
"317 246 QCURVE SMOOTH",
"330 246 OFFCURVE",
"348 306 OFFCURVE",
"377 471 QCURVE",
"386 468 LINE",
"355 468 LINE",
"396 702 LINE",
"751 702 LINE",
"628 0 LINE",
"466 0 LINE",
"430 89 LINE",
"363 -8 OFFCURVE",
"208 -8 QCURVE SMOOTH"
);
}
);
width = 742;
},
{
anchors = (
{
name = bottom;
position = "{-16, 0}";
},
{
name = top;
position = "{223, 1350}";
}
);
layerId = "4F53612F-C4F8-4368-83AD-8913BEEF8F1D";
paths = (
{
closed = 1;
nodes = (
"-70 -8 OFFCURVE",
"-31 212 OFFCURVE",
"52 684 QCURVE SMOOTH",
"135 1156 OFFCURVE",
"170 1356 OFFCURVE",
"228 1356 QCURVE SMOOTH",
"285 1356 OFFCURVE",
"246 1130 OFFCURVE",
"195 836 QCURVE",
"173 836 LINE",
"223 1120 OFFCURVE",
"260 1334 OFFCURVE",
"224 1334 QCURVE SMOOTH",
"188 1334 OFFCURVE",
"156 1150 OFFCURVE",
"74 684 QCURVE SMOOTH",
"-8 218 OFFCURVE",
"-44 14 OFFCURVE",
"-14 14 QCURVE SMOOTH",
"5 14 OFFCURVE",
"42 94 OFFCURVE",
"65 224 QCURVE",
"124 558 LINE",
"86 558 LINE",
"90 582 LINE",
"150 582 LINE",
"47 0 LINE",
"28 0 LINE",
"36 42 LINE",
"15 -8 OFFCURVE",
"-18 -8 QCURVE SMOOTH"
);
}
);
width = 181;
},
{
anchors = (
{
name = bottom;
position = "{1015, 0}";
},
{
name = top;
position = "{1254, 1350}";
}
);
layerId = "E5A4176B-9C10-4B01-BBC9-D7999ECBFAF8";
paths = (
{
closed = 1;
nodes = (
"510 -8 OFFCURVE",
"42 343 OFFCURVE",
"80 680 QCURVE SMOOTH",
"118 1019 OFFCURVE",
"743 1362 OFFCURVE",
"1198 1362 QCURVE SMOOTH",
"1593 1362 OFFCURVE",
"2125 1099 OFFCURVE",
"2105 872 QCURVE",
"1539 872 LINE",
"1525 927 OFFCURVE",
"1345 1002 OFFCURVE",
"1156 1002 QCURVE SMOOTH",
"956 1002 OFFCURVE",
"674 839 OFFCURVE",
"652 680 QCURVE SMOOTH",
"630 521 OFFCURVE",
"843 352 OFFCURVE",
"1042 352 QCURVE SMOOTH",
"1231 352 OFFCURVE",
"1418 430 OFFCURVE",
"1444 487 QCURVE",
"1463 476 LINE",
"1104 476 LINE",
"1156 774 LINE",
"2088 774 LINE",
"1952 0 LINE",
"1605 0 LINE",
"1584 184 LINE",
"1406 -8 OFFCURVE",
"964 -8 QCURVE SMOOTH"
);
}
);
width = 2247;
}
);
leftKerningGroup = O;
leftMetricsKey = O;
note = G;
rightKerningGroup = H;
rightMetricsKey = H;
unicode = 0047;
},
{
color = 6;
glyphname = H;
lastChange = "2022-02-25 13:22:32 +0000";
layers = (
{
anchors = (
{
name = bottom;
position = "{86, 0}";
},
{
name = center;
position = "{86, 675}";
},
{
name = top;
position = "{86, 1350}";
},
{
name = topleft;
position = "{12, 1350}";
}
);
layerId = "A1A0948C-E637-4A65-8CCC-05505AD98C44";
paths = (
{
closed = 1;
nodes = (
"28 1350 LINE",
"50 1350 LINE",
"50 750 LINE",
"112 750 LINE",
"112 1350 LINE",
"134 1350 LINE",
"134 0 LINE",
"112 0 LINE",
"112 728 LINE",
"50 728 LINE",
"50 0 LINE",
"28 0 LINE"
);
}
);
width = 174;
},
{
anchors = (
{
name = bottom;
position = "{371, 0}";
},
{
name = center;
position = "{371, 675}";
},
{
name = top;
position = "{371, 1350}";
},
{
name = topleft;
position = "{20, 1350}";
}
);
layerId = "BA0CA162-2A9B-49EE-921D-3B4346C7D39F";
paths = (
{
closed = 1;
nodes = (
"12 1350 LINE",
"360 1350 LINE",
"360 797 LINE",
"382 797 LINE",
"382 1350 LINE",
"730 1350 LINE",
"730 0 LINE",
"382 0 LINE",
"382 543 LINE",
"360 543 LINE",
"360 0 LINE",
"12 0 LINE"
);
}
);
width = 742;
},
{
anchors = (
{
name = bottom;
position = "{1110, 0}";
},
{
name = center;
position = "{1110, 675}";
},
{
name = top;
position = "{1110, 1350}";
},
{
name = topleft;
position = "{20, 1350}";
}
);
layerId = "C75D3228-2D13-4E9D-9829-45195F4951D0";
paths = (
{
closed = 1;
nodes = (
"140 1350 LINE",
"706 1350 LINE",
"706 830 LINE",
"1494 830 LINE",
"1494 1350 LINE",
"2060 1350 LINE",
"2060 0 LINE",
"1494 0 LINE",
"1494 468 LINE",
"706 468 LINE",
"706 0 LINE",
"140 0 LINE"
);
}
);
width = 2255;
},
{
anchors = (
{
name = bottom;
position = "{953, 0}";
},
{
name = center;
position = "{953, 675}";
},
{
name = top;
position = "{953, 1350}";
},
{
name = topleft;
position = "{30, 1350}";
}
);
layerId = "71977205-6510-4B11-BB00-17BACA883C8F";
paths = (
{
closed = 1;
nodes = (
"150 1350 LINE",
"172 1350 LINE",
"172 706 LINE",
"1612 706 LINE",
"1612 1350 LINE",
"1634 1350 LINE",
"1634 0 LINE",
"1612 0 LINE",
"1612 684 LINE",
"172 684 LINE",
"172 0 LINE",
"150 0 LINE"
);
}
);
width = 1906;
},
{
anchors = (
{
name = bottom;
position = "{737, 0}";
},
{
name = center;
position = "{857, 675}";
},
{
name = top;
position = "{976, 1350}";
},
{
name = topleft;
position = "{164, 1350}";
}
);
layerId = "5997A0D0-E78E-41EC-9011-DECBEAD8517D";
paths = (
{
closed = 1;
nodes = (
"269 1350 LINE",
"291 1350 LINE",
"177 706 LINE",
"1617 706 LINE",
"1731 1350 LINE",
"1753 1350 LINE",
"1515 0 LINE",
"1493 0 LINE",
"1614 684 LINE",
"174 684 LINE",
"53 0 LINE",
"31 0 LINE"
);
}
);
width = 1906;
},
{
anchors = (
{
name = bottom;
position = "{275, 0}";
},
{
name = center;
position = "{395, 675}";
},
{
name = top;
position = "{514, 1350}";
},
{
name = topleft;
position = "{164, 1350}";
}
);
layerId = "55C4185A-9C39-4468-B19C-DE0A3E571700";
paths = (
{
closed = 1;
nodes = (
"148 1350 LINE",
"496 1350 LINE",
"399 797 LINE",
"421 797 LINE",
"518 1350 LINE",
"866 1350 LINE",
"628 0 LINE",
"280 0 LINE",
"376 543 LINE",
"354 543 LINE",
"258 0 LINE",
"-90 0 LINE"
);
}
);
width = 742;
},
{
anchors = (
{
name = bottom;
position = "{-9, 0}";
},
{
name = center;
position = "{111, 675}";
},
{
name = top;
position = "{230, 1350}";
},
{
name = topleft;
position = "{156, 1350}";
}
);
layerId = "4F53612F-C4F8-4368-83AD-8913BEEF8F1D";
paths = (
{
closed = 1;
nodes = (
"172 1350 LINE",
"194 1350 LINE",
"88 750 LINE",
"150 750 LINE",
"256 1350 LINE",
"278 1350 LINE",
"40 0 LINE",
"18 0 LINE",
"146 728 LINE",
"84 728 LINE",
"-46 0 LINE",
"-68 0 LINE"
);
}
);
width = 174;
},
{
anchors = (
{
name = bottom;
position = "{1015, 0}";
},
{
name = center;
position = "{1135, 675}";
},
{
name = top;
position = "{1254, 1350}";
},
{
name = topleft;
position = "{164, 1350}";
}
);
layerId = "E5A4176B-9C10-4B01-BBC9-D7999ECBFAF8";
paths = (
{
closed = 1;
nodes = (
"280 1350 LINE",
"846 1350 LINE",
"754 830 LINE",
"1540 830 LINE",
"1632 1350 LINE",
"2198 1350 LINE",
"1960 0 LINE",
"1394 0 LINE",
"1478 468 LINE",
"690 468 LINE",
"608 0 LINE",
"42 0 LINE"
);
}
);
width = 2255;
}
);
leftKerningGroup = H;
note = H;
rightKerningGroup = H;
unicode = 0048;
},
{
color = 3;
glyphname = Hbar;
lastChange = "2022-02-25 13:22:32 +0000";
layers = (
{
components = (
{
name = H;
}
);
layerId = "A1A0948C-E637-4A65-8CCC-05505AD98C44";
paths = (
{
closed = 1;
nodes = (
"4 1070 LINE",
"158 1070 LINE",
"158 1048 LINE",
"4 1048 LINE"
);
}
);
width = 188;
},
{
components = (
{
name = H;
transform = "{1, 0, 0, 1, 32, 0}";
}
);
layerId = "BA0CA162-2A9B-49EE-921D-3B4346C7D39F";
paths = (
{
closed = 1;
nodes = (
"-7 1170 LINE",
"813 1170 LINE",
"813 1046 LINE",
"-7 1046 LINE"
);
}
);
width = 820;
},
{
components = (
{
name = H;
}
);
layerId = "C75D3228-2D13-4E9D-9829-45195F4951D0";
paths = (
{
closed = 1;
nodes = (
"70 1200 LINE",
"2130 1200 LINE",
"2130 1006 LINE",
"70 1006 LINE"
);
}
);
width = 2220;
},
{
components = (
{
name = H;
}
);
layerId = "71977205-6510-4B11-BB00-17BACA883C8F";
paths = (
{
closed = 1;
nodes = (
"45 1070 LINE",
"1738 1070 LINE",
"1738 1048 LINE",
"45 1048 LINE"
);
}
);
width = 1759;
},
{
components = (
{
name = H;
}
);
layerId = "5997A0D0-E78E-41EC-9011-DECBEAD8517D";
paths = (
{
closed = 1;
nodes = (
"115 1070 LINE",
"1808 1070 LINE",
"1804 1048 LINE",
"111 1048 LINE"
);
}
);
width = 1753;
},
{
components = (
{
name = H;
transform = "{1, 0, 0, 1, 33, 0}";
}
);
layerId = "55C4185A-9C39-4468-B19C-DE0A3E571700";
paths = (
{
closed = 1;
nodes = (
"100 1170 LINE",
"918 1170 LINE",
"896 1046 LINE",
"76 1046 LINE"
);
}
);
width = 820;
},
{
components = (
{
name = H;
}
);
layerId = "4F53612F-C4F8-4368-83AD-8913BEEF8F1D";
paths = (
{
closed = 1;
nodes = (
"99 1070 LINE",
"253 1070 LINE",
"249 1048 LINE",
"95 1048 LINE"
);
}
);
width = 188;
},
{
components = (
{
name = H;
}
);
layerId = "E5A4176B-9C10-4B01-BBC9-D7999ECBFAF8";
paths = (
{
closed = 1;
nodes = (
"181 1200 LINE",
"2241 1200 LINE",
"2207 1006 LINE",
"147 1006 LINE"
);
}
);
width = 2220;
}
);
leftKerningGroup = H;
rightKerningGroup = H;
unicode = 0126;
},
{
color = 6;
glyphname = I;
lastChange = "2022-02-25 13:22:32 +0000";
layers = (
{
anchors = (
{
name = bottom;
position = "{46, 0}";
},
{
name = ogonek;
position = "{56, 0}";
},
{
name = top;
position = "{45, 1350}";
},
{
name = topleft;
position = "{10, 1350}";
}
);
layerId = "A1A0948C-E637-4A65-8CCC-05505AD98C44";
paths = (
{
closed = 1;
nodes = (
"34 1350 LINE",
"56 1350 LINE",
"56 0 LINE",
"34 0 LINE"
);
}
);
width = 100;
},
{
anchors = (
{
name = bottom;
position = "{187, 0}";
},
{
name = ogonek;
position = "{362, 0}";
},
{
name = top;
position = "{187, 1350}";
},
{
name = topleft;
position = "{20, 1350}";
}
);
layerId = "BA0CA162-2A9B-49EE-921D-3B4346C7D39F";
paths = (
{
closed = 1;
nodes = (
"12 1350 LINE",
"362 1350 LINE",
"362 0 LINE",
"12 0 LINE"
);
}
);
width = 374;
},
{
anchors = (
{
name = bottom;
position = "{503, 0}";
},
{
name = ogonek;
position = "{784, 0}";
},
{
name = top;
position = "{503, 1350}";
},
{
name = topleft;
position = "{20, 1350}";
}
);
layerId = "C75D3228-2D13-4E9D-9829-45195F4951D0";
paths = (
{
closed = 1;
nodes = (
"224 1350 LINE",
"784 1350 LINE",
"784 0 LINE",
"224 0 LINE"
);
}
);
width = 1026;
},
{
anchors = (
{
name = bottom;
position = "{293, 0}";
},
{
name = ogonek;
position = "{304, 0}";
},
{
name = top;
position = "{293, 1350}";
},
{
name = topleft;
position = "{10, 1350}";
}
);
layerId = "71977205-6510-4B11-BB00-17BACA883C8F";
paths = (
{
closed = 1;
nodes = (
"282 1350 LINE",
"304 1350 LINE",
"304 0 LINE",
"282 0 LINE"
);
}
);
width = 698;
},
{
anchors = (
{
name = bottom;
position = "{199, 0}";
},
{
name = ogonek;
position = "{210, 0}";
},
{
name = top;
position = "{445, 1350}";
},
{
name = topleft;
position = "{154, 1350}";
}
);
layerId = "5997A0D0-E78E-41EC-9011-DECBEAD8517D";
paths = (
{
closed = 1;
nodes = (
"428 1350 LINE",
"450 1350 LINE",
"210 0 LINE",
"188 0 LINE"
);
}
);
width = 698;
},
{
anchors = (
{
name = bottom;
position = "{90, 0}";
},
{
name = ogonek;
position = "{260, 0}";
},
{
name = top;
position = "{329, 1350}";
},
{
name = topleft;
position = "{164, 1350}";
}
);
layerId = "55C4185A-9C39-4468-B19C-DE0A3E571700";
paths = (
{
closed = 1;
nodes = (
"150 1350 LINE",
"498 1350 LINE",
"260 0 LINE",
"-90 0 LINE"
);
}
);
width = 374;
},
{
anchors = (
{
name = bottom;
position = "{-57, 0}";
},
{
name = ogonek;
position = "{-44, 0}";
},
{
name = top;
position = "{188, 1350}";
},
{
name = topleft;
position = "{148, 1350}";
}
);
layerId = "4F53612F-C4F8-4368-83AD-8913BEEF8F1D";
paths = (
{
closed = 1;
nodes = (
"172 1350 LINE",
"194 1350 LINE",
"-44 0 LINE",
"-66 0 LINE"
);
}
);
width = 100;
},
{
anchors = (
{
name = bottom;
position = "{381, 0}";
},
{
name = ogonek;
position = "{660, 0}";
},
{
name = top;
position = "{647, 1350}";
},
{
name = topleft;
position = "{164, 1350}";
}
);
layerId = "E5A4176B-9C10-4B01-BBC9-D7999ECBFAF8";
paths = (
{
closed = 1;
nodes = (
"338 1350 LINE",
"898 1350 LINE",
"660 0 LINE",
"100 0 LINE"
);
}
);
width = 1026;
}
);
leftKerningGroup = H;
note = I;
rightKerningGroup = H;
unicode = 0049;
},
{
color = 6;
glyphname = J;
lastChange = "2022-02-25 13:22:32 +0000";
layers = (
{
anchors = (
{
name = bottom;
position = "{93, 0}";
},
{
name = top;
position = "{136, 1350}";
}
);
layerId = "A1A0948C-E637-4A65-8CCC-05505AD98C44";
paths = (
{
closed = 1;
nodes = (
"56 -8 OFFCURVE",
"28 72 OFFCURVE",
"28 164 QCURVE SMOOTH",
"28 614 LINE",
"50 614 LINE",
"50 164 LINE SMOOTH",
"50 82 OFFCURVE",
"68 14 OFFCURVE",
"88 14 QCURVE SMOOTH",
"108 14 OFFCURVE",
"126 82 OFFCURVE",
"126 164 QCURVE SMOOTH",
"126 1350 LINE",
"148 1350 LINE",
"148 164 LINE SMOOTH",
"148 72 OFFCURVE",
"120 -8 OFFCURVE",
"88 -8 QCURVE SMOOTH"
);
}
);
width = 186;
},
{
anchors = (
{
name = bottom;
position = "{368, 0}";
},
{
name = top;
position = "{560, 1350}";
}
);
layerId = "BA0CA162-2A9B-49EE-921D-3B4346C7D39F";
paths = (
{
closed = 1;
nodes = (
"194 -8 OFFCURVE",
"12 104 OFFCURVE",
"12 240 QCURVE SMOOTH",
"12 572 LINE",
"356 572 LINE",
"356 324 LINE SMOOTH",
"356 282 OFFCURVE",
"356 238 OFFCURVE",
"368 238 QCURVE SMOOTH",
"380 238 OFFCURVE",
"380 282 OFFCURVE",
"380 324 QCURVE SMOOTH",
"380 1350 LINE",
"724 1350 LINE",
"724 240 LINE SMOOTH",
"724 100 OFFCURVE",
"552 -8 OFFCURVE",
"370 -8 QCURVE SMOOTH"
);
}
);
width = 736;
},
{
anchors = (
{
name = bottom;
position = "{1087, 0}";
},
{
name = top;
position = "{1728, 1350}";
}
);
layerId = "C75D3228-2D13-4E9D-9829-45195F4951D0";
paths = (
{
closed = 1;
nodes = (
"564 -16 OFFCURVE",
"86 296 OFFCURVE",
"86 596 QCURVE SMOOTH",
"86 636 LINE",
"654 636 LINE",
"654 618 LINE SMOOTH",
"654 488 OFFCURVE",
"812 346 OFFCURVE",
"1036 346 QCURVE SMOOTH",
"1260 346 OFFCURVE",
"1428 469 OFFCURVE",
"1428 592 QCURVE SMOOTH",
"1428 1350 LINE",
"1994 1350 LINE",
"1994 544 LINE SMOOTH",
"1994 290 OFFCURVE",
"1512 -16 OFFCURVE",
"1036 -16 QCURVE SMOOTH"
);
}
);
width = 2173;
},
{
anchors = (
{
name = bottom;
position = "{908, 0}";
},
{
name = top;
position = "{1486, 1350}";
}
);
layerId = "71977205-6510-4B11-BB00-17BACA883C8F";
paths = (
{
closed = 1;
nodes = (
"463 -17 OFFCURVE",
"129 268 OFFCURVE",
"129 583 QCURVE SMOOTH",
"129 609 LINE",
"151 609 LINE",
"151 590 LINE SMOOTH",
"151 282 OFFCURVE",
"473 5 OFFCURVE",
"813 5 QCURVE SMOOTH",
"1152 5 OFFCURVE",
"1474 301 OFFCURVE",
"1474 631 QCURVE SMOOTH",
"1474 1350 LINE",
"1496 1350 LINE",
"1496 629 LINE SMOOTH",
"1496 291 OFFCURVE",
"1160 -17 OFFCURVE",
"813 -17 QCURVE SMOOTH"
);
}
);
width = 1817;
},
{
anchors = (
{
name = bottom;
position = "{707, 0}";
},
{
name = top;
position = "{1608, 1350}";
}
);
layerId = "5997A0D0-E78E-41EC-9011-DECBEAD8517D";
paths = (
{
closed = 1;
nodes = (
"348 -17 OFFCURVE",
"66 267 OFFCURVE",
"115 583 QCURVE SMOOTH",
"119 609 LINE",
"141 609 LINE",
"138 590 LINE SMOOTH",
"89 281 OFFCURVE",
"356 5 OFFCURVE",
"696 5 QCURVE SMOOTH",
"1035 5 OFFCURVE",
"1410 301 OFFCURVE",
"1468 631 QCURVE SMOOTH",
"1595 1350 LINE",
"1617 1350 LINE",
"1489 629 LINE SMOOTH",
"1429 291 OFFCURVE",
"1045 -17 OFFCURVE",
"698 -17 QCURVE SMOOTH"
);
}
);
width = 1817;
},
{
anchors = (
{
name = bottom;
position = "{271, 0}";
},
{
name = top;
position = "{689, 1350}";
}
);
layerId = "55C4185A-9C39-4468-B19C-DE0A3E571700";
paths = (
{
closed = 1;
nodes = (
"91 -8 OFFCURVE",
"-71 104 OFFCURVE",
"-47 240 QCURVE SMOOTH",
"12 572 LINE",
"356 572 LINE",
"312 324 LINE SMOOTH",
"305 282 OFFCURVE",
"297 238 OFFCURVE",
"309 238 QCURVE SMOOTH",
"321 238 OFFCURVE",
"329 282 OFFCURVE",
"336 324 QCURVE SMOOTH",
"517 1350 LINE",
"861 1350 LINE",
"665 240 LINE SMOOTH",
"640 100 OFFCURVE",
"449 -8 OFFCURVE",
"267 -8 QCURVE SMOOTH"
);
}
);
width = 736;
},
{
anchors = (
{
name = bottom;
position = "{-1, 0}";
},
{
name = top;
position = "{281, 1350}";
}
);
layerId = "4F53612F-C4F8-4368-83AD-8913BEEF8F1D";
paths = (
{
closed = 1;
nodes = (
"-40 -8 OFFCURVE",
"-54 72 OFFCURVE",
"-38 164 QCURVE SMOOTH",
"42 614 LINE",
"64 614 LINE",
"-16 164 LINE SMOOTH",
"-31 82 OFFCURVE",
"-24 14 OFFCURVE",
"-4 14 QCURVE SMOOTH",
"17 14 OFFCURVE",
"48 84 OFFCURVE",
"62 164 QCURVE SMOOTH",
"270 1350 LINE",
"292 1350 LINE",
"84 164 LINE SMOOTH",
"68 72 OFFCURVE",
"23 -8 OFFCURVE",
"-6 -8 QCURVE SMOOTH"
);
}
);
width = 186;
},
{
anchors = (
{
name = bottom;
position = "{992, 0}";
},
{
name = top;
position = "{1828, 1350}";
}
);
layerId = "E5A4176B-9C10-4B01-BBC9-D7999ECBFAF8";
paths = (
{
closed = 1;
nodes = (
"454 -16 OFFCURVE",
"3 297 OFFCURVE",
"63 596 QCURVE SMOOTH",
"71 636 LINE",
"639 636 LINE",
"635 618 LINE SMOOTH",
"606 489 OFFCURVE",
"745 346 OFFCURVE",
"969 346 QCURVE SMOOTH",
"1193 346 OFFCURVE",
"1383 469 OFFCURVE",
"1405 592 QCURVE SMOOTH",
"1538 1350 LINE",
"2104 1350 LINE",
"1962 544 LINE SMOOTH",
"1917 290 OFFCURVE",
"1402 -16 OFFCURVE",
"926 -16 QCURVE SMOOTH"
);
}
);
width = 2173;
}
);
leftKerningGroup = J;
note = J;
rightKerningGroup = J;
unicode = 004A;
},
{
color = 3;
glyphname = J.ss01;
lastChange = "2022-02-25 13:22:32 +0000";
layers = (
{
components = (
{
name = J;
}
);
layerId = "A1A0948C-E637-4A65-8CCC-05505AD98C44";
paths = (
{
closed = 1;
nodes = (
"136 1350 LINE",
"136 1328 LINE",
"30 1328 LINE",
"30 1350 LINE"
);
}
);
width = 186;
},
{
components = (
{
name = J;
}
);
layerId = "BA0CA162-2A9B-49EE-921D-3B4346C7D39F";
paths = (
{
closed = 1;
nodes = (
"390 1350 LINE",
"390 1096 LINE",
"32 1096 LINE",
"32 1350 LINE"
);
}
);
width = 736;
},
{
components = (
{
name = J;
}
);
layerId = "71977205-6510-4B11-BB00-17BACA883C8F";
paths = (
{
closed = 1;
nodes = (
"1484 1350 LINE",
"1484 1328 LINE",
"135 1328 LINE",
"135 1350 LINE"
);
}
);
width = 1817;
},
{
components = (
{
name = J;
}
);
layerId = "C75D3228-2D13-4E9D-9829-45195F4951D0";
paths = (
{
closed = 1;
nodes = (
"1438 1350 LINE",
"1438 988 LINE",
"91 988 LINE",
"91 1350 LINE"
);
}
);
width = 2173;
},
{
components = (
{
name = J;
}
);
layerId = "4F53612F-C4F8-4368-83AD-8913BEEF8F1D";
paths = (
{
closed = 1;
nodes = (
"272 1350 LINE",
"267 1328 LINE",
"170 1328 LINE",
"174 1350 LINE"
);
}
);
width = 186;
},
{
components = (
{
name = J;
}
);
layerId = "55C4185A-9C39-4468-B19C-DE0A3E571700";
paths = (
{
closed = 1;
nodes = (
"545 1350 LINE",
"498 1096 LINE",
"125 1096 LINE",
"169 1350 LINE"
);
}
);
width = 736;
},
{
components = (
{
name = J;
}
);
layerId = "5997A0D0-E78E-41EC-9011-DECBEAD8517D";
paths = (
{
closed = 1;
nodes = (
"1598 1350 LINE",
"1594 1328 LINE",
"252 1328 LINE",
"256 1350 LINE"
);
}
);
width = 1817;
},
{
components = (
{
name = J;
}
);
layerId = "E5A4176B-9C10-4B01-BBC9-D7999ECBFAF8";
paths = (
{
closed = 1;
nodes = (
"1573 1350 LINE",
"1508 988 LINE",
"137 988 LINE",
"201 1350 LINE"
);
}
);
width = 2173;
}
);
leftKerningGroup = U;
rightKerningGroup = U;
},
{
color = 6;
glyphname = K;
lastChange = "2022-02-25 13:22:32 +0000";
layers = (
{
anchors = (
{
name = bottom;
position = "{99, 0}";
},
{
name = top;
position = "{99, 1350}";
}
);
layerId = "A1A0948C-E637-4A65-8CCC-05505AD98C44";
paths = (
{
closed = 1;
nodes = (
"28 1350 LINE",
"50 1350 LINE",
"50 678 LINE",
"140 1350 LINE",
"162 1350 LINE",
"72 674 LINE",
"162 0 LINE",
"140 0 LINE",
"50 670 LINE",
"50 0 LINE",
"28 0 LINE"
);
}
);
width = 188;
},
{
anchors = (
{
name = bottom;
position = "{384, 0}";
},
{
name = top;
position = "{384, 1350}";
}
);
layerId = "BA0CA162-2A9B-49EE-921D-3B4346C7D39F";
paths = (
{
closed = 1;
nodes = (
"12 1350 LINE",
"356 1350 LINE",
"356 792 LINE",
"408 1350 LINE",
"756 1350 LINE",
"662 674 LINE",
"756 0 LINE",
"408 0 LINE",
"356 556 LINE",
"356 0 LINE",
"12 0 LINE"
);
}
);
width = 764;
},
{
anchors = (
{
name = bottom;
position = "{998, 0}";
},
{
name = top;
position = "{998, 1350}";
}
);
layerId = "C75D3228-2D13-4E9D-9829-45195F4951D0";
paths = (
{
closed = 1;
nodes = (
"140 1350 LINE",
"704 1350 LINE",
"704 799 LINE",
"1356 1350 LINE",
"2024 1350 LINE",
"1219 674 LINE",
"2024 0 LINE",
"1356 0 LINE",
"704 550 LINE",
"704 0 LINE",
"140 0 LINE"
);
}
);
width = 2048;
},
{
anchors = (
{
name = bottom;
position = "{788, 0}";
},
{
name = top;
position = "{788, 1350}";
}
);
layerId = "71977205-6510-4B11-BB00-17BACA883C8F";
paths = (
{
closed = 1;
nodes = (
"150 1350 LINE",
"172 1350 LINE",
"172 684 LINE",
"1428 1350 LINE",
"1476 1350 LINE",
"201 674 LINE",
"1485 0 LINE",
"1437 0 LINE",
"172 664 LINE",
"172 0 LINE",
"150 0 LINE"
);
}
);
width = 1631;
},
{
anchors = (
{
name = bottom;
position = "{596, 0}";
},
{
name = top;
position = "{835, 1350}";
}
);
layerId = "5997A0D0-E78E-41EC-9011-DECBEAD8517D";
paths = (
{
closed = 1;
nodes = (
"269 1350 LINE",
"291 1350 LINE",
"174 685 LINE",
"1545 1350 LINE",
"1595 1350 LINE",
"201 674 LINE",
"1366 0 LINE",
"1320 0 LINE",
"170 664 LINE",
"53 0 LINE",
"31 0 LINE"
);
}
);
width = 1631;
},
{
anchors = (
{
name = bottom;
position = "{287, 0}";
},
{
name = top;
position = "{526, 1350}";
}
);
layerId = "55C4185A-9C39-4468-B19C-DE0A3E571700";
paths = (
{
closed = 1;
nodes = (
"148 1350 LINE",
"492 1350 LINE",
"394 792 LINE",
"544 1350 LINE",
"897 1350 LINE",
"679 674 LINE",
"649 0 LINE",
"306 0 LINE",
"352 556 LINE",
"254 0 LINE",
"-90 0 LINE"
);
}
);
width = 764;
},
{
anchors = (
{
name = bottom;
position = "{2, 0}";
},
{
name = top;
position = "{241, 1350}";
}
);
layerId = "4F53612F-C4F8-4368-83AD-8913BEEF8F1D";
paths = (
{
closed = 1;
nodes = (
"170 1350 LINE",
"192 1350 LINE",
"75 686 LINE",
"281 1350 LINE",
"304 1350 LINE",
"95 676 LINE",
"66 0 LINE",
"44 0 LINE",
"73 672 LINE",
"-46 0 LINE",
"-68 0 LINE"
);
}
);
width = 185;
},
{
anchors = (
{
name = bottom;
position = "{957, 0}";
},
{
name = top;
position = "{1196, 1350}";
}
);
layerId = "E5A4176B-9C10-4B01-BBC9-D7999ECBFAF8";
paths = (
{
closed = 1;
nodes = (
"280 1350 LINE",
"844 1350 LINE",
"747 799 LINE",
"1486 1350 LINE",
"2164 1350 LINE",
"1240 664 LINE",
"1926 0 LINE",
"1258 0 LINE",
"703 550 LINE",
"606 0 LINE",
"42 0 LINE"
);
}
);
width = 2082;
}
);
leftKerningGroup = H;
leftMetricsKey = H;
note = K;
rightKerningGroup = K;
unicode = 004B;
},
{
color = 6;
glyphname = L;
lastChange = "2022-02-25 13:22:32 +0000";
layers = (
{
anchors = (
{
name = bottom;
position = "{82, 0}";
},
{
name = center;
position = "{82, 675}";
},
{
name = top;
position = "{82, 1350}";
},
{
name = topright;
position = "{144, 1350}";
}
);
layerId = "A1A0948C-E637-4A65-8CCC-05505AD98C44";
paths = (
{
closed = 1;
nodes = (
"28 1350 LINE",
"50 1350 LINE",
"50 22 LINE",
"126 22 LINE",
"126 0 LINE",
"28 0 LINE"
);
}
);
width = 140;
},
{
anchors = (
{
name = bottom;
position = "{248, 0}";
},
{
name = center;
position = "{248, 675}";
},
{
name = top;
position = "{248, 1350}";
},
{
name = topright;
position = "{476, 1350}";
}
);
layerId = "BA0CA162-2A9B-49EE-921D-3B4346C7D39F";
paths = (
{
closed = 1;
nodes = (
"12 1350 LINE",
"360 1350 LINE",
"360 250 LINE",
"494 250 LINE",
"494 0 LINE",
"12 0 LINE"
);
}
);
width = 506;
},
{
anchors = (
{
name = bottom;
position = "{861, 0}";
},
{
name = center;
position = "{861, 675}";
},
{
name = top;
position = "{861, 1350}";
},
{
name = topright;
position = "{1684, 1350}";
}
);
layerId = "C75D3228-2D13-4E9D-9829-45195F4951D0";
paths = (
{
closed = 1;
nodes = (
"140 1350 LINE",
"706 1350 LINE",
"706 362 LINE",
"1594 362 LINE",
"1594 0 LINE",
"140 0 LINE"
);
}
);
width = 1704;
},
{
anchors = (
{
name = bottom;
position = "{787, 0}";
},
{
name = center;
position = "{787, 675}";
},
{
name = top;
position = "{787, 1350}";
},
{
name = topright;
position = "{1577, 1350}";
}
);
layerId = "71977205-6510-4B11-BB00-17BACA883C8F";
paths = (
{
closed = 1;
nodes = (
"150 1350 LINE",
"172 1350 LINE",
"172 22 LINE",
"1396 22 LINE",
"1396 0 LINE",
"150 0 LINE"
);
}
);
width = 1597;
},
{
anchors = (
{
name = bottom;
position = "{637, 0}";
},
{
name = center;
position = "{757, 675}";
},
{
name = top;
position = "{876, 1350}";
},
{
name = topright;
position = "{1571, 1350}";
}
);
layerId = "5997A0D0-E78E-41EC-9011-DECBEAD8517D";
paths = (
{
closed = 1;
nodes = (
"269 1350 LINE",
"291 1350 LINE",
"57 22 LINE",
"1281 22 LINE",
"1277 0 LINE",
"31 0 LINE"
);
}
);
width = 1587;
},
{
anchors = (
{
name = bottom;
position = "{153, 0}";
},
{
name = center;
position = "{273, 675}";
},
{
name = top;
position = "{392, 1350}";
},
{
name = topright;
position = "{621, 1350}";
}
);
layerId = "55C4185A-9C39-4468-B19C-DE0A3E571700";
paths = (
{
closed = 1;
nodes = (
"148 1350 LINE",
"496 1350 LINE",
"302 250 LINE",
"436 250 LINE",
"392 0 LINE",
"-90 0 LINE"
);
}
);
width = 505;
},
{
anchors = (
{
name = bottom;
position = "{-15, 0}";
},
{
name = center;
position = "{105, 675}";
},
{
name = top;
position = "{224, 1350}";
},
{
name = topright;
position = "{286, 1350}";
}
);
layerId = "4F53612F-C4F8-4368-83AD-8913BEEF8F1D";
paths = (
{
closed = 1;
nodes = (
"172 1350 LINE",
"194 1350 LINE",
"-42 22 LINE",
"34 22 LINE",
"30 0 LINE",
"-68 0 LINE"
);
}
);
width = 138;
},
{
anchors = (
{
name = bottom;
position = "{806, 0}";
},
{
name = center;
position = "{926, 675}";
},
{
name = top;
position = "{1045, 1350}";
},
{
name = topright;
position = "{1868, 1350}";
}
);
layerId = "E5A4176B-9C10-4B01-BBC9-D7999ECBFAF8";
paths = (
{
closed = 1;
nodes = (
"280 1350 LINE",
"846 1350 LINE",
"670 362 LINE",
"1558 362 LINE",
"1494 0 LINE",
"42 0 LINE"
);
}
);
width = 1744;
}
);
leftKerningGroup = H;
leftMetricsKey = H;
note = L;
rightKerningGroup = L;
unicode = 004C;
},
{
color = 3;
glyphname = Lcaron;
lastChange = "2022-02-25 13:22:32 +0000";
layers = (
{
components = (
{
name = L;
}
);
layerId = "A1A0948C-E637-4A65-8CCC-05505AD98C44";
paths = (
{
closed = 1;
nodes = (
"150 1348 LINE",
"174 1348 LINE",
"144 1148 LINE",
"124 1148 LINE"
);
}
);
width = 212;
},
{
components = (
{
name = L;
}
);
layerId = "BA0CA162-2A9B-49EE-921D-3B4346C7D39F";
paths = (
{
closed = 1;
nodes = (
"498 1348 LINE",
"722 1348 LINE",
"642 1008 LINE",
"422 1008 LINE"
);
}
);
width = 734;
},
{
components = (
{
name = L;
}
);
layerId = "C75D3228-2D13-4E9D-9829-45195F4951D0";
paths = (
{
closed = 1;
nodes = (
"1498 1348 LINE",
"1854 1348 LINE",
"1684 890 LINE",
"1368 890 LINE"
);
}
);
width = 1664;
},
{
components = (
{
name = L;
}
);
layerId = "71977205-6510-4B11-BB00-17BACA883C8F";
paths = (
{
closed = 1;
nodes = (
"1463 1348 LINE",
"1490 1348 LINE",
"1398 1123 LINE",
"1372 1123 LINE"
);
}
);
width = 1370;
},
{
components = (
{
name = L;
}
);
layerId = "5997A0D0-E78E-41EC-9011-DECBEAD8517D";
paths = (
{
closed = 1;
nodes = (
"1502 1348 LINE",
"1530 1348 LINE",
"1294 1126 LINE",
"1268 1126 LINE"
);
}
);
width = 1370;
},
{
components = (
{
name = L;
}
);
layerId = "55C4185A-9C39-4468-B19C-DE0A3E571700";
paths = (
{
closed = 1;
nodes = (
"638 1348 LINE",
"864 1348 LINE",
"722 1008 LINE",
"498 1008 LINE"
);
}
);
width = 736;
},
{
components = (
{
name = L;
}
);
layerId = "4F53612F-C4F8-4368-83AD-8913BEEF8F1D";
paths = (
{
closed = 1;
nodes = (
"282 1348 LINE",
"306 1348 LINE",
"242 1148 LINE",
"222 1148 LINE"
);
}
);
width = 200;
},
{
components = (
{
name = L;
}
);
layerId = "E5A4176B-9C10-4B01-BBC9-D7999ECBFAF8";
paths = (
{
closed = 1;
nodes = (
"1592 1348 LINE",
"1956 1348 LINE",
"1708 890 LINE",
"1382 890 LINE"
);
}
);
width = 1664;
}
);
leftKerningGroup = H;
rightKerningGroup = L;
unicode = 013D;
},
{
color = 3;
glyphname = Lslash;
lastChange = "2022-02-25 13:22:32 +0000";
layers = (
{
components = (
{
alignment = -1;
name = L;
transform = "{1, 0, 0, 1, 56, 0}";
}
);
layerId = "A1A0948C-E637-4A65-8CCC-05505AD98C44";
paths = (
{
closed = 1;
nodes = (
"7 475 LINE",
"159 869 LINE",
"177 856 LINE",
"25 462 LINE"
);
}
);
width = 220;
},
{
components = (
{
alignment = -1;
name = L;
transform = "{1, 0, 0, 1, 76, 0}";
}
);
layerId = "BA0CA162-2A9B-49EE-921D-3B4346C7D39F";
paths = (
{
closed = 1;
nodes = (
"-46 590 LINE",
"498 953 LINE",
"593 795 LINE",
"49 430 LINE"
);
}
);
width = 572;
},
{
components = (
{
alignment = -1;
name = L;
transform = "{1, 0, 0, 1, 106, 0}";
}
);
layerId = "C75D3228-2D13-4E9D-9829-45195F4951D0";
paths = (
{
closed = 1;
nodes = (
"-8 608 LINE",
"1008 1038 LINE",
"1121 747 LINE",
"105 317 LINE"
);
}
);
width = 1836;
},
{
components = (
{
alignment = -1;
name = L;
transform = "{1, 0, 0, 1, 99, 0}";
}
);
layerId = "71977205-6510-4B11-BB00-17BACA883C8F";
paths = (
{
closed = 1;
nodes = (
"6 413 LINE",
"770 951 LINE",
"783 933 LINE",
"19 395 LINE"
);
}
);
width = 1747;
},
{
components = (
{
alignment = -1;
name = L;
transform = "{1, 0, 0, 1, 94, 0}";
}
);
layerId = "5997A0D0-E78E-41EC-9011-DECBEAD8517D";
paths = (
{
closed = 1;
nodes = (
"-40 413 LINE",
"819 951 LINE",
"829 933 LINE",
"-30 395 LINE"
);
}
);
width = 1548;
},
{
components = (
{
alignment = -1;
name = L;
transform = "{1, 0, 0, 1, 68, 0}";
}
);
layerId = "55C4185A-9C39-4468-B19C-DE0A3E571700";
paths = (
{
closed = 1;
nodes = (
"-64 590 LINE",
"544 953 LINE",
"611 795 LINE",
"3 430 LINE"
);
}
);
width = 568;
},
{
components = (
{
alignment = -1;
name = L;
transform = "{1, 0, 0, 1, 70, 0}";
}
);
layerId = "4F53612F-C4F8-4368-83AD-8913BEEF8F1D";
paths = (
{
closed = 1;
nodes = (
"10 475 LINE",
"232 869 LINE",
"248 856 LINE",
"26 462 LINE"
);
}
);
width = 234;
},
{
components = (
{
alignment = -1;
name = L;
transform = "{1, 0, 0, 1, 106, 0}";
}
);
layerId = "E5A4176B-9C10-4B01-BBC9-D7999ECBFAF8";
paths = (
{
closed = 1;
nodes = (
"-20 608 LINE",
"1072 1038 LINE",
"1133 747 LINE",
"41 317 LINE"
);
}
);
width = 1836;
}
);
leftKerningGroup = H;
rightKerningGroup = L;
unicode = 0141;
},
{
color = 6;
glyphname = M;
lastChange = "2022-02-25 13:22:32 +0000";
layers = (
{
anchors = (
{
name = bottom;
position = "{140, 0}";
},
{
name = top;
position = "{140, 1350}";
}
);
layerId = "A1A0948C-E637-4A65-8CCC-05505AD98C44";
paths = (
{
closed = 1;
nodes = (
"28 1350 LINE",
"78 1350 LINE",
"132 142 LINE",
"138 142 LINE",
"192 1350 LINE",
"242 1350 LINE",
"242 0 LINE",
"220 0 LINE",
"220 1328 LINE",
"212 1328 LINE",
"158 124 LINE",
"112 124 LINE",
"58 1328 LINE",
"50 1328 LINE",
"50 0 LINE",
"28 0 LINE"
);
}
);
width = 282;
},
{
anchors = (
{
name = bottom;
position = "{604, 0}";
},
{
name = top;
position = "{604, 1350}";
}
);
layerId = "BA0CA162-2A9B-49EE-921D-3B4346C7D39F";
paths = (
{
closed = 1;
nodes = (
"12 1350 LINE",
"562 1350 LINE",
"602 268 LINE",
"606 268 LINE",
"646 1350 LINE",
"1196 1350 LINE",
"1196 0 LINE",
"854 0 LINE",
"854 1098 LINE",
"850 1098 LINE",
"790 0 LINE",
"418 0 LINE",
"358 1098 LINE",
"354 1098 LINE",
"354 0 LINE",
"12 0 LINE"
);
}
);
width = 1208;
},
{
anchors = (
{
name = bottom;
position = "{1386, 0}";
},
{
name = top;
position = "{1386, 1350}";
}
);
layerId = "C75D3228-2D13-4E9D-9829-45195F4951D0";
paths = (
{
closed = 1;
nodes = (
"140 1350 LINE",
"1056 1350 LINE",
"1388 364 LINE",
"1372 364 LINE",
"1704 1350 LINE",
"2620 1350 LINE",
"2620 0 LINE",
"2060 0 LINE",
"2060 974 LINE",
"2058 974 LINE",
"1720 10 LINE",
"1040 10 LINE",
"702 974 LINE",
"700 974 LINE",
"700 0 LINE",
"140 0 LINE"
);
}
);
width = 2815;
},
{
anchors = (
{
name = bottom;
position = "{1095, 0}";
},
{
name = top;
position = "{1095, 1350}";
}
);
layerId = "71977205-6510-4B11-BB00-17BACA883C8F";
paths = (
{
closed = 1;
nodes = (
"150 1350 LINE",
"189 1350 LINE",
"1092 140 LINE",
"1095 140 LINE",
"1998 1350 LINE",
"2037 1350 LINE",
"2037 0 LINE",
"2015 0 LINE",
"2015 1333 LINE",
"2014 1333 LINE",
"1111 122 LINE",
"1076 122 LINE",
"173 1333 LINE",
"172 1333 LINE",
"172 0 LINE",
"150 0 LINE"
);
}
);
width = 2309;
},
{
anchors = (
{
name = bottom;
position = "{901, 0}";
},
{
name = top;
position = "{1140, 1350}";
}
);
layerId = "5997A0D0-E78E-41EC-9011-DECBEAD8517D";
paths = (
{
closed = 1;
nodes = (
"269 1350 LINE",
"305 1350 LINE",
"995 140 LINE",
"998 140 LINE",
"2114 1350 LINE",
"2156 1350 LINE",
"1918 0 LINE",
"1896 0 LINE",
"2131 1333 LINE",
"2130 1333 LINE",
"1013 122 LINE",
"978 122 LINE",
"289 1333 LINE",
"288 1333 LINE",
"53 0 LINE",
"31 0 LINE"
);
}
);
width = 2309;
},
{
anchors = (
{
name = bottom;
position = "{496, 0}";
},
{
name = top;
position = "{735, 1350}";
}
);
layerId = "55C4185A-9C39-4468-B19C-DE0A3E571700";
paths = (
{
closed = 1;
nodes = (
"148 1350 LINE",
"693 1350 LINE",
"542 268 LINE",
"546 268 LINE",
"777 1350 LINE",
"1332 1350 LINE",
"1094 0 LINE",
"752 0 LINE",
"946 1098 LINE",
"942 1098 LINE",
"688 0 LINE",
"316 0 LINE",
"450 1098 LINE",
"446 1098 LINE",
"252 0 LINE",
"-90 0 LINE"
);
}
);
width = 1208;
},
{
anchors = (
{
name = bottom;
position = "{46, 0}";
},
{
name = top;
position = "{285, 1350}";
}
);
layerId = "4F53612F-C4F8-4368-83AD-8913BEEF8F1D";
paths = (
{
closed = 1;
nodes = (
"170 1350 LINE",
"220 1350 LINE",
"62 142 LINE",
"68 142 LINE",
"334 1350 LINE",
"384 1350 LINE",
"147 0 LINE",
"125 0 LINE",
"359 1328 LINE",
"351 1328 LINE",
"85 124 LINE",
"39 124 LINE",
"197 1328 LINE",
"189 1328 LINE",
"-45 0 LINE",
"-67 0 LINE"
);
}
);
width = 281;
},
{
anchors = (
{
name = bottom;
position = "{1312, 0}";
},
{
name = top;
position = "{1551, 1350}";
}
);
layerId = "E5A4176B-9C10-4B01-BBC9-D7999ECBFAF8";
paths = (
{
closed = 1;
nodes = (
"280 1350 LINE",
"1186 1350 LINE",
"1344 364 LINE",
"1328 364 LINE",
"1834 1350 LINE",
"2760 1350 LINE",
"2522 0 LINE",
"1962 0 LINE",
"2134 974 LINE",
"2132 974 LINE",
"1624 10 LINE",
"944 10 LINE",
"776 974 LINE",
"774 974 LINE",
"602 0 LINE",
"42 0 LINE"
);
}
);
width = 2817;
}
);
leftKerningGroup = H;
leftMetricsKey = H;
note = M;
rightKerningGroup = H;
rightMetricsKey = H;
unicode = 004D;
},
{
color = 6;
glyphname = N;
lastChange = "2022-02-25 13:22:32 +0000";
layers = (
{
anchors = (
{
name = bottom;
position = "{105, 0}";
},
{
name = top;
position = "{105, 1350}";
}
);
layerId = "A1A0948C-E637-4A65-8CCC-05505AD98C44";
paths = (
{
closed = 1;
nodes = (
"28 1350 LINE",
"76 1350 LINE",
"144 22 LINE",
"150 22 LINE",
"150 1350 LINE",
"172 1350 LINE",
"172 0 LINE",
"124 0 LINE",
"56 1328 LINE",
"50 1328 LINE",
"50 0 LINE",
"28 0 LINE"
);
}
);
width = 212;
},
{
anchors = (
{
name = bottom;
position = "{480, 0}";
},
{
name = top;
position = "{480, 1350}";
}
);
layerId = "BA0CA162-2A9B-49EE-921D-3B4346C7D39F";
paths = (
{
closed = 1;
nodes = (
"12 1350 LINE",
"546 1350 LINE",
"591 264 LINE",
"596 264 LINE",
"604 1350 LINE",
"948 1350 LINE",
"948 0 LINE",
"404 0 LINE",
"360 1096 LINE",
"354 1096 LINE",
"354 0 LINE",
"12 0 LINE"
);
}
);
width = 960;
},
{
anchors = (
{
name = bottom;
position = "{1245, 0}";
},
{
name = top;
position = "{1245, 1350}";
}
);
layerId = "C75D3228-2D13-4E9D-9829-45195F4951D0";
paths = (
{
closed = 1;
nodes = (
"140 1350 LINE",
"1074 1350 LINE",
"1894 164 LINE",
"1754 164 LINE",
"1754 1350 LINE",
"2320 1350 LINE",
"2320 0 LINE",
"1410 0 LINE",
"590 1186 LINE",
"706 1186 LINE",
"706 0 LINE",
"140 0 LINE"
);
}
);
width = 2515;
},
{
anchors = (
{
name = bottom;
position = "{985, 0}";
},
{
name = top;
position = "{985, 1350}";
}
);
layerId = "71977205-6510-4B11-BB00-17BACA883C8F";
paths = (
{
closed = 1;
nodes = (
"150 1350 LINE",
"190 1350 LINE",
"1729 6 LINE",
"1724 6 LINE",
"1724 1350 LINE",
"1746 1350 LINE",
"1746 0 LINE",
"1705 0 LINE",
"166 1344 LINE",
"172 1344 LINE",
"172 0 LINE",
"150 0 LINE"
);
}
);
width = 2018;
},
{
anchors = (
{
name = bottom;
position = "{787, 0}";
},
{
name = top;
position = "{1026, 1350}";
}
);
layerId = "5997A0D0-E78E-41EC-9011-DECBEAD8517D";
paths = (
{
closed = 1;
nodes = (
"269 1350 LINE",
"311 1350 LINE",
"1611 6 LINE",
"1606 6 LINE",
"1843 1350 LINE",
"1865 1350 LINE",
"1627 0 LINE",
"1584 0 LINE",
"284 1344 LINE",
"290 1344 LINE",
"53 0 LINE",
"31 0 LINE"
);
}
);
width = 2018;
},
{
anchors = (
{
name = bottom;
position = "{384, 0}";
},
{
name = top;
position = "{623, 1350}";
}
);
layerId = "55C4185A-9C39-4468-B19C-DE0A3E571700";
paths = (
{
closed = 1;
nodes = (
"148 1350 LINE",
"682 1350 LINE",
"536 264 LINE",
"541 264 LINE",
"740 1350 LINE",
"1084 1350 LINE",
"846 0 LINE",
"302 0 LINE",
"451 1096 LINE",
"445 1096 LINE",
"252 0 LINE",
"-90 0 LINE"
);
}
);
width = 960;
},
{
anchors = (
{
name = bottom;
position = "{9, 0}";
},
{
name = top;
position = "{248, 1350}";
}
);
layerId = "4F53612F-C4F8-4368-83AD-8913BEEF8F1D";
paths = (
{
closed = 1;
nodes = (
"170 1350 LINE",
"218 1350 LINE",
"52 22 LINE",
"58 22 LINE",
"292 1350 LINE",
"314 1350 LINE",
"76 0 LINE",
"28 0 LINE",
"194 1328 LINE",
"188 1328 LINE",
"-46 0 LINE",
"-68 0 LINE"
);
}
);
width = 210;
},
{
anchors = (
{
name = bottom;
position = "{1192, 0}";
},
{
name = top;
position = "{1431, 1350}";
}
);
layerId = "E5A4176B-9C10-4B01-BBC9-D7999ECBFAF8";
paths = (
{
closed = 1;
nodes = (
"280 1350 LINE",
"1194 1350 LINE",
"1825 164 LINE",
"1685 164 LINE",
"1894 1350 LINE",
"2460 1350 LINE",
"2222 0 LINE",
"1332 0 LINE",
"711 1186 LINE",
"817 1186 LINE",
"608 0 LINE",
"42 0 LINE"
);
}
);
width = 2517;
}
);
leftKerningGroup = H;
leftMetricsKey = H;
note = N;
rightKerningGroup = H;
rightMetricsKey = H;
unicode = 004E;
},
{
color = 3;
glyphname = Eng;
lastChange = "2022-02-25 13:22:32 +0000";
layers = (
{
components = (
{
name = N;
}
);
layerId = "A1A0948C-E637-4A65-8CCC-05505AD98C44";
paths = (
{
closed = 1;
nodes = (
"76 -378 LINE",
"152 -378 OFFCURVE",
"158 -193 OFFCURVE",
"158 0 CURVE",
"180 0 LINE",
"180 -193 OFFCURVE",
"170 -400 OFFCURVE",
"76 -400 CURVE"
);
}
);
width = 220;
},
{
components = (
{
name = N;
}
);
layerId = "BA0CA162-2A9B-49EE-921D-3B4346C7D39F";
paths = (
{
closed = 1;
nodes = (
"390 -198 LINE",
"530 -198 OFFCURVE",
"596 -158 OFFCURVE",
"594 0 CURVE",
"948 0 LINE",
"948 -388 OFFCURVE",
"638 -440 OFFCURVE",
"390 -440 CURVE"
);
}
);
width = 960;
},
{
components = (
{
name = N;
}
);
layerId = "C75D3228-2D13-4E9D-9829-45195F4951D0";
paths = (
{
closed = 1;
nodes = (
"1298 -142 LINE",
"1672 -142 OFFCURVE",
"1730 -76 OFFCURVE",
"1730 0 CURVE",
"2318 0 LINE",
"2318 -372 OFFCURVE",
"1878 -490 OFFCURVE",
"1298 -490 CURVE"
);
}
);
width = 2515;
},
{
components = (
{
name = N;
}
);
layerId = "71977205-6510-4B11-BB00-17BACA883C8F";
paths = (
{
closed = 1;
nodes = (
"1163 -440 LINE",
"1629 -440 OFFCURVE",
"1724 -277 OFFCURVE",
"1724 0 CURVE",
"1746 0 LINE",
"1746 -329 OFFCURVE",
"1603 -462 OFFCURVE",
"1163 -462 CURVE"
);
}
);
width = 2018;
},
{
components = (
{
name = N;
}
);
layerId = "5997A0D0-E78E-41EC-9011-DECBEAD8517D";
paths = (
{
closed = 1;
nodes = (
"1027 -438 LINE",
"1441 -438 OFFCURVE",
"1563 -244 OFFCURVE",
"1605 0 CURVE",
"1627 0 LINE",
"1575 -292 OFFCURVE",
"1419 -460 OFFCURVE",
"1023 -460 CURVE"
);
}
);
width = 2018;
},
{
components = (
{
name = N;
}
);
layerId = "55C4185A-9C39-4468-B19C-DE0A3E571700";
paths = (
{
closed = 1;
nodes = (
"256 -198 LINE",
"396 -198 OFFCURVE",
"466 -158 OFFCURVE",
"492 0 CURVE",
"846 0 LINE",
"776 -395 OFFCURVE",
"460 -440 OFFCURVE",
"212 -440 CURVE"
);
}
);
width = 960;
},
{
components = (
{
name = N;
}
);
layerId = "4F53612F-C4F8-4368-83AD-8913BEEF8F1D";
paths = (
{
closed = 1;
nodes = (
"-90 -378 LINE",
"-24 -378 OFFCURVE",
"44 -92 OFFCURVE",
"60 0 CURVE",
"82 0 LINE",
"74 -46 OFFCURVE",
"10 -400 OFFCURVE",
"-94 -400 CURVE"
);
}
);
width = 216;
},
{
components = (
{
name = N;
}
);
layerId = "E5A4176B-9C10-4B01-BBC9-D7999ECBFAF8";
paths = (
{
closed = 1;
nodes = (
"1177 -142 LINE",
"1551 -142 OFFCURVE",
"1621 -76 OFFCURVE",
"1634 0 CURVE",
"2222 0 LINE",
"2157 -372 OFFCURVE",
"1696 -490 OFFCURVE",
"1116 -490 CURVE"
);
}
);
width = 2517;
}
);
leftKerningGroup = N;
leftMetricsKey = N;
rightKerningGroup = N;
rightMetricsKey = N;
unicode = 014A;
},
{
color = 6;
glyphname = O;
lastChange = "2022-02-25 13:22:32 +0000";
layers = (
{
anchors = (
{
name = bottom;
position = "{87, 0}";
},
{
name = center;
position = "{91, 675}";
},
{
name = ogonek;
position = "{134, 38}";
},
{
name = top;
position = "{91, 1350}";
},
{
name = topleft;
position = "{20, 1350}";
},
{
name = topright;
position = "{142, 1216}";
}
);
layerId = "A1A0948C-E637-4A65-8CCC-05505AD98C44";
paths = (
{
closed = 1;
nodes = (
"28 -8 OFFCURVE",
"28 260 OFFCURVE",
"28 674 QCURVE SMOOTH",
"28 1086 OFFCURVE",
"28 1356 OFFCURVE",
"86 1356 QCURVE SMOOTH",
"144 1356 OFFCURVE",
"144 1084 OFFCURVE",
"144 674 QCURVE SMOOTH",
"144 260 OFFCURVE",
"144 -8 OFFCURVE",
"86 -8 QCURVE SMOOTH"
);
},
{
closed = 1;
nodes = (
"122 14 OFFCURVE",
"122 266 OFFCURVE",
"122 674 QCURVE SMOOTH",
"122 1080 OFFCURVE",
"122 1334 OFFCURVE",
"86 1334 QCURVE SMOOTH",
"50 1334 OFFCURVE",
"50 1080 OFFCURVE",
"50 674 QCURVE SMOOTH",
"50 266 OFFCURVE",
"50 14 OFFCURVE",
"86 14 QCURVE SMOOTH"
);
}
);
width = 174;
},
{
anchors = (
{
name = bottom;
position = "{368, 0}";
},
{
name = center;
position = "{368, 675}";
},
{
name = ogonek;
position = "{668, 63}";
},
{
name = top;
position = "{368, 1350}";
},
{
name = topleft;
position = "{20, 1350}";
},
{
name = topright;
position = "{716, 1180}";
}
);
layerId = "BA0CA162-2A9B-49EE-921D-3B4346C7D39F";
paths = (
{
closed = 1;
nodes = (
"12 -8 OFFCURVE",
"12 366 OFFCURVE",
"12 676 QCURVE SMOOTH",
"12 986 OFFCURVE",
"12 1362 OFFCURVE",
"368 1362 QCURVE SMOOTH",
"724 1362 OFFCURVE",
"724 986 OFFCURVE",
"724 676 QCURVE SMOOTH",
"724 366 OFFCURVE",
"724 -8 OFFCURVE",
"368 -8 QCURVE SMOOTH"
);
},
{
closed = 1;
nodes = (
"380 246 OFFCURVE",
"380 294 OFFCURVE",
"380 676 QCURVE SMOOTH",
"380 1068 OFFCURVE",
"380 1108 OFFCURVE",
"368 1108 QCURVE SMOOTH",
"356 1108 OFFCURVE",
"356 1068 OFFCURVE",
"356 676 QCURVE SMOOTH",
"356 294 OFFCURVE",
"356 246 OFFCURVE",
"368 246 QCURVE SMOOTH"
);
}
);
width = 736;
},
{
anchors = (
{
name = bottom;
position = "{1130, 0}";
},
{
name = center;
position = "{1130, 675}";
},
{
name = ogonek;
position = "{1764, 102}";
},
{
name = top;
position = "{1130, 1350}";
},
{
name = topleft;
position = "{50, 1350}";
},
{
name = topright;
position = "{1746, 1232}";
}
);
layerId = "C75D3228-2D13-4E9D-9829-45195F4951D0";
paths = (
{
closed = 1;
nodes = (
"662 -16 OFFCURVE",
"80 334 OFFCURVE",
"80 674 QCURVE SMOOTH",
"80 1014 OFFCURVE",
"662 1362 OFFCURVE",
"1126 1362 QCURVE SMOOTH",
"1590 1362 OFFCURVE",
"2172 1014 OFFCURVE",
"2172 674 QCURVE SMOOTH",
"2172 334 OFFCURVE",
"1590 -16 OFFCURVE",
"1126 -16 QCURVE SMOOTH"
);
},
{
closed = 1;
nodes = (
"1342 346 OFFCURVE",
"1606 512 OFFCURVE",
"1606 674 QCURVE SMOOTH",
"1606 836 OFFCURVE",
"1342 1000 OFFCURVE",
"1126 1000 QCURVE SMOOTH",
"910 1000 OFFCURVE",
"646 836 OFFCURVE",
"646 674 QCURVE SMOOTH",
"646 512 OFFCURVE",
"910 346 OFFCURVE",
"1126 346 QCURVE SMOOTH"
);
}
);
width = 2259;
},
{
anchors = (
{
name = bottom;
position = "{1060, 0}";
},
{
name = center;
position = "{1064, 675}";
},
{
name = ogonek;
position = "{1649, 129}";
},
{
name = top;
position = "{1060, 1350}";
},
{
name = topleft;
position = "{118, 1350}";
},
{
name = topright;
position = "{1648, 1224}";
}
);
layerId = "71977205-6510-4B11-BB00-17BACA883C8F";
paths = (
{
closed = 1;
nodes = (
"683 -8 OFFCURVE",
"142 331 OFFCURVE",
"142 676 QCURVE SMOOTH",
"142 1021 OFFCURVE",
"682 1363 OFFCURVE",
"1060 1363 QCURVE SMOOTH",
"1438 1363 OFFCURVE",
"1979 1022 OFFCURVE",
"1979 676 QCURVE SMOOTH",
"1979 331 OFFCURVE",
"1438 -8 OFFCURVE",
"1060 -8 QCURVE SMOOTH"
);
},
{
closed = 1;
nodes = (
"1432 14 OFFCURVE",
"1955 344 OFFCURVE",
"1955 676 QCURVE SMOOTH",
"1955 1009 OFFCURVE",
"1432 1341 OFFCURVE",
"1060 1341 QCURVE SMOOTH",
"689 1341 OFFCURVE",
"166 1009 OFFCURVE",
"166 676 QCURVE SMOOTH",
"166 344 OFFCURVE",
"689 14 OFFCURVE",
"1060 14 QCURVE SMOOTH"
);
}
);
width = 2173;
},
{
anchors = (
{
name = bottom;
position = "{927, 0}";
},
{
name = center;
position = "{1047, 675}";
},
{
name = ogonek;
position = "{1549, 129}";
},
{
name = top;
position = "{1166, 1350}";
},
{
name = topleft;
position = "{248, 1350}";
},
{
name = topright;
position = "{1737, 1224}";
}
);
layerId = "5997A0D0-E78E-41EC-9011-DECBEAD8517D";
paths = (
{
closed = 1;
nodes = (
"552 -8 OFFCURVE",
"83 331 OFFCURVE",
"132 676 QCURVE SMOOTH",
"182 1025 OFFCURVE",
"793 1363 OFFCURVE",
"1171 1363 QCURVE SMOOTH",
"1549 1363 OFFCURVE",
"2019 1022 OFFCURVE",
"1969 676 QCURVE SMOOTH",
"1919 327 OFFCURVE",
"1307 -8 OFFCURVE",
"929 -8 QCURVE SMOOTH"
);
},
{
closed = 1;
nodes = (
"1305 14 OFFCURVE",
"1897 342 OFFCURVE",
"1945 676 QCURVE SMOOTH",
"1993 1009 OFFCURVE",
"1539 1341 OFFCURVE",
"1167 1341 QCURVE SMOOTH",
"796 1341 OFFCURVE",
"205 1010 OFFCURVE",
"156 676 QCURVE SMOOTH",
"107 344 OFFCURVE",
"562 14 OFFCURVE",
"933 14 QCURVE SMOOTH"
);
}
);
width = 2173;
},
{
anchors = (
{
name = bottom;
position = "{269, 0}";
},
{
name = center;
position = "{389, 675}";
},
{
name = ogonek;
position = "{574, 63}";
},
{
name = top;
position = "{508, 1350}";
},
{
name = topleft;
position = "{162, 1350}";
},
{
name = topright;
position = "{820, 1180}";
}
);
layerId = "55C4185A-9C39-4468-B19C-DE0A3E571700";
paths = (
{
closed = 1;
nodes = (
"-94 -8 OFFCURVE",
"-28 366 OFFCURVE",
"27 676 QCURVE SMOOTH",
"81 986 OFFCURVE",
"148 1362 OFFCURVE",
"504 1362 QCURVE SMOOTH",
"860 1362 OFFCURVE",
"793 986 OFFCURVE",
"739 676 QCURVE SMOOTH",
"684 366 OFFCURVE",
"618 -8 OFFCURVE",
"262 -8 QCURVE SMOOTH"
);
},
{
closed = 1;
nodes = (
"319 246 OFFCURVE",
"327 294 OFFCURVE",
"395 676 QCURVE SMOOTH",
"464 1068 OFFCURVE",
"471 1108 OFFCURVE",
"459 1108 QCURVE SMOOTH",
"447 1108 OFFCURVE",
"440 1068 OFFCURVE",
"371 676 QCURVE SMOOTH",
"303 294 OFFCURVE",
"295 246 OFFCURVE",
"307 246 QCURVE SMOOTH"
);
}
);
width = 736;
},
{
anchors = (
{
name = bottom;
position = "{-6, 0}";
},
{
name = center;
position = "{114, 675}";
},
{
name = ogonek;
position = "{44, 38}";
},
{
name = top;
position = "{233, 1350}";
},
{
name = topleft;
position = "{161, 1350}";
},
{
name = topright;
position = "{259, 1216}";
}
);
layerId = "4F53612F-C4F8-4368-83AD-8913BEEF8F1D";
paths = (
{
closed = 1;
nodes = (
"-70 -8 OFFCURVE",
"-23 260 OFFCURVE",
"50 674 QCURVE SMOOTH",
"123 1086 OFFCURVE",
"170 1356 OFFCURVE",
"228 1356 QCURVE SMOOTH",
"286 1356 OFFCURVE",
"238 1084 OFFCURVE",
"166 674 QCURVE SMOOTH",
"93 260 OFFCURVE",
"46 -8 OFFCURVE",
"-12 -8 QCURVE SMOOTH"
);
},
{
closed = 1;
nodes = (
"28 14 OFFCURVE",
"72 266 OFFCURVE",
"144 674 QCURVE SMOOTH",
"216 1080 OFFCURVE",
"260 1334 OFFCURVE",
"224 1334 QCURVE SMOOTH",
"188 1334 OFFCURVE",
"144 1080 OFFCURVE",
"72 674 QCURVE SMOOTH",
"0 266 OFFCURVE",
"-44 14 OFFCURVE",
"-8 14 QCURVE SMOOTH"
);
}
);
width = 174;
},
{
anchors = (
{
name = bottom;
position = "{995, 0}";
},
{
name = center;
position = "{1115, 675}";
},
{
name = ogonek;
position = "{1687, 102}";
},
{
name = top;
position = "{1234, 1350}";
},
{
name = topleft;
position = "{164, 1350}";
},
{
name = topright;
position = "{1853, 1232}";
}
);
layerId = "E5A4176B-9C10-4B01-BBC9-D7999ECBFAF8";
paths = (
{
closed = 1;
nodes = (
"540 -16 OFFCURVE",
"39 334 OFFCURVE",
"79 674 QCURVE SMOOTH",
"119 1017 OFFCURVE",
"782 1362 OFFCURVE",
"1246 1362 QCURVE SMOOTH",
"1710 1362 OFFCURVE",
"2211 1015 OFFCURVE",
"2171 674 QCURVE SMOOTH",
"2131 332 OFFCURVE",
"1468 -16 OFFCURVE",
"1004 -16 QCURVE SMOOTH"
);
},
{
closed = 1;
nodes = (
"1283 346 OFFCURVE",
"1586 511 OFFCURVE",
"1605 674 QCURVE SMOOTH",
"1624 836 OFFCURVE",
"1399 1000 OFFCURVE",
"1183 1000 QCURVE SMOOTH",
"967 1000 OFFCURVE",
"663 838 OFFCURVE",
"645 674 QCURVE SMOOTH",
"627 512 OFFCURVE",
"851 346 OFFCURVE",
"1067 346 QCURVE SMOOTH"
);
}
);
width = 2259;
}
);
leftKerningGroup = O;
note = O;
rightKerningGroup = O;
unicode = 004F;
},
{
color = 3;
glyphname = Oslash;
lastChange = "2022-02-25 13:22:32 +0000";
layers = (
{
anchors = (
{
name = bottom;
position = "{91, 0}";
},
{
name = top;
position = "{91, 1350}";
}
);
components = (
{
name = O;
}
);
layerId = "A1A0948C-E637-4A65-8CCC-05505AD98C44";
paths = (
{
closed = 1;
nodes = (
"136 1348 LINE",
"158 1348 LINE",
"36 0 LINE",
"14 0 LINE"
);
}
);
width = 182;
},
{
anchors = (
{
name = bottom;
position = "{368, 0}";
},
{
name = top;
position = "{368, 1350}";
}
);
components = (
{
name = O;
}
);
layerId = "BA0CA162-2A9B-49EE-921D-3B4346C7D39F";
paths = (
{
closed = 1;
nodes = (
"666 1348 LINE",
"744 1348 LINE",
"72 0 LINE",
"-8 0 LINE"
);
}
);
width = 736;
},
{
anchors = (
{
name = bottom;
position = "{1099, 0}";
},
{
name = top;
position = "{1099, 1350}";
}
);
components = (
{
name = O;
}
);
layerId = "C75D3228-2D13-4E9D-9829-45195F4951D0";
paths = (
{
closed = 1;
nodes = (
"1780 1348 LINE",
"2158 1348 LINE",
"418 0 LINE",
"38 0 LINE"
);
}
);
width = 2198;
},
{
anchors = (
{
name = bottom;
position = "{1028, 0}";
},
{
name = top;
position = "{1028, 1350}";
}
);
components = (
{
name = O;
}
);
layerId = "71977205-6510-4B11-BB00-17BACA883C8F";
paths = (
{
closed = 1;
nodes = (
"1735 1348 LINE",
"1764 1348 LINE",
"216 0 LINE",
"180 0 LINE"
);
}
);
width = 1810;
},
{
anchors = (
{
name = bottom;
position = "{790, 0}";
},
{
name = top;
position = "{1029, 1350}";
}
);
components = (
{
name = O;
}
);
layerId = "5997A0D0-E78E-41EC-9011-DECBEAD8517D";
paths = (
{
closed = 1;
nodes = (
"1620 1348 LINE",
"1652 1348 LINE",
"58 0 LINE",
"18 0 LINE"
);
}
);
width = 1770;
},
{
anchors = (
{
name = bottom;
position = "{271, 0}";
},
{
name = top;
position = "{510, 1350}";
}
);
components = (
{
name = O;
}
);
layerId = "55C4185A-9C39-4468-B19C-DE0A3E571700";
paths = (
{
closed = 1;
nodes = (
"806 1348 LINE",
"884 1348 LINE",
"-24 0 LINE",
"-104 0 LINE"
);
}
);
width = 732;
},
{
anchors = (
{
name = bottom;
position = "{-3, 0}";
},
{
name = top;
position = "{236, 1350}";
}
);
components = (
{
name = O;
}
);
layerId = "4F53612F-C4F8-4368-83AD-8913BEEF8F1D";
paths = (
{
closed = 1;
nodes = (
"274 1348 LINE",
"296 1348 LINE",
"-62 0 LINE",
"-84 0 LINE"
);
}
);
width = 184;
},
{
anchors = (
{
name = bottom;
position = "{1004, 0}";
},
{
name = top;
position = "{1243, 1350}";
}
);
components = (
{
name = O;
}
);
layerId = "E5A4176B-9C10-4B01-BBC9-D7999ECBFAF8";
paths = (
{
closed = 1;
nodes = (
"1898 1348 LINE",
"2276 1348 LINE",
"300 0 LINE",
"-80 0 LINE"
);
}
);
width = 2198;
}
);
leftKerningGroup = O;
rightKerningGroup = O;
unicode = 00D8;
},
{
color = 6;
glyphname = P;
lastChange = "2022-02-25 13:22:32 +0000";
layers = (
{
anchors = (
{
name = bottom;
position = "{85, 0}";
},
{
name = top;
position = "{85, 1350}";
}
);
layerId = "A1A0948C-E637-4A65-8CCC-05505AD98C44";
paths = (
{
closed = 1;
nodes = (
"28 1350 LINE",
"72 1350 LINE SMOOTH",
"132 1350 OFFCURVE",
"132 1056 OFFCURVE",
"132 868 QCURVE SMOOTH",
"132 680 OFFCURVE",
"132 388 OFFCURVE",
"72 388 QCURVE SMOOTH",
"50 388 LINE",
"50 0 LINE",
"28 0 LINE"
);
},
{
closed = 1;
nodes = (
"68 410 LINE SMOOTH",
"110 410 OFFCURVE",
"110 680 OFFCURVE",
"110 868 QCURVE SMOOTH",
"110 1056 OFFCURVE",
"110 1328 OFFCURVE",
"68 1328 QCURVE SMOOTH",
"50 1328 LINE",
"50 410 LINE"
);
}
);
width = 170;
},
{
anchors = (
{
name = bottom;
position = "{372, 0}";
},
{
name = top;
position = "{372, 1350}";
}
);
layerId = "BA0CA162-2A9B-49EE-921D-3B4346C7D39F";
paths = (
{
closed = 1;
nodes = (
"12 1350 LINE",
"500 1350 LINE SMOOTH",
"732 1350 OFFCURVE",
"732 1010 OFFCURVE",
"732 852 QCURVE SMOOTH",
"732 692 OFFCURVE",
"732 352 OFFCURVE",
"500 352 QCURVE SMOOTH",
"360 352 LINE",
"360 0 LINE",
"12 0 LINE"
);
},
{
closed = 1;
nodes = (
"366 606 LINE SMOOTH",
"384 606 OFFCURVE",
"384 696 OFFCURVE",
"384 852 QCURVE SMOOTH",
"384 1006 OFFCURVE",
"384 1096 OFFCURVE",
"366 1096 QCURVE SMOOTH",
"360 1096 LINE",
"360 606 LINE"
);
}
);
width = 744;
},
{
anchors = (
{
name = bottom;
position = "{1044, 0}";
},
{
name = top;
position = "{1044, 1350}";
}
);
layerId = "C75D3228-2D13-4E9D-9829-45195F4951D0";
paths = (
{
closed = 1;
nodes = (
"140 1350 LINE",
"1326 1350 LINE SMOOTH",
"1652 1350 OFFCURVE",
"1978 1094 OFFCURVE",
"1978 830 QCURVE SMOOTH",
"1978 564 OFFCURVE",
"1652 310 OFFCURVE",
"1326 310 QCURVE SMOOTH",
"706 310 LINE",
"706 0 LINE",
"140 0 LINE"
);
},
{
closed = 1;
nodes = (
"1188 672 LINE SMOOTH",
"1302 672 OFFCURVE",
"1420 740 OFFCURVE",
"1420 830 QCURVE SMOOTH",
"1420 918 OFFCURVE",
"1302 988 OFFCURVE",
"1188 988 QCURVE SMOOTH",
"706 988 LINE",
"706 672 LINE"
);
}
);
width = 2065;
},
{
anchors = (
{
name = bottom;
position = "{877, 0}";
},
{
name = top;
position = "{877, 1350}";
}
);
layerId = "71977205-6510-4B11-BB00-17BACA883C8F";
paths = (
{
closed = 1;
nodes = (
"150 1350 LINE",
"961 1350 LINE SMOOTH",
"1269 1350 OFFCURVE",
"1570 1135 OFFCURVE",
"1570 921 QCURVE SMOOTH",
"1570 707 OFFCURVE",
"1270 492 OFFCURVE",
"961 492 QCURVE SMOOTH",
"172 492 LINE",
"172 0 LINE",
"150 0 LINE"
);
},
{
closed = 1;
nodes = (
"950 514 LINE SMOOTH",
"1265 514 OFFCURVE",
"1546 721 OFFCURVE",
"1546 921 QCURVE SMOOTH",
"1546 1120 OFFCURVE",
"1266 1328 OFFCURVE",
"950 1328 QCURVE SMOOTH",
"172 1328 LINE",
"172 514 LINE"
);
}
);
width = 1770;
},
{
anchors = (
{
name = bottom;
position = "{657, 0}";
},
{
name = top;
position = "{896, 1350}";
}
);
layerId = "5997A0D0-E78E-41EC-9011-DECBEAD8517D";
paths = (
{
closed = 1;
nodes = (
"269 1350 LINE",
"1075 1350 LINE SMOOTH",
"1383 1350 OFFCURVE",
"1651 1135 OFFCURVE",
"1613 921 QCURVE SMOOTH",
"1576 707 OFFCURVE",
"1243 492 OFFCURVE",
"934 492 QCURVE SMOOTH",
"140 492 LINE",
"53 0 LINE",
"31 0 LINE"
);
},
{
closed = 1;
nodes = (
"922 514 LINE SMOOTH",
"1237 514 OFFCURVE",
"1554 721 OFFCURVE",
"1589 921 QCURVE SMOOTH",
"1624 1120 OFFCURVE",
"1381 1328 OFFCURVE",
"1065 1328 QCURVE SMOOTH",
"287 1328 LINE",
"144 514 LINE"
);
}
);
width = 1750;
},
{
anchors = (
{
name = bottom;
position = "{275, 0}";
},
{
name = top;
position = "{514, 1350}";
}
);
layerId = "55C4185A-9C39-4468-B19C-DE0A3E571700";
paths = (
{
closed = 1;
nodes = (
"148 1350 LINE",
"636 1350 LINE SMOOTH",
"868 1350 OFFCURVE",
"803 980 OFFCURVE",
"780 852 QCURVE SMOOTH",
"757 722 OFFCURVE",
"692 352 OFFCURVE",
"460 352 QCURVE SMOOTH",
"320 352 LINE",
"258 0 LINE",
"-90 0 LINE"
);
},
{
closed = 1;
nodes = (
"371 606 LINE SMOOTH",
"389 606 OFFCURVE",
"405 696 OFFCURVE",
"432 852 QCURVE SMOOTH",
"459 1006 OFFCURVE",
"475 1096 OFFCURVE",
"457 1096 QCURVE SMOOTH",
"451 1096 LINE",
"365 606 LINE"
);
}
);
width = 743;
},
{
anchors = (
{
name = bottom;
position = "{-12, 0}";
},
{
name = top;
position = "{227, 1350}";
}
);
layerId = "4F53612F-C4F8-4368-83AD-8913BEEF8F1D";
paths = (
{
closed = 1;
nodes = (
"170 1350 LINE",
"212 1350 LINE SMOOTH",
"274 1350 OFFCURVE",
"222 1056 OFFCURVE",
"189 868 QCURVE SMOOTH",
"156 680 OFFCURVE",
"104 388 OFFCURVE",
"46 388 QCURVE SMOOTH",
"22 388 LINE",
"-46 0 LINE",
"-68 0 LINE"
);
},
{
closed = 1;
nodes = (
"44 410 LINE SMOOTH",
"86 410 OFFCURVE",
"134 680 OFFCURVE",
"167 868 QCURVE SMOOTH",
"200 1056 OFFCURVE",
"248 1328 OFFCURVE",
"206 1328 QCURVE SMOOTH",
"188 1328 LINE",
"26 410 LINE"
);
}
);
width = 166;
},
{
anchors = (
{
name = bottom;
position = "{963, 0}";
},
{
name = top;
position = "{1202, 1350}";
}
);
layerId = "E5A4176B-9C10-4B01-BBC9-D7999ECBFAF8";
paths = (
{
closed = 1;
nodes = (
"282 1350 LINE",
"1450 1350 LINE SMOOTH",
"1776 1350 OFFCURVE",
"2028 1096 OFFCURVE",
"2028 906 QCURVE SMOOTH",
"2028 636 OFFCURVE",
"1630 310 OFFCURVE",
"1304 310 QCURVE SMOOTH",
"664 310 LINE",
"608 0 LINE",
"42 0 LINE"
);
},
{
closed = 1;
nodes = (
"1210 672 LINE SMOOTH",
"1324 672 OFFCURVE",
"1470 758 OFFCURVE",
"1470 850 QCURVE SMOOTH",
"1470 918 OFFCURVE",
"1380 988 OFFCURVE",
"1266 988 QCURVE SMOOTH",
"784 988 LINE",
"728 672 LINE"
);
}
);
width = 2069;
}
);
leftKerningGroup = H;
leftMetricsKey = H;
note = P;
rightKerningGroup = P;
unicode = 0050;
},
{
color = 6;
glyphname = Thorn;
lastChange = "2022-02-25 13:22:32 +0000";
layers = (
{
anchors = (
{
name = bottom;
position = "{105, 0}";
},
{
name = top;
position = "{105, 1350}";
}
);
layerId = "A1A0948C-E637-4A65-8CCC-05505AD98C44";
paths = (
{
closed = 1;
nodes = (
"28 1350 LINE",
"50 1350 LINE",
"50 1132 LINE",
"94 1132 LINE",
"144 1132 OFFCURVE",
"172 1042 OFFCURVE",
"172 882 CURVE SMOOTH",
"172 478 LINE SMOOTH",
"172 310 OFFCURVE",
"146 228 OFFCURVE",
"94 228 CURVE",
"50 228 LINE",
"50 0 LINE",
"28 0 LINE"
);
},
{
closed = 1;
nodes = (
"80 250 LINE",
"132 250 OFFCURVE",
"150 314 OFFCURVE",
"150 498 CURVE SMOOTH",
"150 862 LINE SMOOTH",
"150 1038 OFFCURVE",
"130 1108 OFFCURVE",
"80 1108 CURVE",
"50 1108 LINE",
"50 250 LINE"
);
}
);
width = 210;
},
{
anchors = (
{
name = bottom;
position = "{373, 0}";
},
{
name = top;
position = "{373, 1350}";
}
);
layerId = "BA0CA162-2A9B-49EE-921D-3B4346C7D39F";
paths = (
{
closed = 1;
nodes = (
"12 1350 LINE",
"358 1350 LINE",
"358 1132 LINE",
"514 1132 LINE",
"666 1132 OFFCURVE",
"734 1050 OFFCURVE",
"734 862 CURVE SMOOTH",
"734 498 LINE SMOOTH",
"734 304 OFFCURVE",
"672 228 OFFCURVE",
"514 228 CURVE",
"358 228 LINE",
"358 0 LINE",
"12 0 LINE"
);
},
{
closed = 1;
nodes = (
"368 450 LINE",
"386 450 OFFCURVE",
"388 468 OFFCURVE",
"388 538 CURVE SMOOTH",
"388 838 LINE SMOOTH",
"388 892 OFFCURVE",
"388 908 OFFCURVE",
"368 908 CURVE",
"358 908 LINE",
"358 450 LINE"
);
}
);
width = 746;
},
{
anchors = (
{
name = bottom;
position = "{1023, 0}";
},
{
name = top;
position = "{1023, 1350}";
}
);
layerId = "C75D3228-2D13-4E9D-9829-45195F4951D0";
paths = (
{
closed = 1;
nodes = (
"108 1350 LINE",
"666 1350 LINE",
"666 1132 LINE",
"1498 1132 LINE",
"1782 1132 OFFCURVE",
"1920 1012 OFFCURVE",
"1920 786 CURVE SMOOTH",
"1920 578 LINE SMOOTH",
"1920 322 OFFCURVE",
"1804 228 OFFCURVE",
"1498 228 CURVE SMOOTH",
"666 228 LINE",
"666 0 LINE",
"108 0 LINE"
);
},
{
closed = 1;
nodes = (
"1296 588 LINE",
"1350 588 OFFCURVE",
"1360 624 OFFCURVE",
"1360 646 CURVE SMOOTH",
"1360 712 LINE SMOOTH",
"1360 736 OFFCURVE",
"1348 772 OFFCURVE",
"1296 772 CURVE",
"666 772 LINE",
"666 588 LINE"
);
}
);
width = 2045;
},
{
anchors = (
{
name = bottom;
position = "{836, 0}";
},
{
name = top;
position = "{836, 1350}";
}
);
layerId = "71977205-6510-4B11-BB00-17BACA883C8F";
paths = (
{
closed = 1;
nodes = (
"194 1350 LINE",
"216 1350 LINE",
"216 1132 LINE",
"1012 1132 LINE",
"1363 1132 OFFCURVE",
"1461 950 OFFCURVE",
"1461 746 CURVE SMOOTH",
"1461 607 LINE SMOOTH",
"1461 412 OFFCURVE",
"1359 228 OFFCURVE",
"1012 228 CURVE",
"216 228 LINE",
"216 0 LINE",
"194 0 LINE"
);
},
{
closed = 1;
nodes = (
"1014 250 LINE",
"1333 250 OFFCURVE",
"1439 422 OFFCURVE",
"1439 615 CURVE SMOOTH",
"1439 738 LINE SMOOTH",
"1439 941 OFFCURVE",
"1343 1108 OFFCURVE",
"1014 1108 CURVE",
"216 1108 LINE",
"216 250 LINE"
);
}
);
width = 1672;
},
{
anchors = (
{
name = bottom;
position = "{645, 0}";
},
{
name = top;
position = "{884, 1350}";
}
);
layerId = "5997A0D0-E78E-41EC-9011-DECBEAD8517D";
paths = (
{
closed = 1;
nodes = (
"272 1350 LINE",
"294 1350 LINE",
"256 1132 LINE",
"1048 1132 LINE",
"1399 1132 OFFCURVE",
"1470 950 OFFCURVE",
"1433 746 CURVE SMOOTH",
"1408 607 LINE SMOOTH",
"1373 412 OFFCURVE",
"1245 228 OFFCURVE",
"898 228 CURVE",
"96 228 LINE",
"56 0 LINE",
"34 0 LINE"
);
},
{
closed = 1;
nodes = (
"898 250 LINE",
"1217 250 OFFCURVE",
"1352 422 OFFCURVE",
"1387 615 CURVE SMOOTH",
"1409 738 LINE SMOOTH",
"1445 941 OFFCURVE",
"1378 1108 OFFCURVE",
"1049 1108 CURVE",
"251 1108 LINE",
"100 250 LINE"
);
}
);
width = 1672;
},
{
anchors = (
{
name = bottom;
position = "{276, 0}";
},
{
name = top;
position = "{515, 1350}";
}
);
layerId = "55C4185A-9C39-4468-B19C-DE0A3E571700";
paths = (
{
closed = 1;
nodes = (
"148 1350 LINE",
"494 1350 LINE",
"456 1132 LINE",
"612 1132 LINE",
"764 1132 OFFCURVE",
"817 1050 OFFCURVE",
"784 862 CURVE SMOOTH",
"720 498 LINE SMOOTH",
"686 304 OFFCURVE",
"610 228 OFFCURVE",
"452 228 CURVE",
"296 228 LINE",
"256 0 LINE",
"-90 0 LINE"
);
},
{
closed = 1;
nodes = (
"345 450 LINE",
"365 450 OFFCURVE",
"369 468 OFFCURVE",
"381 538 CURVE SMOOTH",
"434 838 LINE SMOOTH",
"444 892 OFFCURVE",
"445 908 OFFCURVE",
"425 908 CURVE",
"416 908 LINE",
"335 450 LINE"
);
}
);
width = 746;
},
{
anchors = (
{
name = bottom;
position = "{11, 0}";
},
{
name = top;
position = "{250, 1350}";
}
);
layerId = "4F53612F-C4F8-4368-83AD-8913BEEF8F1D";
paths = (
{
closed = 1;
nodes = (
"172 1350 LINE",
"194 1350 LINE",
"156 1132 LINE",
"198 1132 LINE",
"248 1132 OFFCURVE",
"261 1042 OFFCURVE",
"233 882 CURVE SMOOTH",
"162 478 LINE SMOOTH",
"132 310 OFFCURVE",
"93 228 OFFCURVE",
"41 228 CURVE",
"-4 228 LINE",
"-44 0 LINE",
"-66 0 LINE"
);
},
{
closed = 1;
nodes = (
"30 250 LINE",
"82 250 OFFCURVE",
"112 314 OFFCURVE",
"144 498 CURVE SMOOTH",
"208 862 LINE SMOOTH",
"239 1038 OFFCURVE",
"231 1108 OFFCURVE",
"181 1108 CURVE",
"151 1108 LINE",
"0 250 LINE"
);
}
);
width = 210;
},
{
anchors = (
{
name = bottom;
position = "{928, 0}";
},
{
name = top;
position = "{1167, 1350}";
}
);
layerId = "E5A4176B-9C10-4B01-BBC9-D7999ECBFAF8";
paths = (
{
closed = 1;
nodes = (
"217 1350 LINE",
"775 1350 LINE",
"737 1132 LINE",
"1569 1132 LINE",
"1853 1132 OFFCURVE",
"1969 1012 OFFCURVE",
"1930 786 CURVE SMOOTH",
"1893 578 LINE SMOOTH",
"1848 322 OFFCURVE",
"1715 228 OFFCURVE",
"1409 228 CURVE SMOOTH",
"577 228 LINE",
"537 0 LINE",
"-21 0 LINE"
);
},
{
closed = 1;
nodes = (
"1271 588 LINE",
"1325 588 OFFCURVE",
"1341 624 OFFCURVE",
"1345 646 CURVE SMOOTH",
"1357 712 LINE SMOOTH",
"1361 736 OFFCURVE",
"1355 772 OFFCURVE",
"1303 772 CURVE",
"673 772 LINE",
"641 588 LINE"
);
}
);
width = 2045;
}
);
leftKerningGroup = H;
note = Thorn;
rightKerningGroup = Thorn;
unicode = 00DE;
},
{
color = 6;
glyphname = Q;
lastChange = "2022-02-25 13:22:32 +0000";
layers = (
{
anchors = (
{
name = bottom;
position = "{97, 0}";
},
{
name = center;
position = "{91, 675}";
},
{
name = ogonek;
position = "{92, 0}";
},
{
name = top;
position = "{97, 1350}";
},
{
name = topleft;
position = "{20, 1350}";
},
{
name = topright;
position = "{142, 1216}";
}
);
layerId = "A1A0948C-E637-4A65-8CCC-05505AD98C44";
paths = (
{
closed = 1;
nodes = (
"88 8 LINE",
"104 22 LINE",
"180 -84 LINE",
"164 -96 LINE"
);
},
{
closed = 1;
nodes = (
"28 -8 OFFCURVE",
"28 240 OFFCURVE",
"28 674 QCURVE SMOOTH",
"28 1106 OFFCURVE",
"28 1356 OFFCURVE",
"86 1356 QCURVE SMOOTH",
"144 1356 OFFCURVE",
"144 1104 OFFCURVE",
"144 674 QCURVE SMOOTH",
"144 240 OFFCURVE",
"144 -8 OFFCURVE",
"86 -8 QCURVE SMOOTH"
);
},
{
closed = 1;
nodes = (
"122 14 OFFCURVE",
"122 246 OFFCURVE",
"122 674 QCURVE SMOOTH",
"122 1100 OFFCURVE",
"122 1334 OFFCURVE",
"86 1334 QCURVE SMOOTH",
"50 1334 OFFCURVE",
"50 1100 OFFCURVE",
"50 674 QCURVE SMOOTH",
"50 246 OFFCURVE",
"50 14 OFFCURVE",
"86 14 QCURVE SMOOTH"
);
}
);
width = 210;
},
{
anchors = (
{
name = bottom;
position = "{373, 0}";
},
{
name = center;
position = "{368, 675}";
},
{
name = ogonek;
position = "{389, 0}";
},
{
name = top;
position = "{373, 1350}";
},
{
name = topleft;
position = "{20, 1350}";
},
{
name = topright;
position = "{716, 1180}";
}
);
layerId = "BA0CA162-2A9B-49EE-921D-3B4346C7D39F";
paths = (
{
closed = 1;
nodes = (
"324 132 LINE",
"570 232 LINE",
"716 -114 LINE",
"474 -218 LINE"
);
},
{
closed = 1;
nodes = (
"12 -8 OFFCURVE",
"12 316 OFFCURVE",
"12 676 QCURVE SMOOTH",
"12 1036 OFFCURVE",
"12 1362 OFFCURVE",
"368 1362 QCURVE SMOOTH",
"724 1362 OFFCURVE",
"724 1036 OFFCURVE",
"724 676 QCURVE SMOOTH",
"724 316 OFFCURVE",
"724 -8 OFFCURVE",
"368 -8 QCURVE SMOOTH"
);
},
{
closed = 1;
nodes = (
"380 246 OFFCURVE",
"380 294 OFFCURVE",
"380 676 QCURVE SMOOTH",
"380 1068 OFFCURVE",
"380 1108 OFFCURVE",
"368 1108 QCURVE SMOOTH",
"356 1108 OFFCURVE",
"356 1068 OFFCURVE",
"356 676 QCURVE SMOOTH",
"356 294 OFFCURVE",
"356 246 OFFCURVE",
"368 246 QCURVE SMOOTH"
);
}
);
width = 736;
},
{
anchors = (
{
name = bottom;
position = "{1109, 0}";
},
{
name = center;
position = "{1130, 675}";
},
{
name = ogonek;
position = "{1152, 0}";
},
{
name = top;
position = "{1109, 1350}";
},
{
name = topleft;
position = "{50, 1350}";
},
{
name = topright;
position = "{1746, 1232}";
}
);
layerId = "C75D3228-2D13-4E9D-9829-45195F4951D0";
paths = (
{
closed = 1;
nodes = (
"1294 114 LINE",
"1720 322 LINE",
"2130 -150 LINE",
"1730 -390 LINE"
);
},
{
closed = 1;
nodes = (
"662 -16 OFFCURVE",
"80 334 OFFCURVE",
"80 674 QCURVE SMOOTH",
"80 1014 OFFCURVE",
"662 1362 OFFCURVE",
"1126 1362 QCURVE SMOOTH",
"1590 1362 OFFCURVE",
"2172 1014 OFFCURVE",
"2172 674 QCURVE SMOOTH",
"2172 334 OFFCURVE",
"1590 -16 OFFCURVE",
"1126 -16 QCURVE SMOOTH"
);
},
{
closed = 1;
nodes = (
"1342 346 OFFCURVE",
"1606 512 OFFCURVE",
"1606 674 QCURVE SMOOTH",
"1606 836 OFFCURVE",
"1342 1000 OFFCURVE",
"1126 1000 QCURVE SMOOTH",
"910 1000 OFFCURVE",
"646 836 OFFCURVE",
"646 674 QCURVE SMOOTH",
"646 512 OFFCURVE",
"910 346 OFFCURVE",
"1126 346 QCURVE SMOOTH"
);
}
);
width = 2259;
},
{
anchors = (
{
name = bottom;
position = "{1026, 0}";
},
{
name = center;
position = "{1064, 675}";
},
{
name = ogonek;
position = "{1080, 0}";
},
{
name = top;
position = "{1026, 1350}";
},
{
name = topleft;
position = "{118, 1350}";
},
{
name = topright;
position = "{1648, 1224}";
}
);
layerId = "71977205-6510-4B11-BB00-17BACA883C8F";
paths = (
{
closed = 1;
nodes = (
"1657 141 LINE",
"1675 158 LINE",
"1955 -192 LINE",
"1934 -209 LINE"
);
},
{
closed = 1;
nodes = (
"663 -8 OFFCURVE",
"142 341 OFFCURVE",
"142 676 QCURVE SMOOTH",
"142 1011 OFFCURVE",
"662 1363 OFFCURVE",
"1060 1363 QCURVE SMOOTH",
"1458 1363 OFFCURVE",
"1979 1012 OFFCURVE",
"1979 676 QCURVE SMOOTH",
"1979 341 OFFCURVE",
"1458 -8 OFFCURVE",
"1060 -8 QCURVE SMOOTH"
);
},
{
closed = 1;
nodes = (
"1452 14 OFFCURVE",
"1955 354 OFFCURVE",
"1955 676 QCURVE SMOOTH",
"1955 999 OFFCURVE",
"1452 1341 OFFCURVE",
"1060 1341 QCURVE SMOOTH",
"669 1341 OFFCURVE",
"166 999 OFFCURVE",
"166 676 QCURVE SMOOTH",
"166 354 OFFCURVE",
"669 14 OFFCURVE",
"1060 14 QCURVE SMOOTH"
);
}
);
width = 2173;
},
{
anchors = (
{
name = bottom;
position = "{810, 0}";
},
{
name = center;
position = "{1047, 675}";
},
{
name = ogonek;
position = "{938, 0}";
},
{
name = top;
position = "{1049, 1350}";
},
{
name = topleft;
position = "{248, 1350}";
},
{
name = topright;
position = "{1737, 1224}";
}
);
layerId = "5997A0D0-E78E-41EC-9011-DECBEAD8517D";
paths = (
{
closed = 1;
nodes = (
"1519 124 LINE",
"1539 140 LINE",
"1715 -140 LINE",
"1693 -156 LINE"
);
},
{
closed = 1;
nodes = (
"536 -8 OFFCURVE",
"73 341 OFFCURVE",
"132 676 QCURVE SMOOTH",
"191 1011 OFFCURVE",
"769 1363 OFFCURVE",
"1167 1363 QCURVE SMOOTH",
"1565 1363 OFFCURVE",
"2028 1012 OFFCURVE",
"1969 676 QCURVE SMOOTH",
"1910 341 OFFCURVE",
"1331 -8 OFFCURVE",
"933 -8 QCURVE SMOOTH"
);
},
{
closed = 1;
nodes = (
"1325 14 OFFCURVE",
"1888 354 OFFCURVE",
"1945 676 QCURVE SMOOTH",
"2002 999 OFFCURVE",
"1559 1341 OFFCURVE",
"1167 1341 QCURVE SMOOTH",
"776 1341 OFFCURVE",
"213 999 OFFCURVE",
"156 676 QCURVE SMOOTH",
"99 354 OFFCURVE",
"542 14 OFFCURVE",
"933 14 QCURVE SMOOTH"
);
}
);
width = 2172;
},
{
anchors = (
{
name = bottom;
position = "{276, 0}";
},
{
name = center;
position = "{389, 675}";
},
{
name = ogonek;
position = "{285, 0}";
},
{
name = top;
position = "{515, 1350}";
},
{
name = topleft;
position = "{162, 1350}";
},
{
name = topright;
position = "{820, 1180}";
}
);
layerId = "55C4185A-9C39-4468-B19C-DE0A3E571700";
paths = (
{
closed = 1;
nodes = (
"249 142 LINE",
"513 222 LINE",
"598 -124 LINE",
"337 -208 LINE"
);
},
{
closed = 1;
nodes = (
"-94 -8 OFFCURVE",
"-37 316 OFFCURVE",
"27 676 QCURVE SMOOTH",
"90 1036 OFFCURVE",
"148 1362 OFFCURVE",
"504 1362 QCURVE SMOOTH",
"860 1362 OFFCURVE",
"802 1036 OFFCURVE",
"739 676 QCURVE SMOOTH",
"675 316 OFFCURVE",
"618 -8 OFFCURVE",
"262 -8 QCURVE SMOOTH"
);
},
{
closed = 1;
nodes = (
"319 246 OFFCURVE",
"327 294 OFFCURVE",
"395 676 QCURVE SMOOTH",
"464 1068 OFFCURVE",
"471 1108 OFFCURVE",
"459 1108 QCURVE SMOOTH",
"447 1108 OFFCURVE",
"440 1068 OFFCURVE",
"371 676 QCURVE SMOOTH",
"303 294 OFFCURVE",
"295 246 OFFCURVE",
"307 246 QCURVE SMOOTH"
);
}
);
width = 736;
},
{
anchors = (
{
name = bottom;
position = "{2, 0}";
},
{
name = center;
position = "{114, 675}";
},
{
name = ogonek;
position = "{-9, 0}";
},
{
name = top;
position = "{241, 1350}";
},
{
name = topleft;
position = "{161, 1350}";
},
{
name = topright;
position = "{259, 1216}";
}
);
layerId = "4F53612F-C4F8-4368-83AD-8913BEEF8F1D";
paths = (
{
closed = 1;
nodes = (
"-6 8 LINE",
"14 22 LINE",
"72 -84 LINE",
"54 -96 LINE"
);
},
{
closed = 1;
nodes = (
"-70 -8 OFFCURVE",
"-27 240 OFFCURVE",
"50 674 QCURVE SMOOTH",
"126 1106 OFFCURVE",
"170 1356 OFFCURVE",
"228 1356 QCURVE SMOOTH",
"286 1356 OFFCURVE",
"242 1104 OFFCURVE",
"166 674 QCURVE SMOOTH",
"89 240 OFFCURVE",
"46 -8 OFFCURVE",
"-12 -8 QCURVE SMOOTH"
);
},
{
closed = 1;
nodes = (
"28 14 OFFCURVE",
"69 246 OFFCURVE",
"144 674 QCURVE SMOOTH",
"219 1100 OFFCURVE",
"260 1334 OFFCURVE",
"224 1334 QCURVE SMOOTH",
"188 1334 OFFCURVE",
"147 1100 OFFCURVE",
"72 674 QCURVE SMOOTH",
"-3 246 OFFCURVE",
"-44 14 OFFCURVE",
"-8 14 QCURVE SMOOTH"
);
}
);
width = 214;
},
{
anchors = (
{
name = bottom;
position = "{1013, 0}";
},
{
name = center;
position = "{1114, 675}";
},
{
name = ogonek;
position = "{1020, 0}";
},
{
name = top;
position = "{1252, 1350}";
},
{
name = topleft;
position = "{163, 1350}";
},
{
name = topright;
position = "{1852, 1232}";
}
);
layerId = "E5A4176B-9C10-4B01-BBC9-D7999ECBFAF8";
paths = (
{
closed = 1;
nodes = (
"1169 114 LINE",
"1631 322 LINE",
"1959 -150 LINE",
"1517 -390 LINE"
);
},
{
closed = 1;
nodes = (
"560 -16 OFFCURVE",
"39 344 OFFCURVE",
"79 674 QCURVE SMOOTH",
"121 1017 OFFCURVE",
"762 1362 OFFCURVE",
"1226 1362 QCURVE SMOOTH",
"1690 1362 OFFCURVE",
"2211 1004 OFFCURVE",
"2171 674 QCURVE SMOOTH",
"2129 331 OFFCURVE",
"1488 -16 OFFCURVE",
"1024 -16 QCURVE SMOOTH"
);
},
{
closed = 1;
nodes = (
"1283 346 OFFCURVE",
"1577 512 OFFCURVE",
"1605 674 QCURVE SMOOTH",
"1634 836 OFFCURVE",
"1399 1000 OFFCURVE",
"1183 1000 QCURVE SMOOTH",
"967 1000 OFFCURVE",
"674 836 OFFCURVE",
"645 674 QCURVE SMOOTH",
"617 512 OFFCURVE",
"851 346 OFFCURVE",
"1067 346 QCURVE SMOOTH"
);
}
);
width = 2259;
}
);
leftKerningGroup = O;
leftMetricsKey = O;
note = Q;
rightKerningGroup = O;
rightMetricsKey = O;
unicode = 0051;
},
{
color = 6;
glyphname = R;
lastChange = "2022-02-25 13:22:32 +0000";
layers = (
{
anchors = (
{
name = bottom;
position = "{89, 0}";
},
{
name = top;
position = "{89, 1350}";
}
);
layerId = "A1A0948C-E637-4A65-8CCC-05505AD98C44";
paths = (
{
closed = 1;
nodes = (
"28 1350 LINE",
"68 1350 LINE SMOOTH",
"134 1350 OFFCURVE",
"134 1124 OFFCURVE",
"134 990 QCURVE SMOOTH",
"134 856 OFFCURVE",
"134 632 OFFCURVE",
"68 632 QCURVE SMOOTH",
"50 632 LINE",
"50 0 LINE",
"28 0 LINE"
);
},
{
closed = 1;
nodes = (
"86 638 LINE",
"108 660 LINE",
"140 0 LINE",
"118 0 LINE"
);
},
{
closed = 1;
nodes = (
"68 654 LINE SMOOTH",
"112 654 OFFCURVE",
"112 856 OFFCURVE",
"112 990 QCURVE SMOOTH",
"112 1124 OFFCURVE",
"112 1328 OFFCURVE",
"68 1328 QCURVE SMOOTH",
"50 1328 LINE",
"50 654 LINE"
);
}
);
width = 172;
},
{
anchors = (
{
name = bottom;
position = "{375, 0}";
},
{
name = top;
position = "{375, 1350}";
}
);
layerId = "BA0CA162-2A9B-49EE-921D-3B4346C7D39F";
paths = (
{
closed = 1;
nodes = (
"12 1350 LINE",
"510 1350 LINE SMOOTH",
"736 1350 OFFCURVE",
"736 1056 OFFCURVE",
"736 944 QCURVE SMOOTH",
"736 836 OFFCURVE",
"736 580 OFFCURVE",
"512 580 QCURVE SMOOTH",
"362 580 LINE",
"362 0 LINE",
"12 0 LINE"
);
},
{
closed = 1;
nodes = (
"369 612 LINE",
"697 642 LINE",
"751 0 LINE",
"401 0 LINE"
);
},
{
closed = 1;
nodes = (
"366 794 LINE SMOOTH",
"386 794 OFFCURVE",
"386 868 OFFCURVE",
"386 944 QCURVE SMOOTH",
"386 1020 OFFCURVE",
"386 1096 OFFCURVE",
"366 1096 QCURVE SMOOTH",
"362 1096 LINE",
"362 794 LINE"
);
}
);
width = 751;
},
{
anchors = (
{
name = bottom;
position = "{1050, 0}";
},
{
name = top;
position = "{1050, 1350}";
}
);
layerId = "C75D3228-2D13-4E9D-9829-45195F4951D0";
paths = (
{
closed = 1;
nodes = (
"140 1350 LINE",
"1392 1350 LINE SMOOTH",
"1664 1350 OFFCURVE",
"1994 1132 OFFCURVE",
"1994 888 QCURVE SMOOTH",
"1994 646 OFFCURVE",
"1644 424 OFFCURVE",
"1352 424 QCURVE SMOOTH",
"706 424 LINE",
"706 0 LINE",
"140 0 LINE"
);
},
{
closed = 1;
nodes = (
"834 630 LINE",
"1410 630 LINE",
"2046 0 LINE",
"1406 0 LINE"
);
},
{
closed = 1;
nodes = (
"1230 764 LINE SMOOTH",
"1334 764 OFFCURVE",
"1428 816 OFFCURVE",
"1428 876 QCURVE SMOOTH",
"1428 934 OFFCURVE",
"1334 988 OFFCURVE",
"1230 988 QCURVE SMOOTH",
"706 988 LINE",
"706 764 LINE"
);
}
);
width = 2146;
},
{
anchors = (
{
name = bottom;
position = "{863, 0}";
},
{
name = top;
position = "{863, 1350}";
}
);
layerId = "71977205-6510-4B11-BB00-17BACA883C8F";
paths = (
{
closed = 1;
nodes = (
"150 1350 LINE",
"1117 1350 LINE SMOOTH",
"1369 1350 OFFCURVE",
"1604 1166 OFFCURVE",
"1604 1000 QCURVE SMOOTH",
"1604 834 OFFCURVE",
"1369 647 OFFCURVE",
"1117 647 QCURVE SMOOTH",
"172 647 LINE",
"172 0 LINE",
"150 0 LINE"
);
},
{
closed = 1;
nodes = (
"1105 657 LINE",
"1133 657 LINE",
"1589 0 LINE",
"1561 0 LINE"
);
},
{
closed = 1;
nodes = (
"1115 669 LINE SMOOTH",
"1363 669 OFFCURVE",
"1580 843 OFFCURVE",
"1580 1000 QCURVE SMOOTH",
"1580 1157 OFFCURVE",
"1362 1328 OFFCURVE",
"1115 1328 QCURVE SMOOTH",
"172 1328 LINE",
"172 669 LINE"
);
}
);
width = 1804;
},
{
anchors = (
{
name = bottom;
position = "{636, 0}";
},
{
name = top;
position = "{875, 1350}";
}
);
layerId = "5997A0D0-E78E-41EC-9011-DECBEAD8517D";
paths = (
{
closed = 1;
nodes = (
"269 1350 LINE",
"1233 1350 LINE SMOOTH",
"1485 1350 OFFCURVE",
"1691 1166 OFFCURVE",
"1661 1000 QCURVE SMOOTH",
"1632 834 OFFCURVE",
"1366 647 OFFCURVE",
"1114 647 QCURVE SMOOTH",
"167 647 LINE",
"53 0 LINE",
"31 0 LINE"
);
},
{
closed = 1;
nodes = (
"1105 657 LINE",
"1130 657 LINE",
"1470 0 LINE",
"1445 0 LINE"
);
},
{
closed = 1;
nodes = (
"1114 669 LINE SMOOTH",
"1358 669 OFFCURVE",
"1610 843 OFFCURVE",
"1637 1000 QCURVE SMOOTH",
"1665 1157 OFFCURVE",
"1481 1328 OFFCURVE",
"1232 1328 QCURVE SMOOTH",
"287 1328 LINE",
"171 669 LINE"
);
}
);
width = 1804;
},
{
anchors = (
{
name = bottom;
position = "{265, 0}";
},
{
name = top;
position = "{504, 1350}";
}
);
layerId = "55C4185A-9C39-4468-B19C-DE0A3E571700";
paths = (
{
closed = 1;
nodes = (
"148 1350 LINE",
"646 1350 LINE SMOOTH",
"872 1350 OFFCURVE",
"820 1056 OFFCURVE",
"800 944 QCURVE SMOOTH",
"781 836 OFFCURVE",
"736 580 OFFCURVE",
"512 580 QCURVE SMOOTH",
"362 580 LINE",
"260 0 LINE",
"-90 0 LINE"
);
},
{
closed = 1;
nodes = (
"375 612 LINE",
"708 642 LINE",
"649 0 LINE",
"299 0 LINE"
);
},
{
closed = 1;
nodes = (
"404 794 LINE SMOOTH",
"424 794 OFFCURVE",
"437 868 OFFCURVE",
"450 944 QCURVE SMOOTH",
"464 1020 OFFCURVE",
"477 1096 OFFCURVE",
"457 1096 QCURVE SMOOTH",
"453 1096 LINE",
"400 794 LINE"
);
}
);
width = 751;
},
{
anchors = (
{
name = bottom;
position = "{-10, 0}";
},
{
name = top;
position = "{229, 1350}";
}
);
layerId = "4F53612F-C4F8-4368-83AD-8913BEEF8F1D";
paths = (
{
closed = 1;
nodes = (
"170 1350 LINE",
"210 1350 LINE SMOOTH",
"276 1350 OFFCURVE",
"236 1124 OFFCURVE",
"213 990 QCURVE SMOOTH",
"189 856 OFFCURVE",
"149 632 OFFCURVE",
"83 632 QCURVE SMOOTH",
"65 632 LINE",
"-46 0 LINE",
"-68 0 LINE"
);
},
{
closed = 1;
nodes = (
"102 638 LINE",
"128 660 LINE",
"44 0 LINE",
"22 0 LINE"
);
},
{
closed = 1;
nodes = (
"87 654 LINE SMOOTH",
"131 654 OFFCURVE",
"167 856 OFFCURVE",
"191 990 QCURVE SMOOTH",
"214 1124 OFFCURVE",
"250 1328 OFFCURVE",
"206 1328 QCURVE SMOOTH",
"188 1328 LINE",
"69 654 LINE"
);
}
);
width = 167;
},
{
anchors = (
{
name = bottom;
position = "{946, 0}";
},
{
name = top;
position = "{1185, 1350}";
}
);
layerId = "E5A4176B-9C10-4B01-BBC9-D7999ECBFAF8";
paths = (
{
closed = 1;
nodes = (
"280 1350 LINE",
"1532 1350 LINE SMOOTH",
"1804 1350 OFFCURVE",
"2086 1122 OFFCURVE",
"2053 888 QCURVE SMOOTH",
"2019 644 OFFCURVE",
"1621 424 OFFCURVE",
"1329 424 QCURVE SMOOTH",
"683 424 LINE",
"608 0 LINE",
"42 0 LINE"
);
},
{
closed = 1;
nodes = (
"847 630 LINE",
"1423 630 LINE",
"1948 0 LINE",
"1308 0 LINE"
);
},
{
closed = 1;
nodes = (
"1267 764 LINE SMOOTH",
"1371 764 OFFCURVE",
"1474 816 OFFCURVE",
"1484 876 QCURVE SMOOTH",
"1495 934 OFFCURVE",
"1410 988 OFFCURVE",
"1306 988 QCURVE SMOOTH",
"782 988 LINE",
"743 764 LINE"
);
}
);
width = 2147;
}
);
leftKerningGroup = H;
leftMetricsKey = H;
note = R;
rightKerningGroup = R;
unicode = 0052;
},
{
color = 6;
glyphname = S;
lastChange = "2022-02-25 13:22:32 +0000";
layers = (
{
anchors = (
{
name = bottom;
position = "{88, 0}";
},
{
name = top;
position = "{88, 1350}";
}
);
layerId = "A1A0948C-E637-4A65-8CCC-05505AD98C44";
paths = (
{
closed = 1;
nodes = (
"24 -12 OFFCURVE",
"24 194 OFFCURVE",
"24 554 QCURVE",
"46 554 LINE",
"46 194 OFFCURVE",
"46 10 OFFCURVE",
"82 10 QCURVE SMOOTH",
"120 10 OFFCURVE",
"120 194 OFFCURVE",
"120 300 QCURVE SMOOTH",
"120 474 OFFCURVE",
"120 629 OFFCURVE",
"78 670 QCURVE SMOOTH",
"26 720 OFFCURVE",
"26 880 OFFCURVE",
"26 1040 QCURVE SMOOTH",
"26 1138 OFFCURVE",
"26 1356 OFFCURVE",
"84 1356 QCURVE SMOOTH",
"142 1356 OFFCURVE",
"142 1136 OFFCURVE",
"142 796 QCURVE",
"120 796 LINE",
"120 1136 OFFCURVE",
"120 1334 OFFCURVE",
"84 1334 QCURVE SMOOTH",
"48 1334 OFFCURVE",
"48 1136 OFFCURVE",
"48 1040 QCURVE SMOOTH",
"48 892 OFFCURVE",
"48 732 OFFCURVE",
"88 692 QCURVE SMOOTH",
"142 638 OFFCURVE",
"142 480 OFFCURVE",
"142 300 QCURVE SMOOTH",
"142 194 OFFCURVE",
"142 -12 OFFCURVE",
"82 -12 QCURVE SMOOTH"
);
}
);
width = 176;
},
{
anchors = (
{
name = bottom;
position = "{374, 0}";
},
{
name = top;
position = "{374, 1350}";
}
);
layerId = "BA0CA162-2A9B-49EE-921D-3B4346C7D39F";
paths = (
{
closed = 1;
nodes = (
"12 -8 OFFCURVE",
"12 308 OFFCURVE",
"12 468 QCURVE",
"360 468 LINE",
"360 280 OFFCURVE",
"360 244 OFFCURVE",
"372 244 QCURVE SMOOTH",
"384 244 OFFCURVE",
"384 280 OFFCURVE",
"384 356 QCURVE SMOOTH",
"384 440 OFFCURVE",
"364 496 OFFCURVE",
"288 532 QCURVE SMOOTH",
"94 624 OFFCURVE",
"12 762 OFFCURVE",
"12 924 QCURVE SMOOTH",
"12 1046 OFFCURVE",
"12 1362 OFFCURVE",
"374 1362 QCURVE",
"732 1362 OFFCURVE",
"732 1030 OFFCURVE",
"732 890 QCURVE",
"384 890 LINE",
"384 1074 OFFCURVE",
"384 1110 OFFCURVE",
"372 1110 QCURVE SMOOTH",
"360 1110 OFFCURVE",
"360 1074 OFFCURVE",
"360 1006 QCURVE SMOOTH",
"360 896 OFFCURVE",
"384 852 OFFCURVE",
"472 810 QCURVE SMOOTH",
"652 724 OFFCURVE",
"736 604 OFFCURVE",
"736 442 QCURVE SMOOTH",
"736 320 OFFCURVE",
"736 -8 OFFCURVE",
"372 -8 QCURVE SMOOTH"
);
}
);
width = 748;
},
{
anchors = (
{
name = bottom;
position = "{1099, 0}";
},
{
name = top;
position = "{1099, 1350}";
}
);
layerId = "C75D3228-2D13-4E9D-9829-45195F4951D0";
paths = (
{
closed = 1;
nodes = (
"638 -8 OFFCURVE",
"94 226 OFFCURVE",
"94 482 QCURVE",
"660 482 LINE",
"660 422 OFFCURVE",
"920 352 OFFCURVE",
"1088 352 QCURVE SMOOTH",
"1254 352 OFFCURVE",
"1514 390 OFFCURVE",
"1514 426 QCURVE SMOOTH",
"1514 468 OFFCURVE",
"1138 492 OFFCURVE",
"876 508 QCURVE SMOOTH",
"456 534 OFFCURVE",
"96 703 OFFCURVE",
"96 896 QCURVE SMOOTH",
"96 1144 OFFCURVE",
"646 1362 OFFCURVE",
"1074 1362 QCURVE SMOOTH",
"1504 1362 OFFCURVE",
"2060 1126 OFFCURVE",
"2060 874 QCURVE",
"1494 874 LINE",
"1494 934 OFFCURVE",
"1220 1002 OFFCURVE",
"1066 1002 QCURVE SMOOTH",
"890 1002 OFFCURVE",
"630 955 OFFCURVE",
"630 920 QCURVE SMOOTH",
"630 884 OFFCURVE",
"1016 855 OFFCURVE",
"1260 840 QCURVE SMOOTH",
"1716 812 OFFCURVE",
"2060 652 OFFCURVE",
"2060 470 QCURVE SMOOTH",
"2060 208 OFFCURVE",
"1526 -8 OFFCURVE",
"1094 -8 QCURVE SMOOTH"
);
}
);
width = 2198;
},
{
anchors = (
{
name = bottom;
position = "{897, 0}";
},
{
name = top;
position = "{897, 1350}";
}
);
layerId = "71977205-6510-4B11-BB00-17BACA883C8F";
paths = (
{
closed = 1;
nodes = (
"504 -7 OFFCURVE",
"115 215 OFFCURVE",
"115 483 QCURVE",
"140 483 LINE",
"140 231 OFFCURVE",
"517 15 OFFCURVE",
"893 15 QCURVE SMOOTH",
"1263 15 OFFCURVE",
"1652 176 OFFCURVE",
"1652 332 QCURVE SMOOTH",
"1652 481 OFFCURVE",
"1235 600 OFFCURVE",
"883 675 QCURVE SMOOTH",
"529 750 OFFCURVE",
"115 885 OFFCURVE",
"115 1049 QCURVE SMOOTH",
"115 1215 OFFCURVE",
"526 1363 OFFCURVE",
"895 1363 QCURVE",
"1287 1363 OFFCURVE",
"1676 1152 OFFCURVE",
"1676 893 QCURVE",
"1652 893 LINE",
"1652 1145 OFFCURVE",
"1267 1341 OFFCURVE",
"895 1341 QCURVE SMOOTH",
"530 1341 OFFCURVE",
"139 1197 OFFCURVE",
"139 1049 QCURVE SMOOTH",
"139 899 OFFCURVE",
"550 768 OFFCURVE",
"898 695 QCURVE SMOOTH",
"1255 620 OFFCURVE",
"1676 495 OFFCURVE",
"1676 332 QCURVE SMOOTH",
"1676 159 OFFCURVE",
"1269 -7 OFFCURVE",
"893 -7 QCURVE SMOOTH"
);
}
);
width = 1891;
},
{
anchors = (
{
name = bottom;
position = "{782, 0}";
},
{
name = top;
position = "{1012, 1341}";
}
);
layerId = "5997A0D0-E78E-41EC-9011-DECBEAD8517D";
paths = (
{
closed = 1;
nodes = (
"388 -7 OFFCURVE",
"43 215 OFFCURVE",
"81 483 QCURVE",
"106 483 LINE",
"71 229 OFFCURVE",
"400 15 OFFCURVE",
"776 15 QCURVE SMOOTH",
"1146 15 OFFCURVE",
"1574 174 OFFCURVE",
"1591 332 QCURVE SMOOTH",
"1607 481 OFFCURVE",
"1222 600 OFFCURVE",
"883 675 QCURVE SMOOTH",
"543 750 OFFCURVE",
"163 885 OFFCURVE",
"180 1049 QCURVE SMOOTH",
"197 1217 OFFCURVE",
"643 1363 OFFCURVE",
"1012 1363 QCURVE",
"1404 1363 OFFCURVE",
"1750 1152 OFFCURVE",
"1714 893 QCURVE",
"1690 893 LINE",
"1724 1145 OFFCURVE",
"1384 1341 OFFCURVE",
"1012 1341 QCURVE SMOOTH",
"647 1341 OFFCURVE",
"220 1199 OFFCURVE",
"204 1049 QCURVE SMOOTH",
"188 899 OFFCURVE",
"567 768 OFFCURVE",
"902 695 QCURVE SMOOTH",
"1246 620 OFFCURVE",
"1630 495 OFFCURVE",
"1615 332 QCURVE SMOOTH",
"1599 157 OFFCURVE",
"1153 -7 OFFCURVE",
"777 -7 QCURVE SMOOTH"
);
}
);
width = 1891;
},
{
anchors = (
{
name = bottom;
position = "{273, 0}";
},
{
name = top;
position = "{512, 1350}";
}
);
layerId = "55C4185A-9C39-4468-B19C-DE0A3E571700";
paths = (
{
closed = 1;
nodes = (
"-89 -8 OFFCURVE",
"-33 308 OFFCURVE",
"-5 468 QCURVE",
"343 468 LINE",
"310 280 OFFCURVE",
"304 244 OFFCURVE",
"316 244 QCURVE SMOOTH",
"328 244 OFFCURVE",
"334 280 OFFCURVE",
"347 356 QCURVE SMOOTH",
"362 440 OFFCURVE",
"352 496 OFFCURVE",
"282 532 QCURVE SMOOTH",
"105 624 OFFCURVE",
"47 762 OFFCURVE",
"76 924 QCURVE SMOOTH",
"97 1046 OFFCURVE",
"153 1362 OFFCURVE",
"515 1362 QCURVE",
"873 1362 OFFCURVE",
"814 1030 OFFCURVE",
"790 890 QCURVE",
"442 890 LINE",
"474 1074 OFFCURVE",
"480 1110 OFFCURVE",
"468 1110 QCURVE SMOOTH",
"456 1110 OFFCURVE",
"450 1074 OFFCURVE",
"438 1006 QCURVE SMOOTH",
"419 896 OFFCURVE",
"435 852 OFFCURVE",
"515 810 QCURVE SMOOTH",
"680 724 OFFCURVE",
"743 604 OFFCURVE",
"715 442 QCURVE SMOOTH",
"693 320 OFFCURVE",
"635 -8 OFFCURVE",
"271 -8 QCURVE SMOOTH"
);
}
);
width = 748;
},
{
anchors = (
{
name = bottom;
position = "{-9, 0}";
},
{
name = top;
position = "{230, 1350}";
}
);
layerId = "4F53612F-C4F8-4368-83AD-8913BEEF8F1D";
paths = (
{
closed = 1;
nodes = (
"-76 -12 OFFCURVE",
"-40 194 OFFCURVE",
"26 554 QCURVE",
"48 554 LINE",
"-18 194 OFFCURVE",
"-50 10 OFFCURVE",
"-14 10 QCURVE SMOOTH",
"26 10 OFFCURVE",
"56 194 OFFCURVE",
"76 300 QCURVE SMOOTH",
"108 468 OFFCURVE",
"132 624 OFFCURVE",
"98 670 QCURVE SMOOTH",
"58 724 OFFCURVE",
"82 880 OFFCURVE",
"112 1040 QCURVE SMOOTH",
"130 1138 OFFCURVE",
"168 1356 OFFCURVE",
"226 1356 QCURVE SMOOTH",
"284 1356 OFFCURVE",
"246 1136 OFFCURVE",
"186 796 QCURVE",
"164 796 LINE",
"224 1136 OFFCURVE",
"258 1334 OFFCURVE",
"222 1334 QCURVE SMOOTH",
"186 1334 OFFCURVE",
"150 1136 OFFCURVE",
"134 1040 QCURVE SMOOTH",
"110 892 OFFCURVE",
"80 734 OFFCURVE",
"112 690 QCURVE SMOOTH",
"156 632 OFFCURVE",
"133 487 OFFCURVE",
"98 300 QCURVE SMOOTH",
"78 194 OFFCURVE",
"44 -12 OFFCURVE",
"-18 -12 QCURVE SMOOTH"
);
}
);
width = 176;
},
{
anchors = (
{
name = bottom;
position = "{965, 0}";
},
{
name = top;
position = "{1204, 1350}";
}
);
layerId = "E5A4176B-9C10-4B01-BBC9-D7999ECBFAF8";
paths = (
{
closed = 1;
nodes = (
"518 -8 OFFCURVE",
"14 226 OFFCURVE",
"60 482 QCURVE",
"626 482 LINE",
"614 410 OFFCURVE",
"864 352 OFFCURVE",
"1032 352 QCURVE SMOOTH",
"1198 352 OFFCURVE",
"1464 390 OFFCURVE",
"1470 426 QCURVE SMOOTH",
"1477 468 OFFCURVE",
"1106 492 OFFCURVE",
"846 508 QCURVE SMOOTH",
"412 534 OFFCURVE",
"134 754 OFFCURVE",
"134 896 QCURVE SMOOTH",
"134 1142 OFFCURVE",
"768 1362 OFFCURVE",
"1196 1362 QCURVE SMOOTH",
"1626 1362 OFFCURVE",
"2140 1126 OFFCURVE",
"2096 874 QCURVE",
"1530 874 LINE",
"1542 944 OFFCURVE",
"1286 994 OFFCURVE",
"1132 994 QCURVE SMOOTH",
"956 994 OFFCURVE",
"680 962 OFFCURVE",
"674 926 QCURVE SMOOTH",
"668 889 OFFCURVE",
"1018 860 OFFCURVE",
"1290 840 QCURVE SMOOTH",
"1760 806 OFFCURVE",
"2036 630 OFFCURVE",
"2024 470 QCURVE SMOOTH",
"2004 208 OFFCURVE",
"1406 -8 OFFCURVE",
"974 -8 QCURVE SMOOTH"
);
}
);
width = 2198;
}
);
leftKerningGroup = S;
note = S;
rightKerningGroup = S;
unicode = 0053;
},
{
color = 6;
glyphname = Germandbls;
lastChange = "2022-02-25 13:22:32 +0000";
layers = (
{
anchors = (
{
name = bottom;
position = "{106, 0}";
},
{
name = top;
position = "{106, 1350}";
}
);
layerId = "A1A0948C-E637-4A65-8CCC-05505AD98C44";
paths = (
{
closed = 1;
nodes = (
"28 1350 LINE",
"174 1350 LINE",
"174 1330 LINE",
"96 776 LINE",
"146 698 OFFCURVE",
"174 536 OFFCURVE",
"174 338 CURVE SMOOTH",
"174 86 OFFCURVE",
"136 0 OFFCURVE",
"76 0 CURVE",
"76 22 LINE",
"124 22 OFFCURVE",
"152 106 OFFCURVE",
"152 334 CURVE SMOOTH",
"152 542 OFFCURVE",
"128 680 OFFCURVE",
"76 762 CURVE",
"76 782 LINE",
"152 1330 LINE",
"50 1330 LINE",
"50 0 LINE",
"28 0 LINE"
);
}
);
width = 208;
},
{
anchors = (
{
name = bottom;
position = "{399, 0}";
},
{
name = top;
position = "{399, 1350}";
}
);
layerId = "BA0CA162-2A9B-49EE-921D-3B4346C7D39F";
paths = (
{
closed = 1;
nodes = (
"12 1350 LINE",
"786 1350 LINE",
"786 1128 LINE",
"692 726 LINE",
"770 668 OFFCURVE",
"786 545 OFFCURVE",
"786 418 CURVE SMOOTH",
"786 163 OFFCURVE",
"746 0 OFFCURVE",
"388 0 CURVE",
"388 254 LINE",
"404 254 OFFCURVE",
"430 286 OFFCURVE",
"430 402 CURVE SMOOTH",
"430 506 OFFCURVE",
"404 560 OFFCURVE",
"386 576 CURVE",
"386 830 LINE",
"440 1096 LINE",
"362 1096 LINE",
"362 0 LINE",
"12 0 LINE"
);
}
);
width = 798;
},
{
anchors = (
{
name = bottom;
position = "{1023, 0}";
},
{
name = top;
position = "{1023, 1350}";
}
);
layerId = "C75D3228-2D13-4E9D-9829-45195F4951D0";
paths = (
{
closed = 1;
nodes = (
"140 1350 LINE",
"1786 1350 LINE",
"1786 988 LINE",
"1362 756 LINE",
"1712 756 OFFCURVE",
"1906 676 OFFCURVE",
"1906 418 CURVE SMOOTH",
"1906 136 OFFCURVE",
"1738 0 OFFCURVE",
"888 0 CURVE",
"888 344 LINE",
"1234 344 OFFCURVE",
"1332 356 OFFCURVE",
"1332 462 CURVE SMOOTH",
"1332 564 OFFCURVE",
"1108 566 OFFCURVE",
"888 566 CURVE",
"888 850 LINE",
"1106 966 LINE",
"700 966 LINE",
"700 0 LINE",
"140 0 LINE"
);
}
);
width = 2044;
},
{
anchors = (
{
name = bottom;
position = "{873, 0}";
},
{
name = top;
position = "{873, 1350}";
}
);
layerId = "71977205-6510-4B11-BB00-17BACA883C8F";
paths = (
{
closed = 1;
nodes = (
"150 1350 LINE",
"1416 1350 LINE",
"1416 1330 LINE",
"519 781 LINE",
"1295 792 OFFCURVE",
"1506 721 OFFCURVE",
"1506 384 CURVE SMOOTH",
"1506 86 OFFCURVE",
"1277 -46 OFFCURVE",
"490 0 CURVE",
"490 22 LINE",
"1265 -24 OFFCURVE",
"1484 102 OFFCURVE",
"1484 382 CURVE SMOOTH",
"1484 704 OFFCURVE",
"1286 774 OFFCURVE",
"490 762 CURVE",
"490 787 LINE",
"1379 1330 LINE",
"172 1330 LINE",
"172 0 LINE",
"150 0 LINE"
);
}
);
width = 1721;
},
{
anchors = (
{
name = bottom;
position = "{19, 0}";
},
{
name = top;
position = "{258, 1350}";
}
);
layerId = "4F53612F-C4F8-4368-83AD-8913BEEF8F1D";
paths = (
{
closed = 1;
nodes = (
"172 1350 LINE",
"318 1350 LINE",
"314 1330 LINE",
"138 776 LINE",
"174 698 OFFCURVE",
"172 536 OFFCURVE",
"138 338 CURVE SMOOTH",
"94 86 OFFCURVE",
"40 0 OFFCURVE",
"-20 0 CURVE",
"-16 22 LINE",
"32 22 OFFCURVE",
"76 106 OFFCURVE",
"116 334 CURVE SMOOTH",
"152 542 OFFCURVE",
"152 680 OFFCURVE",
"116 762 CURVE",
"118 782 LINE",
"292 1330 LINE",
"190 1330 LINE",
"-46 0 LINE",
"-68 0 LINE"
);
}
);
width = 210;
},
{
anchors = (
{
name = bottom;
position = "{298, 0}";
},
{
name = top;
position = "{537, 1350}";
}
);
layerId = "55C4185A-9C39-4468-B19C-DE0A3E571700";
paths = (
{
closed = 1;
nodes = (
"148 1350 LINE",
"922 1350 LINE",
"883 1128 LINE",
"718 726 LINE",
"786 668 OFFCURVE",
"780 545 OFFCURVE",
"758 418 CURVE SMOOTH",
"713 163 OFFCURVE",
"644 0 OFFCURVE",
"286 0 CURVE",
"331 254 LINE",
"347 254 OFFCURVE",
"378 286 OFFCURVE",
"399 402 CURVE SMOOTH",
"417 506 OFFCURVE",
"401 560 OFFCURVE",
"386 576 CURVE",
"430 830 LINE",
"531 1096 LINE",
"453 1096 LINE",
"260 0 LINE",
"-90 0 LINE"
);
}
);
width = 795;
},
{
anchors = (
{
name = bottom;
position = "{931, 0}";
},
{
name = top;
position = "{1170, 1350}";
}
);
layerId = "E5A4176B-9C10-4B01-BBC9-D7999ECBFAF8";
paths = (
{
closed = 1;
nodes = (
"280 1350 LINE",
"1926 1350 LINE",
"1862 988 LINE",
"1397 756 LINE",
"1747 756 OFFCURVE",
"1927 676 OFFCURVE",
"1882 418 CURVE SMOOTH",
"1832 136 OFFCURVE",
"1640 0 OFFCURVE",
"790 0 CURVE",
"851 344 LINE",
"1197 344 OFFCURVE",
"1297 356 OFFCURVE",
"1315 462 CURVE SMOOTH",
"1333 564 OFFCURVE",
"1110 566 OFFCURVE",
"890 566 CURVE",
"940 850 LINE",
"1178 966 LINE",
"772 966 LINE",
"602 0 LINE",
"42 0 LINE"
);
}
);
width = 2063;
},
{
anchors = (
{
name = bottom;
position = "{672, 0}";
},
{
name = top;
position = "{911, 1350}";
}
);
layerId = "5997A0D0-E78E-41EC-9011-DECBEAD8517D";
paths = (
{
closed = 1;
nodes = (
"269 1350 LINE",
"1535 1350 LINE",
"1531 1330 LINE",
"541 781 LINE",
"1319 792 OFFCURVE",
"1468 730 OFFCURVE",
"1466 483 CURVE SMOOTH",
"1463 91 OFFCURVE",
"1150 -46 OFFCURVE",
"371 0 CURVE",
"375 22 LINE",
"1142 -24 OFFCURVE",
"1444 110 OFFCURVE",
"1444 483 CURVE SMOOTH",
"1444 715 OFFCURVE",
"1303 774 OFFCURVE",
"505 762 CURVE",
"510 787 LINE",
"1490 1330 LINE",
"287 1330 LINE",
"53 0 LINE",
"31 0 LINE"
);
}
);
width = 1723;
}
);
leftKerningGroup = H;
leftMetricsKey = H;
rightKerningGroup = S;
rightMetricsKey = S;
unicode = 1E9E;
},
{
color = 6;
glyphname = T;
lastChange = "2022-02-25 13:22:32 +0000";
layers = (
{
anchors = (
{
name = bottom;
position = "{73, 0}";
},
{
name = center;
position = "{79, 675}";
},
{
name = top;
position = "{79, 1350}";
}
);
layerId = "A1A0948C-E637-4A65-8CCC-05505AD98C44";
paths = (
{
closed = 1;
nodes = (
"62 1328 LINE",
"16 1328 LINE",
"16 1350 LINE",
"132 1350 LINE",
"132 1328 LINE",
"84 1328 LINE",
"84 0 LINE",
"62 0 LINE"
);
}
);
width = 148;
},
{
anchors = (
{
name = bottom;
position = "{310, 0}";
},
{
name = center;
position = "{310, 675}";
},
{
name = top;
position = "{310, 1350}";
}
);
layerId = "BA0CA162-2A9B-49EE-921D-3B4346C7D39F";
paths = (
{
closed = 1;
nodes = (
"136 1096 LINE",
"12 1096 LINE",
"12 1350 LINE",
"608 1350 LINE",
"608 1096 LINE",
"484 1096 LINE",
"484 0 LINE",
"136 0 LINE"
);
}
);
width = 620;
},
{
anchors = (
{
name = bottom;
position = "{1069, 0}";
},
{
name = center;
position = "{1069, 675}";
},
{
name = top;
position = "{1069, 1350}";
}
);
layerId = "C75D3228-2D13-4E9D-9829-45195F4951D0";
paths = (
{
closed = 1;
nodes = (
"786 988 LINE",
"126 988 LINE",
"126 1350 LINE",
"2010 1350 LINE",
"2010 988 LINE",
"1352 988 LINE",
"1352 0 LINE",
"786 0 LINE"
);
}
);
width = 2137;
},
{
anchors = (
{
name = bottom;
position = "{939, 0}";
},
{
name = center;
position = "{942, 675}";
},
{
name = top;
position = "{942, 1350}";
}
);
layerId = "71977205-6510-4B11-BB00-17BACA883C8F";
paths = (
{
closed = 1;
nodes = (
"930 1328 LINE",
"116 1328 LINE",
"116 1350 LINE",
"1762 1350 LINE",
"1762 1328 LINE",
"952 1328 LINE",
"952 0 LINE",
"930 0 LINE"
);
}
);
width = 1902;
},
{
anchors = (
{
name = bottom;
position = "{768, 0}";
},
{
name = center;
position = "{888, 675}";
},
{
name = top;
position = "{1007, 1350}";
}
);
layerId = "5997A0D0-E78E-41EC-9011-DECBEAD8517D";
paths = (
{
closed = 1;
nodes = (
"995 1328 LINE",
"181 1328 LINE",
"185 1350 LINE",
"1831 1350 LINE",
"1827 1328 LINE",
"1017 1328 LINE",
"783 0 LINE",
"761 0 LINE"
);
}
);
width = 1902;
},
{
anchors = (
{
name = bottom;
position = "{212, 0}";
},
{
name = center;
position = "{332, 675}";
},
{
name = top;
position = "{451, 1350}";
}
);
layerId = "55C4185A-9C39-4468-B19C-DE0A3E571700";
paths = (
{
closed = 1;
nodes = (
"227 1096 LINE",
"103 1096 LINE",
"148 1350 LINE",
"744 1350 LINE",
"699 1096 LINE",
"575 1096 LINE",
"382 0 LINE",
"34 0 LINE"
);
}
);
width = 620;
},
{
anchors = (
{
name = bottom;
position = "{-20, 0}";
},
{
name = center;
position = "{100, 675}";
},
{
name = top;
position = "{219, 1350}";
}
);
layerId = "4F53612F-C4F8-4368-83AD-8913BEEF8F1D";
paths = (
{
closed = 1;
nodes = (
"200 1328 LINE",
"154 1328 LINE",
"156 1350 LINE",
"272 1350 LINE",
"268 1328 LINE",
"222 1328 LINE",
"-12 0 LINE",
"-34 0 LINE"
);
}
);
width = 148;
},
{
anchors = (
{
name = bottom;
position = "{959, 0}";
},
{
name = center;
position = "{1079, 675}";
},
{
name = top;
position = "{1198, 1350}";
}
);
layerId = "E5A4176B-9C10-4B01-BBC9-D7999ECBFAF8";
paths = (
{
closed = 1;
nodes = (
"840 988 LINE",
"180 988 LINE",
"244 1350 LINE",
"2128 1350 LINE",
"2064 988 LINE",
"1406 988 LINE",
"1232 0 LINE",
"666 0 LINE"
);
}
);
width = 2137;
}
);
leftKerningGroup = T;
note = T;
rightKerningGroup = T;
unicode = 0054;
},
{
color = 3;
glyphname = Tbar;
lastChange = "2022-02-25 13:22:32 +0000";
layers = (
{
components = (
{
name = T;
}
);
layerId = "A1A0948C-E637-4A65-8CCC-05505AD98C44";
paths = (
{
closed = 1;
nodes = (
"20 988 LINE",
"130 988 LINE",
"130 966 LINE",
"20 966 LINE"
);
}
);
width = 148;
},
{
components = (
{
name = T;
}
);
layerId = "BA0CA162-2A9B-49EE-921D-3B4346C7D39F";
paths = (
{
closed = 1;
nodes = (
"30 920 LINE",
"580 920 LINE",
"580 696 LINE",
"30 696 LINE"
);
}
);
width = 620;
},
{
components = (
{
name = T;
}
);
layerId = "C75D3228-2D13-4E9D-9829-45195F4951D0";
paths = (
{
closed = 1;
nodes = (
"302 804 LINE",
"1870 804 LINE",
"1870 500 LINE",
"302 500 LINE"
);
}
);
width = 2137;
},
{
components = (
{
name = T;
}
);
layerId = "71977205-6510-4B11-BB00-17BACA883C8F";
paths = (
{
closed = 1;
nodes = (
"239 829 LINE",
"1628 829 LINE",
"1628 807 LINE",
"239 807 LINE"
);
}
);
width = 1902;
},
{
components = (
{
name = T;
}
);
layerId = "5997A0D0-E78E-41EC-9011-DECBEAD8517D";
paths = (
{
closed = 1;
nodes = (
"306 850 LINE",
"1528 850 LINE",
"1524 828 LINE",
"302 828 LINE"
);
}
);
width = 1902;
},
{
components = (
{
name = T;
}
);
layerId = "55C4185A-9C39-4468-B19C-DE0A3E571700";
paths = (
{
closed = 1;
nodes = (
"103 920 LINE",
"651 920 LINE",
"609 696 LINE",
"59 696 LINE"
);
}
);
width = 620;
},
{
components = (
{
name = T;
}
);
layerId = "4F53612F-C4F8-4368-83AD-8913BEEF8F1D";
paths = (
{
closed = 1;
nodes = (
"102 988 LINE",
"212 988 LINE",
"208 966 LINE",
"98 966 LINE"
);
}
);
width = 152;
},
{
components = (
{
name = T;
}
);
layerId = "E5A4176B-9C10-4B01-BBC9-D7999ECBFAF8";
paths = (
{
closed = 1;
nodes = (
"338 804 LINE",
"1906 804 LINE",
"1854 500 LINE",
"286 500 LINE"
);
}
);
width = 2137;
}
);
leftKerningGroup = T;
leftMetricsKey = T;
rightKerningGroup = T;
rightMetricsKey = T;
unicode = 0166;
},
{
color = 6;
glyphname = U;
lastChange = "2022-02-25 13:22:32 +0000";
layers = (
{
anchors = (
{
name = bottom;
position = "{95, 0}";
},
{
name = ogonek;
position = "{97, 0}";
},
{
name = top;
position = "{95, 1350}";
},
{
name = topright;
position = "{147, 1302}";
}
);
layerId = "A1A0948C-E637-4A65-8CCC-05505AD98C44";
paths = (
{
closed = 1;
nodes = (
"60 -12 OFFCURVE",
"32 52 OFFCURVE",
"32 156 QCURVE SMOOTH",
"32 1350 LINE",
"54 1350 LINE",
"54 160 LINE SMOOTH",
"54 60 OFFCURVE",
"72 10 OFFCURVE",
"90 10 QCURVE SMOOTH",
"108 10 OFFCURVE",
"126 60 OFFCURVE",
"126 160 QCURVE SMOOTH",
"126 1350 LINE",
"148 1350 LINE",
"148 156 LINE SMOOTH",
"148 52 OFFCURVE",
"120 -12 OFFCURVE",
"90 -12 QCURVE SMOOTH"
);
}
);
width = 190;
},
{
anchors = (
{
name = bottom;
position = "{372, 0}";
},
{
name = ogonek;
position = "{377, 0}";
},
{
name = top;
position = "{372, 1350}";
},
{
name = topright;
position = "{730, 1252}";
}
);
layerId = "BA0CA162-2A9B-49EE-921D-3B4346C7D39F";
paths = (
{
closed = 1;
nodes = (
"174 -8 OFFCURVE",
"12 120 OFFCURVE",
"12 264 QCURVE SMOOTH",
"12 1350 LINE",
"360 1350 LINE",
"360 312 LINE SMOOTH",
"360 280 OFFCURVE",
"362 246 OFFCURVE",
"372 246 QCURVE SMOOTH",
"382 246 OFFCURVE",
"384 280 OFFCURVE",
"384 312 QCURVE SMOOTH",
"384 1350 LINE",
"732 1350 LINE",
"732 264 LINE SMOOTH",
"732 120 OFFCURVE",
"570 -8 OFFCURVE",
"372 -8 QCURVE SMOOTH"
);
}
);
width = 744;
},
{
anchors = (
{
name = bottom;
position = "{1137, 0}";
},
{
name = ogonek;
position = "{1122, 0}";
},
{
name = top;
position = "{1137, 1350}";
},
{
name = topright;
position = "{2111, 1193}";
}
);
layerId = "C75D3228-2D13-4E9D-9829-45195F4951D0";
paths = (
{
closed = 1;
nodes = (
"630 -8 OFFCURVE",
"130 306 OFFCURVE",
"130 682 QCURVE SMOOTH",
"130 1350 LINE",
"696 1350 LINE",
"696 726 LINE SMOOTH",
"696 528 OFFCURVE",
"890 354 OFFCURVE",
"1122 354 QCURVE SMOOTH",
"1354 354 OFFCURVE",
"1548 526 OFFCURVE",
"1548 726 QCURVE SMOOTH",
"1548 1350 LINE",
"2114 1350 LINE",
"2114 682 LINE SMOOTH",
"2114 306 OFFCURVE",
"1614 -8 OFFCURVE",
"1122 -8 QCURVE SMOOTH"
);
}
);
width = 2273;
},
{
anchors = (
{
name = bottom;
position = "{998, 0}";
},
{
name = ogonek;
position = "{996, 0}";
},
{
name = top;
position = "{998, 1350}";
},
{
name = topright;
position = "{1787, 1192}";
}
);
layerId = "71977205-6510-4B11-BB00-17BACA883C8F";
paths = (
{
closed = 1;
nodes = (
"627 -7 OFFCURVE",
"205 289 OFFCURVE",
"205 612 QCURVE SMOOTH",
"205 1348 LINE",
"227 1348 LINE",
"227 627 LINE SMOOTH",
"227 309 OFFCURVE",
"627 15 OFFCURVE",
"997 15 QCURVE SMOOTH",
"1367 15 OFFCURVE",
"1767 309 OFFCURVE",
"1767 627 QCURVE SMOOTH",
"1767 1348 LINE",
"1789 1348 LINE",
"1789 612 LINE SMOOTH",
"1789 289 OFFCURVE",
"1367 -7 OFFCURVE",
"997 -7 QCURVE SMOOTH"
);
}
);
width = 2070;
},
{
anchors = (
{
name = bottom;
position = "{887, 0}";
},
{
name = ogonek;
position = "{854, 0}";
},
{
name = top;
position = "{1131, 1350}";
},
{
name = topright;
position = "{1859, 1192}";
}
);
layerId = "5997A0D0-E78E-41EC-9011-DECBEAD8517D";
paths = (
{
closed = 1;
nodes = (
"488 -7 OFFCURVE",
"118 289 OFFCURVE",
"175 612 QCURVE SMOOTH",
"304 1348 LINE",
"326 1348 LINE",
"199 627 LINE SMOOTH",
"143 309 OFFCURVE",
"491 15 OFFCURVE",
"861 15 QCURVE SMOOTH",
"1231 15 OFFCURVE",
"1683 309 OFFCURVE",
"1739 627 QCURVE SMOOTH",
"1866 1348 LINE",
"1888 1348 LINE",
"1759 612 LINE SMOOTH",
"1702 289 OFFCURVE",
"1228 -7 OFFCURVE",
"858 -7 QCURVE SMOOTH"
);
}
);
width = 2070;
},
{
anchors = (
{
name = bottom;
position = "{273, 0}";
},
{
name = ogonek;
position = "{284, 0}";
},
{
name = top;
position = "{512, 1350}";
},
{
name = topright;
position = "{842, 1252}";
}
);
layerId = "55C4185A-9C39-4468-B19C-DE0A3E571700";
paths = (
{
closed = 1;
nodes = (
"70 -8 OFFCURVE",
"-69 120 OFFCURVE",
"-44 264 QCURVE SMOOTH",
"148 1350 LINE",
"496 1350 LINE",
"313 312 LINE SMOOTH",
"307 280 OFFCURVE",
"303 246 OFFCURVE",
"313 246 QCURVE SMOOTH",
"323 246 OFFCURVE",
"331 280 OFFCURVE",
"337 312 QCURVE SMOOTH",
"520 1350 LINE",
"868 1350 LINE",
"676 264 LINE SMOOTH",
"651 120 OFFCURVE",
"466 -8 OFFCURVE",
"268 -8 QCURVE SMOOTH"
);
}
);
width = 744;
},
{
anchors = (
{
name = bottom;
position = "{-10, 0}";
},
{
name = ogonek;
position = "{1, 0}";
},
{
name = top;
position = "{236, 1350}";
},
{
name = topright;
position = "{281, 1302}";
}
);
layerId = "4F53612F-C4F8-4368-83AD-8913BEEF8F1D";
paths = (
{
closed = 1;
nodes = (
"-40 -12 OFFCURVE",
"-56 52 OFFCURVE",
"-38 156 QCURVE SMOOTH",
"174 1350 LINE",
"196 1350 LINE",
"-16 160 LINE SMOOTH",
"-34 60 OFFCURVE",
"-24 10 OFFCURVE",
"-6 10 QCURVE SMOOTH",
"14 10 OFFCURVE",
"40 60 OFFCURVE",
"58 160 QCURVE SMOOTH",
"268 1350 LINE",
"290 1350 LINE",
"80 156 LINE SMOOTH",
"62 52 OFFCURVE",
"21 -12 OFFCURVE",
"-10 -12 QCURVE SMOOTH"
);
}
);
width = 190;
},
{
anchors = (
{
name = bottom;
position = "{1042, 0}";
},
{
name = ogonek;
position = "{1022, 0}";
},
{
name = top;
position = "{1271, 1350}";
},
{
name = topright;
position = "{2206, 1193}";
}
);
layerId = "E5A4176B-9C10-4B01-BBC9-D7999ECBFAF8";
paths = (
{
closed = 1;
nodes = (
"518 -8 OFFCURVE",
"74 306 OFFCURVE",
"140 682 QCURVE SMOOTH",
"258 1350 LINE",
"824 1350 LINE",
"714 726 LINE SMOOTH",
"677 518 OFFCURVE",
"823 354 OFFCURVE",
"1074 354 QCURVE SMOOTH",
"1326 354 OFFCURVE",
"1529 516 OFFCURVE",
"1566 726 QCURVE SMOOTH",
"1676 1350 LINE",
"2242 1350 LINE",
"2124 682 LINE SMOOTH",
"2058 306 OFFCURVE",
"1502 -8 OFFCURVE",
"1010 -8 QCURVE SMOOTH"
);
}
);
width = 2273;
}
);
leftKerningGroup = U;
note = U;
rightKerningGroup = U;
unicode = 0055;
},
{
color = 6;
glyphname = V;
lastChange = "2022-02-25 13:22:32 +0000";
layers = (
{
anchors = (
{
name = bottom;
position = "{92, 0}";
},
{
name = top;
position = "{92, 1350}";
}
);
layerId = "A1A0948C-E637-4A65-8CCC-05505AD98C44";
paths = (
{
closed = 1;
nodes = (
"12 1350 LINE",
"34 1350 LINE",
"83 22 LINE",
"85 22 LINE",
"134 1350 LINE",
"156 1350 LINE",
"103 0 LINE",
"65 0 LINE"
);
}
);
width = 174;
},
{
anchors = (
{
name = bottom;
position = "{386, 0}";
},
{
name = top;
position = "{386, 1350}";
}
);
layerId = "BA0CA162-2A9B-49EE-921D-3B4346C7D39F";
paths = (
{
closed = 1;
nodes = (
"10 1350 LINE",
"366 1350 LINE",
"384 250 LINE",
"388 250 LINE",
"408 1350 LINE",
"762 1350 LINE",
"662 0 LINE",
"110 0 LINE"
);
}
);
width = 772;
},
{
anchors = (
{
name = bottom;
position = "{1116, 0}";
},
{
name = top;
position = "{1116, 1350}";
}
);
layerId = "C75D3228-2D13-4E9D-9829-45195F4951D0";
paths = (
{
closed = 1;
nodes = (
"80 1350 LINE",
"652 1350 LINE",
"1124 270 LINE",
"1100 270 LINE",
"1568 1350 LINE",
"2140 1350 LINE",
"1496 0 LINE",
"726 0 LINE"
);
}
);
width = 2232;
},
{
anchors = (
{
name = bottom;
position = "{931, 0}";
},
{
name = top;
position = "{931, 1350}";
}
);
layerId = "71977205-6510-4B11-BB00-17BACA883C8F";
paths = (
{
closed = 1;
nodes = (
"107 1350 LINE",
"134 1350 LINE",
"934 10 LINE",
"931 10 LINE",
"1734 1350 LINE",
"1760 1350 LINE",
"951 0 LINE",
"912 0 LINE"
);
}
);
width = 1934;
},
{
anchors = (
{
name = bottom;
position = "{799, 0}";
},
{
name = top;
position = "{998, 1350}";
}
);
layerId = "5997A0D0-E78E-41EC-9011-DECBEAD8517D";
paths = (
{
closed = 1;
nodes = (
"216 1350 LINE",
"241 1350 LINE",
"805 10 LINE",
"802 10 LINE",
"1841 1350 LINE",
"1869 1350 LINE",
"822 0 LINE",
"783 0 LINE"
);
}
);
width = 1934;
},
{
anchors = (
{
name = bottom;
position = "{291, 0}";
},
{
name = top;
position = "{530, 1350}";
}
);
layerId = "55C4185A-9C39-4468-B19C-DE0A3E571700";
paths = (
{
closed = 1;
nodes = (
"149 1350 LINE",
"500 1350 LINE",
"324 250 LINE",
"328 250 LINE",
"542 1350 LINE",
"901 1350 LINE",
"563 0 LINE",
"11 0 LINE"
);
}
);
width = 772;
},
{
anchors = (
{
name = bottom;
position = "{-16, 0}";
},
{
name = top;
position = "{226, 1350}";
}
);
layerId = "4F53612F-C4F8-4368-83AD-8913BEEF8F1D";
paths = (
{
closed = 1;
nodes = (
"150 1350 LINE",
"172 1350 LINE",
"-15 22 LINE",
"-13 22 LINE",
"272 1350 LINE",
"294 1350 LINE",
"1 0 LINE",
"-37 0 LINE"
);
}
);
width = 174;
},
{
anchors = (
{
name = bottom;
position = "{1011, 0}";
},
{
name = top;
position = "{1250, 1350}";
}
);
layerId = "E5A4176B-9C10-4B01-BBC9-D7999ECBFAF8";
paths = (
{
closed = 1;
nodes = (
"186 1350 LINE",
"752 1350 LINE",
"1032 270 LINE",
"1008 270 LINE",
"1668 1350 LINE",
"2248 1350 LINE",
"1366 0 LINE",
"594 0 LINE"
);
}
);
width = 2232;
}
);
leftKerningGroup = V;
note = V;
rightKerningGroup = V;
unicode = 0056;
},
{
color = 6;
glyphname = V.ss01;
lastChange = "2022-02-25 13:22:32 +0000";
layers = (
{
anchors = (
{
name = bottom;
position = "{92, 0}";
},
{
name = top;
position = "{92, 1350}";
}
);
layerId = "A1A0948C-E637-4A65-8CCC-05505AD98C44";
paths = (
{
closed = 1;
nodes = (
"12 924 LINE",
"12 1350 LINE",
"34 1350 LINE",
"34 924 LINE",
"80 22 LINE",
"88 22 LINE",
"134 924 LINE",
"134 1350 LINE",
"156 1350 LINE",
"156 924 LINE",
"106 0 LINE",
"62 0 LINE"
);
}
);
width = 174;
},
{
anchors = (
{
name = bottom;
position = "{388, 0}";
},
{
name = top;
position = "{388, 1350}";
}
);
layerId = "BA0CA162-2A9B-49EE-921D-3B4346C7D39F";
paths = (
{
closed = 1;
nodes = (
"12 751 LINE",
"12 1350 LINE",
"368 1350 LINE",
"368 857 LINE",
"384 250 LINE",
"392 250 LINE",
"410 857 LINE",
"410 1350 LINE",
"764 1350 LINE",
"764 751 LINE",
"674 0 LINE",
"102 0 LINE"
);
}
);
width = 776;
},
{
anchors = (
{
name = bottom;
position = "{934, 0}";
},
{
name = top;
position = "{933, 1350}";
}
);
layerId = "71977205-6510-4B11-BB00-17BACA883C8F";
paths = (
{
closed = 1;
nodes = (
"107 727 LINE",
"107 1350 LINE",
"129 1350 LINE",
"129 739 LINE",
"934 10 LINE",
"931 10 LINE",
"1738 739 LINE",
"1738 1350 LINE",
"1760 1350 LINE",
"1760 727 LINE",
"951 0 LINE",
"912 0 LINE"
);
}
);
width = 1934;
},
{
anchors = (
{
name = bottom;
position = "{1116, 0}";
},
{
name = top;
position = "{1116, 1350}";
}
);
layerId = "C75D3228-2D13-4E9D-9829-45195F4951D0";
paths = (
{
closed = 1;
nodes = (
"80 725 LINE",
"80 1350 LINE",
"646 1350 LINE",
"646 815 LINE",
"1124 270 LINE",
"1100 270 LINE",
"1574 815 LINE",
"1574 1350 LINE",
"2140 1350 LINE",
"2140 725 LINE",
"1496 0 LINE",
"726 0 LINE"
);
}
);
width = 2232;
},
{
anchors = (
{
name = bottom;
position = "{-19, 0}";
},
{
name = top;
position = "{219, 1350}";
}
);
layerId = "4F53612F-C4F8-4368-83AD-8913BEEF8F1D";
paths = (
{
closed = 1;
nodes = (
"76 924 LINE",
"151 1350 LINE",
"173 1350 LINE",
"98 924 LINE",
"-15 22 LINE",
"-7 22 LINE",
"198 924 LINE",
"273 1350 LINE",
"295 1350 LINE",
"220 924 LINE",
"7 0 LINE",
"-37 0 LINE"
);
}
);
width = 174;
},
{
anchors = (
{
name = bottom;
position = "{282, 0}";
},
{
name = top;
position = "{520, 1350}";
}
);
layerId = "55C4185A-9C39-4468-B19C-DE0A3E571700";
paths = (
{
closed = 1;
nodes = (
"42 751 LINE",
"148 1350 LINE",
"504 1350 LINE",
"417 857 LINE",
"322 250 LINE",
"330 250 LINE",
"459 857 LINE",
"546 1350 LINE",
"900 1350 LINE",
"794 751 LINE",
"572 0 LINE",
"0 0 LINE"
);
}
);
width = 776;
},
{
anchors = (
{
name = bottom;
position = "{817, 0}";
},
{
name = top;
position = "{1053, 1350}";
}
);
layerId = "5997A0D0-E78E-41EC-9011-DECBEAD8517D";
paths = (
{
closed = 1;
nodes = (
"116 727 LINE",
"226 1350 LINE",
"248 1350 LINE",
"139 740 LINE",
"815 10 LINE",
"812 10 LINE",
"1747 738 LINE",
"1857 1350 LINE",
"1879 1350 LINE",
"1769 727 LINE",
"832 0 LINE",
"793 0 LINE"
);
}
);
width = 1934;
},
{
anchors = (
{
name = bottom;
position = "{1013, 0}";
},
{
name = top;
position = "{1251, 1350}";
}
);
layerId = "E5A4176B-9C10-4B01-BBC9-D7999ECBFAF8";
paths = (
{
closed = 1;
nodes = (
"89 725 LINE",
"199 1350 LINE",
"765 1350 LINE",
"671 815 LINE",
"1053 270 LINE",
"1029 270 LINE",
"1599 815 LINE",
"1693 1350 LINE",
"2259 1350 LINE",
"2149 725 LINE",
"1377 0 LINE",
"607 0 LINE"
);
}
);
width = 2232;
}
);
leftKerningGroup = V;
rightKerningGroup = V;
},
{
color = 6;
glyphname = W;
lastChange = "2022-02-25 13:22:32 +0000";
layers = (
{
anchors = (
{
name = bottom;
position = "{163, 0}";
},
{
name = top;
position = "{163, 1350}";
}
);
layerId = "A1A0948C-E637-4A65-8CCC-05505AD98C44";
paths = (
{
closed = 1;
nodes = (
"28 1350 LINE",
"50 1350 LINE",
"84 20 LINE",
"88 20 LINE",
"136 1350 LINE",
"180 1350 LINE",
"226 20 LINE",
"230 20 LINE",
"266 1350 LINE",
"288 1350 LINE",
"250 0 LINE",
"206 0 LINE",
"160 1328 LINE",
"156 1328 LINE",
"108 0 LINE",
"64 0 LINE"
);
}
);
width = 326;
},
{
anchors = (
{
name = bottom;
position = "{609, 0}";
},
{
name = top;
position = "{609, 1350}";
}
);
layerId = "BA0CA162-2A9B-49EE-921D-3B4346C7D39F";
paths = (
{
closed = 1;
nodes = (
"8 1350 LINE",
"366 1350 LINE",
"366 254 LINE",
"370 254 LINE",
"430 1350 LINE",
"788 1350 LINE",
"848 254 LINE",
"852 254 LINE",
"852 1350 LINE",
"1210 1350 LINE",
"1144 0 LINE",
"638 0 LINE",
"612 1086 LINE",
"608 1086 LINE",
"580 0 LINE",
"74 0 LINE"
);
}
);
width = 1218;
},
{
anchors = (
{
name = bottom;
position = "{1610, 0}";
},
{
name = top;
position = "{1610, 1350}";
}
);
layerId = "C75D3228-2D13-4E9D-9829-45195F4951D0";
paths = (
{
closed = 1;
nodes = (
"52 1350 LINE",
"678 1350 LINE",
"928 294 LINE",
"868 294 LINE",
"1172 1350 LINE",
"2002 1350 LINE",
"2306 294 LINE",
"2246 294 LINE",
"2514 1350 LINE",
"3140 1350 LINE",
"2730 0 LINE",
"1844 0 LINE",
"1568 1070 LINE",
"1606 1070 LINE",
"1326 0 LINE",
"444 0 LINE"
);
}
);
width = 3220;
},
{
anchors = (
{
name = bottom;
position = "{1375, 0}";
},
{
name = top;
position = "{1375, 1350}";
}
);
layerId = "71977205-6510-4B11-BB00-17BACA883C8F";
paths = (
{
closed = 1;
nodes = (
"129 1350 LINE",
"156 1350 LINE",
"686 25 LINE",
"687 25 LINE",
"1334 1350 LINE",
"1367 1350 LINE",
"2018 25 LINE",
"2019 25 LINE",
"2546 1350 LINE",
"2573 1350 LINE",
"2034 0 LINE",
"2003 0 LINE",
"1352 1328 LINE",
"1350 1328 LINE",
"701 0 LINE",
"670 0 LINE"
);
}
);
width = 2750;
},
{
anchors = (
{
name = bottom;
position = "{1232, 0}";
},
{
name = top;
position = "{1471, 1350}";
}
);
layerId = "5997A0D0-E78E-41EC-9011-DECBEAD8517D";
paths = (
{
closed = 1;
nodes = (
"248 1350 LINE",
"274 1350 LINE",
"570 25 LINE",
"571 25 LINE",
"1452 1350 LINE",
"1485 1350 LINE",
"1902 25 LINE",
"1903 25 LINE",
"2664 1350 LINE",
"2692 1350 LINE",
"1915 0 LINE",
"1884 0 LINE",
"1467 1328 LINE",
"1465 1328 LINE",
"582 0 LINE",
"551 0 LINE"
);
}
);
width = 2750;
},
{
anchors = (
{
name = bottom;
position = "{494, 0}";
},
{
name = top;
position = "{733, 1350}";
}
);
layerId = "55C4185A-9C39-4468-B19C-DE0A3E571700";
paths = (
{
closed = 1;
nodes = (
"140 1350 LINE",
"493 1350 LINE",
"300 254 LINE",
"304 254 LINE",
"557 1350 LINE",
"915 1350 LINE",
"782 254 LINE",
"786 254 LINE",
"979 1350 LINE",
"1342 1350 LINE",
"1038 0 LINE",
"532 0 LINE",
"697 1086 LINE",
"693 1086 LINE",
"474 0 LINE",
"-32 0 LINE"
);
}
);
width = 1218;
},
{
anchors = (
{
name = bottom;
position = "{69, 0}";
},
{
name = top;
position = "{308, 1350}";
}
);
layerId = "4F53612F-C4F8-4368-83AD-8913BEEF8F1D";
paths = (
{
closed = 1;
nodes = (
"172 1350 LINE",
"194 1350 LINE",
"-8 20 LINE",
"-4 20 LINE",
"278 1350 LINE",
"324 1350 LINE",
"134 20 LINE",
"138 20 LINE",
"410 1350 LINE",
"432 1350 LINE",
"154 0 LINE",
"110 0 LINE",
"300 1328 LINE",
"296 1328 LINE",
"12 0 LINE",
"-32 0 LINE"
);
}
);
width = 326;
},
{
anchors = (
{
name = bottom;
position = "{1494, 0}";
},
{
name = top;
position = "{1733, 1350}";
}
);
layerId = "E5A4176B-9C10-4B01-BBC9-D7999ECBFAF8";
paths = (
{
closed = 1;
nodes = (
"171 1350 LINE",
"797 1350 LINE",
"861 294 LINE",
"801 294 LINE",
"1291 1350 LINE",
"2121 1350 LINE",
"2239 294 LINE",
"2179 294 LINE",
"2633 1350 LINE",
"3259 1350 LINE",
"2611 0 LINE",
"1725 0 LINE",
"1638 1070 LINE",
"1676 1070 LINE",
"1207 0 LINE",
"325 0 LINE"
);
}
);
width = 3220;
}
);
leftKerningGroup = W;
note = W;
rightKerningGroup = W;
unicode = 0057;
},
{
color = 6;
glyphname = X;
lastChange = "2022-02-25 13:22:32 +0000";
layers = (
{
anchors = (
{
name = bottom;
position = "{95, 0}";
},
{
name = top;
position = "{95, 1350}";
}
);
layerId = "A1A0948C-E637-4A65-8CCC-05505AD98C44";
paths = (
{
closed = 1;
nodes = (
"69 668 LINE",
"20 1350 LINE",
"42 1350 LINE",
"90 680 LINE",
"140 1350 LINE",
"162 1350 LINE",
"111 668 LINE",
"164 0 LINE",
"142 0 LINE",
"90 656 LINE",
"38 0 LINE",
"16 0 LINE"
);
}
);
width = 190;
},
{
anchors = (
{
name = bottom;
position = "{404, 0}";
},
{
name = top;
position = "{404, 1350}";
}
);
layerId = "BA0CA162-2A9B-49EE-921D-3B4346C7D39F";
paths = (
{
closed = 1;
nodes = (
"104 668 LINE",
"10 1350 LINE",
"374 1350 LINE",
"404 814 LINE",
"434 1350 LINE",
"798 1350 LINE",
"704 668 LINE",
"804 0 LINE",
"440 0 LINE",
"404 522 LINE",
"368 0 LINE",
"4 0 LINE"
);
}
);
width = 808;
},
{
anchors = (
{
name = bottom;
position = "{1102, 0}";
},
{
name = top;
position = "{1102, 1350}";
}
);
layerId = "C75D3228-2D13-4E9D-9829-45195F4951D0";
paths = (
{
closed = 1;
nodes = (
"722 668 LINE",
"20 1350 LINE",
"704 1350 LINE",
"1102 906 LINE",
"1502 1350 LINE",
"2184 1350 LINE",
"1478 668 LINE",
"2204 0 LINE",
"1522 0 LINE",
"1102 430 LINE",
"684 0 LINE",
"0 0 LINE"
);
}
);
width = 2204;
},
{
anchors = (
{
name = bottom;
position = "{954, 0}";
},
{
name = top;
position = "{954, 1350}";
}
);
layerId = "71977205-6510-4B11-BB00-17BACA883C8F";
paths = (
{
closed = 1;
nodes = (
"885 668 LINE",
"114 1350 LINE",
"150 1350 LINE",
"909 675 LINE",
"1668 1350 LINE",
"1704 1350 LINE",
"933 668 LINE",
"1726 0 LINE",
"1690 0 LINE",
"909 661 LINE",
"128 0 LINE",
"92 0 LINE"
);
}
);
width = 1908;
},
{
anchors = (
{
name = bottom;
position = "{747, 0}";
},
{
name = top;
position = "{986, 1350}";
}
);
layerId = "5997A0D0-E78E-41EC-9011-DECBEAD8517D";
paths = (
{
closed = 1;
nodes = (
"904 668 LINE",
"253 1350 LINE",
"287 1350 LINE",
"929 675 LINE",
"1805 1350 LINE",
"1843 1350 LINE",
"952 668 LINE",
"1625 0 LINE",
"1591 0 LINE",
"927 661 LINE",
"29 0 LINE",
"-9 0 LINE"
);
}
);
width = 1908;
},
{
anchors = (
{
name = bottom;
position = "{303, 0}";
},
{
name = top;
position = "{542, 1350}";
}
);
layerId = "55C4185A-9C39-4468-B19C-DE0A3E571700";
paths = (
{
closed = 1;
nodes = (
"118 668 LINE",
"144 1350 LINE",
"508 1350 LINE",
"444 814 LINE",
"568 1350 LINE",
"932 1350 LINE",
"718 668 LINE",
"700 0 LINE",
"336 0 LINE",
"392 522 LINE",
"264 0 LINE",
"-100 0 LINE"
);
}
);
width = 808;
},
{
anchors = (
{
name = bottom;
position = "{1, 0}";
},
{
name = top;
position = "{240, 1350}";
}
);
layerId = "4F53612F-C4F8-4368-83AD-8913BEEF8F1D";
paths = (
{
closed = 1;
nodes = (
"96 668 LINE",
"164 1350 LINE",
"186 1350 LINE",
"118 682 LINE",
"286 1350 LINE",
"308 1350 LINE",
"134 668 LINE",
"72 0 LINE",
"50 0 LINE",
"112 654 LINE",
"-54 0 LINE",
"-78 0 LINE"
);
}
);
width = 190;
},
{
anchors = (
{
name = bottom;
position = "{1007, 0}";
},
{
name = top;
position = "{1246, 1350}";
}
);
layerId = "E5A4176B-9C10-4B01-BBC9-D7999ECBFAF8";
paths = (
{
closed = 1;
nodes = (
"746 668 LINE",
"166 1350 LINE",
"850 1350 LINE",
"1168 906 LINE",
"1648 1350 LINE",
"2330 1350 LINE",
"1502 668 LINE",
"2110 0 LINE",
"1428 0 LINE",
"1084 430 LINE",
"590 0 LINE",
"-94 0 LINE"
);
}
);
width = 2204;
}
);
leftKerningGroup = X;
note = X;
rightKerningGroup = X;
unicode = 0058;
},
{
color = 6;
glyphname = Y;
lastChange = "2022-02-25 13:22:32 +0000";
layers = (
{
anchors = (
{
name = bottom;
position = "{82, 0}";
},
{
name = top;
position = "{82, 1350}";
},
{
name = topleft;
position = "{10, 1350}";
}
);
layerId = "A1A0948C-E637-4A65-8CCC-05505AD98C44";
paths = (
{
closed = 1;
nodes = (
"13 1350 LINE",
"35 1350 LINE",
"78 619 LINE",
"76 619 LINE",
"119 1350 LINE",
"141 1350 LINE",
"88 508 LINE",
"66 508 LINE"
);
},
{
closed = 1;
nodes = (
"66 530 LINE",
"88 530 LINE",
"88 0 LINE",
"66 0 LINE"
);
}
);
width = 160;
},
{
anchors = (
{
name = bottom;
position = "{398, 0}";
},
{
name = top;
position = "{398, 1350}";
},
{
name = topleft;
position = "{20, 1350}";
}
);
layerId = "BA0CA162-2A9B-49EE-921D-3B4346C7D39F";
paths = (
{
closed = 1;
nodes = (
"3 1350 LINE",
"355 1350 LINE",
"398 802 LINE",
"402 802 LINE",
"443 1350 LINE",
"795 1350 LINE",
"568 388 LINE",
"232 388 LINE"
);
},
{
closed = 1;
nodes = (
"226 674 LINE",
"574 674 LINE",
"574 0 LINE",
"226 0 LINE"
);
}
);
width = 796;
},
{
anchors = (
{
name = bottom;
position = "{1143, 0}";
},
{
name = top;
position = "{1143, 1350}";
},
{
name = topleft;
position = "{20, 1350}";
}
);
layerId = "C75D3228-2D13-4E9D-9829-45195F4951D0";
paths = (
{
closed = 1;
nodes = (
"2 1350 LINE",
"638 1350 LINE",
"1184 822 LINE",
"1110 822 LINE",
"1652 1350 LINE",
"2288 1350 LINE",
"1414 528 LINE",
"878 528 LINE"
);
},
{
closed = 1;
nodes = (
"864 754 LINE",
"1428 754 LINE",
"1428 0 LINE",
"864 0 LINE"
);
}
);
width = 2285;
},
{
anchors = (
{
name = bottom;
position = "{993, 0}";
},
{
name = top;
position = "{953, 1350}";
},
{
name = topleft;
position = "{0, 1350}";
}
);
layerId = "71977205-6510-4B11-BB00-17BACA883C8F";
paths = (
{
closed = 1;
nodes = (
"120 1350 LINE",
"152 1350 LINE",
"954 646 LINE",
"948 646 LINE",
"1750 1350 LINE",
"1782 1350 LINE",
"956 625 LINE",
"947 625 LINE"
);
},
{
closed = 1;
nodes = (
"940 644 LINE",
"962 644 LINE",
"962 0 LINE",
"940 0 LINE"
);
}
);
width = 1962;
},
{
anchors = (
{
name = bottom;
position = "{817, 0}";
},
{
name = top;
position = "{1067, 1350}";
},
{
name = topleft;
position = "{184, 1350}";
}
);
layerId = "5997A0D0-E78E-41EC-9011-DECBEAD8517D";
paths = (
{
closed = 1;
nodes = (
"209 1350 LINE",
"239 1350 LINE",
"917 646 LINE",
"911 646 LINE",
"1837 1350 LINE",
"1871 1350 LINE",
"917 625 LINE",
"908 625 LINE"
);
},
{
closed = 1;
nodes = (
"905 644 LINE",
"927 644 LINE",
"813 0 LINE",
"791 0 LINE"
);
}
);
width = 1962;
},
{
anchors = (
{
name = bottom;
position = "{300, 0}";
},
{
name = top;
position = "{539, 1350}";
},
{
name = topleft;
position = "{164, 1350}";
}
);
layerId = "55C4185A-9C39-4468-B19C-DE0A3E571700";
paths = (
{
closed = 1;
nodes = (
"132 1350 LINE",
"484 1350 LINE",
"430 802 LINE",
"434 802 LINE",
"572 1350 LINE",
"924 1350 LINE",
"527 388 LINE",
"191 388 LINE"
);
},
{
closed = 1;
nodes = (
"236 674 LINE",
"584 674 LINE",
"465 0 LINE",
"117 0 LINE"
);
}
);
width = 792;
},
{
anchors = (
{
name = bottom;
position = "{-9, 0}";
},
{
name = top;
position = "{223, 1350}";
},
{
name = topleft;
position = "{158, 1350}";
}
);
layerId = "4F53612F-C4F8-4368-83AD-8913BEEF8F1D";
paths = (
{
closed = 1;
nodes = (
"157 1350 LINE",
"179 1350 LINE",
"93 619 LINE",
"91 619 LINE",
"263 1350 LINE",
"285 1350 LINE",
"84 508 LINE",
"62 508 LINE"
);
},
{
closed = 1;
nodes = (
"65 530 LINE",
"87 530 LINE",
"-6 0 LINE",
"-28 0 LINE"
);
}
);
width = 160;
},
{
anchors = (
{
name = bottom;
position = "{1035, 0}";
},
{
name = top;
position = "{1274, 1350}";
},
{
name = topleft;
position = "{164, 1350}";
}
);
layerId = "E5A4176B-9C10-4B01-BBC9-D7999ECBFAF8";
paths = (
{
closed = 1;
nodes = (
"111 1350 LINE",
"737 1350 LINE",
"1190 822 LINE",
"1116 822 LINE",
"1751 1350 LINE",
"2397 1350 LINE",
"1378 528 LINE",
"842 528 LINE"
);
},
{
closed = 1;
nodes = (
"868 754 LINE",
"1432 754 LINE",
"1299 0 LINE",
"735 0 LINE"
);
}
);
width = 2285;
}
);
leftKerningGroup = Y;
note = Y;
rightKerningGroup = Y;
unicode = 0059;
},
{
color = 6;
glyphname = Z;
lastChange = "2022-02-25 13:22:32 +0000";
layers = (
{
anchors = (
{
name = bottom;
position = "{74, 0}";
},
{
name = center;
position = "{74, 675}";
},
{
name = top;
position = "{74, 1350}";
}
);
layerId = "A1A0948C-E637-4A65-8CCC-05505AD98C44";
paths = (
{
closed = 1;
nodes = (
"28 20 LINE",
"82 1328 LINE",
"28 1328 LINE",
"28 1350 LINE",
"104 1350 LINE",
"104 1330 LINE",
"50 22 LINE",
"110 22 LINE",
"110 0 LINE",
"28 0 LINE"
);
}
);
width = 148;
},
{
anchors = (
{
name = bottom;
position = "{254, 0}";
},
{
name = center;
position = "{254, 675}";
},
{
name = top;
position = "{254, 1350}";
}
);
layerId = "BA0CA162-2A9B-49EE-921D-3B4346C7D39F";
paths = (
{
closed = 1;
nodes = (
"12 254 LINE",
"178 1100 LINE",
"26 1100 LINE",
"26 1350 LINE",
"494 1350 LINE",
"494 1100 LINE",
"330 250 LINE",
"496 250 LINE",
"496 0 LINE",
"12 0 LINE"
);
}
);
width = 508;
},
{
anchors = (
{
name = bottom;
position = "{998, 0}";
},
{
name = center;
position = "{998, 675}";
},
{
name = top;
position = "{998, 1350}";
}
);
layerId = "C75D3228-2D13-4E9D-9829-45195F4951D0";
paths = (
{
closed = 1;
nodes = (
"98 380 LINE",
"1138 990 LINE",
"114 990 LINE",
"114 1350 LINE",
"1824 1350 LINE",
"1824 984 LINE",
"784 364 LINE",
"1842 364 LINE",
"1842 0 LINE",
"98 0 LINE"
);
}
);
width = 1995;
},
{
anchors = (
{
name = bottom;
position = "{916, 0}";
},
{
name = center;
position = "{916, 675}";
},
{
name = top;
position = "{916, 1350}";
}
);
layerId = "71977205-6510-4B11-BB00-17BACA883C8F";
paths = (
{
closed = 1;
nodes = (
"125 32 LINE",
"1522 1326 LINE",
"139 1326 LINE",
"139 1350 LINE",
"1554 1350 LINE",
"1554 1323 LINE",
"157 24 LINE",
"1636 24 LINE",
"1636 0 LINE",
"125 0 LINE"
);
}
);
width = 1833;
},
{
anchors = (
{
name = bottom;
position = "{711, 0}";
},
{
name = center;
position = "{831, 675}";
},
{
name = top;
position = "{950, 1350}";
}
);
layerId = "5997A0D0-E78E-41EC-9011-DECBEAD8517D";
paths = (
{
closed = 1;
nodes = (
"32 32 LINE",
"1655 1326 LINE",
"274 1326 LINE",
"278 1350 LINE",
"1693 1350 LINE",
"1688 1323 LINE",
"64 24 LINE",
"1541 24 LINE",
"1537 0 LINE",
"26 0 LINE"
);
}
);
width = 1833;
},
{
anchors = (
{
name = bottom;
position = "{157, 0}";
},
{
name = center;
position = "{277, 675}";
},
{
name = top;
position = "{396, 1350}";
}
);
layerId = "55C4185A-9C39-4468-B19C-DE0A3E571700";
paths = (
{
closed = 1;
nodes = (
"-44 254 LINE",
"271 1100 LINE",
"119 1100 LINE",
"163 1350 LINE",
"631 1350 LINE",
"587 1100 LINE",
"273 250 LINE",
"439 250 LINE",
"395 0 LINE",
"-89 0 LINE"
);
}
);
width = 508;
},
{
anchors = (
{
name = bottom;
position = "{-28, 0}";
},
{
name = center;
position = "{92, 675}";
},
{
name = top;
position = "{211, 1350}";
}
);
layerId = "4F53612F-C4F8-4368-83AD-8913BEEF8F1D";
paths = (
{
closed = 1;
nodes = (
"-72 20 LINE",
"216 1328 LINE",
"160 1328 LINE",
"164 1350 LINE",
"242 1350 LINE",
"238 1330 LINE",
"-50 22 LINE",
"14 22 LINE",
"10 0 LINE",
"-76 0 LINE"
);
}
);
width = 148;
},
{
anchors = (
{
name = bottom;
position = "{903, 0}";
},
{
name = center;
position = "{1023, 675}";
},
{
name = top;
position = "{1142, 1350}";
}
);
layerId = "E5A4176B-9C10-4B01-BBC9-D7999ECBFAF8";
paths = (
{
closed = 1;
nodes = (
"46 380 LINE",
"1184 990 LINE",
"170 990 LINE",
"233 1350 LINE",
"1943 1350 LINE",
"1878 984 LINE",
"739 364 LINE",
"1787 364 LINE",
"1723 0 LINE",
"-21 0 LINE"
);
}
);
width = 1995;
}
);
leftKerningGroup = Z;
note = Z;
rightKerningGroup = Z;
unicode = 005A;
},
{
color = 6;
glyphname = a;
lastChange = "2022-02-25 13:22:32 +0000";
layers = (
{
anchors = (
{
name = bottom;
position = "{100, 0}";
},
{
name = ogonek;
position = "{156, 0}";
},
{
name = top;
position = "{101, 1200}";
}
);
layerId = "A1A0948C-E637-4A65-8CCC-05505AD98C44";
paths = (
{
closed = 1;
nodes = (
"41 -6 OFFCURVE",
"36 44 OFFCURVE",
"36 340 CURVE SMOOTH",
"36 632 OFFCURVE",
"41 686 OFFCURVE",
"106 686 CURVE SMOOTH",
"134 686 LINE",
"134 770 LINE SMOOTH",
"134 1092 OFFCURVE",
"132 1190 OFFCURVE",
"97 1190 CURVE SMOOTH",
"62 1190 OFFCURVE",
"58 1092 OFFCURVE",
"58 769 CURVE",
"36 769 LINE",
"36 1121 OFFCURVE",
"40 1212 OFFCURVE",
"97 1212 CURVE SMOOTH",
"154 1212 OFFCURVE",
"156 1121 OFFCURVE",
"156 770 CURVE SMOOTH",
"156 0 LINE",
"136 0 LINE",
"135 39 LINE",
"128 16 OFFCURVE",
"114 -6 OFFCURVE",
"90 -6 CURVE SMOOTH"
);
},
{
closed = 1;
nodes = (
"115 16 OFFCURVE",
"129 60 OFFCURVE",
"134 81 CURVE",
"134 664 LINE",
"110 664 LINE SMOOTH",
"66 664 OFFCURVE",
"58 613 OFFCURVE",
"58 340 CURVE SMOOTH",
"58 68 OFFCURVE",
"66 16 OFFCURVE",
"92 16 CURVE SMOOTH"
);
}
);
width = 200;
},
{
anchors = (
{
name = bottom;
position = "{383, 0}";
},
{
name = ogonek;
position = "{749, 0}";
},
{
name = top;
position = "{392, 1200}";
}
);
layerId = "BA0CA162-2A9B-49EE-921D-3B4346C7D39F";
paths = (
{
closed = 1;
nodes = (
"90 -10 OFFCURVE",
"11 35 OFFCURVE",
"11 360 CURVE SMOOTH",
"11 651 OFFCURVE",
"54 722 OFFCURVE",
"214 722 CURVE SMOOTH",
"399 722 LINE",
"399 774 LINE SMOOTH",
"399 934 OFFCURVE",
"398 955 OFFCURVE",
"386 955 CURVE SMOOTH",
"374 955 OFFCURVE",
"371 935 OFFCURVE",
"371 774 CURVE",
"11 774 LINE",
"11 1139 OFFCURVE",
"139 1211 OFFCURVE",
"387 1211 CURVE SMOOTH",
"635 1211 OFFCURVE",
"749 1141 OFFCURVE",
"749 780 CURVE SMOOTH",
"749 0 LINE",
"495 0 LINE",
"454 81 LINE",
"441 41 OFFCURVE",
"365 -10 OFFCURVE",
"271 -10 CURVE SMOOTH"
);
},
{
closed = 1;
nodes = (
"390 244 OFFCURVE",
"396 249 OFFCURVE",
"399 259 CURVE",
"399 513 LINE",
"392 513 LINE SMOOTH",
"378 513 OFFCURVE",
"366 508 OFFCURVE",
"366 380 CURVE SMOOTH",
"366 258 OFFCURVE",
"372 244 OFFCURVE",
"385 244 CURVE SMOOTH"
);
}
);
width = 762;
},
{
anchors = (
{
name = bottom;
position = "{1075, 0}";
},
{
name = ogonek;
position = "{1980, 0}";
},
{
name = top;
position = "{1026, 1172}";
}
);
layerId = "C75D3228-2D13-4E9D-9829-45195F4951D0";
paths = (
{
closed = 1;
nodes = (
"530 -20 OFFCURVE",
"88 34 OFFCURVE",
"88 362 CURVE SMOOTH",
"88 689 OFFCURVE",
"555 726 OFFCURVE",
"882 726 CURVE SMOOTH",
"1422 726 LINE",
"1422 728 LINE SMOOTH",
"1422 808 OFFCURVE",
"1241 840 OFFCURVE",
"1041 840 CURVE SMOOTH",
"860 840 OFFCURVE",
"694 798 OFFCURVE",
"640 758 CURVE",
"118 1009 LINE",
"225 1081 OFFCURVE",
"611 1184 OFFCURVE",
"1036 1184 CURVE SMOOTH",
"1597 1184 OFFCURVE",
"1980 1030 OFFCURVE",
"1980 673 CURVE SMOOTH",
"1980 0 LINE",
"1484 0 LINE",
"1445 165 LINE",
"1387 58 OFFCURVE",
"1140 -20 OFFCURVE",
"845 -20 CURVE SMOOTH"
);
},
{
closed = 1;
nodes = (
"1115 288 OFFCURVE",
"1391 343 OFFCURVE",
"1421 474 CURVE",
"1443 444 LINE",
"918 444 LINE SMOOTH",
"758 444 OFFCURVE",
"648 430 OFFCURVE",
"648 367 CURVE SMOOTH",
"648 301 OFFCURVE",
"804 288 OFFCURVE",
"938 288 CURVE SMOOTH"
);
}
);
width = 2150;
},
{
anchors = (
{
name = bottom;
position = "{863, 0}";
},
{
name = ogonek;
position = "{1548, 0}";
},
{
name = top;
position = "{850, 1169}";
}
);
layerId = "71977205-6510-4B11-BB00-17BACA883C8F";
paths = (
{
closed = 1;
nodes = (
"442 -11 OFFCURVE",
"142 64 OFFCURVE",
"142 333 CURVE SMOOTH",
"142 595 OFFCURVE",
"444 665 OFFCURVE",
"744 665 CURVE SMOOTH",
"1526 665 LINE",
"1526 773 LINE SMOOTH",
"1526 1013 OFFCURVE",
"1253 1155 OFFCURVE",
"850 1155 CURVE SMOOTH",
"480 1155 OFFCURVE",
"234 1033 OFFCURVE",
"184 830 CURVE",
"159 830 LINE",
"209 1048 OFFCURVE",
"473 1177 OFFCURVE",
"850 1177 CURVE SMOOTH",
"1264 1177 OFFCURVE",
"1548 1026 OFFCURVE",
"1548 777 CURVE SMOOTH",
"1548 0 LINE",
"1526 0 LINE",
"1526 301 LINE",
"1490 198 OFFCURVE",
"1274 -11 OFFCURVE",
"771 -11 CURVE SMOOTH"
);
},
{
closed = 1;
nodes = (
"1232 11 OFFCURVE",
"1468 185 OFFCURVE",
"1526 346 CURVE",
"1526 643 LINE",
"745 643 LINE SMOOTH",
"468 643 OFFCURVE",
"166 582 OFFCURVE",
"166 333 CURVE SMOOTH",
"166 80 OFFCURVE",
"456 11 OFFCURVE",
"771 11 CURVE SMOOTH"
);
}
);
width = 1771;
},
{
anchors = (
{
name = bottom;
position = "{697, 0}";
},
{
name = ogonek;
position = "{1425, 0}";
},
{
name = top;
position = "{950, 1172}";
}
);
layerId = "5997A0D0-E78E-41EC-9011-DECBEAD8517D";
paths = (
{
closed = 1;
nodes = (
"317 -11 OFFCURVE",
"30 64 OFFCURVE",
"78 333 CURVE SMOOTH",
"124 595 OFFCURVE",
"438 665 OFFCURVE",
"738 665 CURVE SMOOTH",
"1520 665 LINE",
"1540 773 LINE SMOOTH",
"1582 1013 OFFCURVE",
"1334 1155 OFFCURVE",
"931 1155 CURVE SMOOTH",
"561 1155 OFFCURVE",
"293 1033 OFFCURVE",
"208 830 CURVE",
"183 830 LINE",
"271 1048 OFFCURVE",
"558 1177 OFFCURVE",
"935 1177 CURVE SMOOTH",
"1349 1177 OFFCURVE",
"1606 1026 OFFCURVE",
"1562 777 CURVE SMOOTH",
"1425 0 LINE",
"1403 0 LINE",
"1456 301 LINE",
"1402 198 OFFCURVE",
"1149 -11 OFFCURVE",
"646 -11 CURVE SMOOTH"
);
},
{
closed = 1;
nodes = (
"1111 11 OFFCURVE",
"1378 185 OFFCURVE",
"1464 346 CURVE",
"1517 643 LINE",
"736 643 LINE SMOOTH",
"459 643 OFFCURVE",
"146 582 OFFCURVE",
"102 333 CURVE SMOOTH",
"57 80 OFFCURVE",
"335 11 OFFCURVE",
"650 11 CURVE SMOOTH"
);
}
);
width = 1771;
},
{
anchors = (
{
name = bottom;
position = "{280, 0}";
},
{
name = ogonek;
position = "{643, 0}";
},
{
name = top;
position = "{501, 1200}";
}
);
layerId = "55C4185A-9C39-4468-B19C-DE0A3E571700";
paths = (
{
closed = 1;
nodes = (
"-18 -10 OFFCURVE",
"-89 35 OFFCURVE",
"-31 360 CURVE SMOOTH",
"20 651 OFFCURVE",
"75 722 OFFCURVE",
"235 722 CURVE SMOOTH",
"420 722 LINE",
"430 774 LINE SMOOTH",
"461 934 OFFCURVE",
"461 955 OFFCURVE",
"449 955 CURVE SMOOTH",
"437 955 OFFCURVE",
"430 935 OFFCURVE",
"402 774 CURVE",
"42 774 LINE",
"106 1139 OFFCURVE",
"247 1211 OFFCURVE",
"495 1211 CURVE SMOOTH",
"743 1211 OFFCURVE",
"845 1141 OFFCURVE",
"781 780 CURVE SMOOTH",
"643 0 LINE",
"389 0 LINE",
"362 81 LINE",
"342 41 OFFCURVE",
"257 -10 OFFCURVE",
"163 -10 CURVE SMOOTH"
);
},
{
closed = 1;
nodes = (
"327 244 OFFCURVE",
"334 249 OFFCURVE",
"339 259 CURVE",
"384 513 LINE",
"377 513 LINE SMOOTH",
"363 513 OFFCURVE",
"350 508 OFFCURVE",
"327 380 CURVE SMOOTH",
"306 258 OFFCURVE",
"309 244 OFFCURVE",
"322 244 CURVE SMOOTH"
);
}
);
width = 762;
},
{
anchors = (
{
name = bottom;
position = "{6, 0}";
},
{
name = ogonek;
position = "{59, 0}";
},
{
name = top;
position = "{214, 1200}";
}
);
layerId = "4F53612F-C4F8-4368-83AD-8913BEEF8F1D";
paths = (
{
closed = 1;
nodes = (
"-57 -6 OFFCURVE",
"-54 44 OFFCURVE",
"-1 340 CURVE SMOOTH",
"50 632 OFFCURVE",
"65 686 OFFCURVE",
"130 686 CURVE SMOOTH",
"158 686 LINE",
"172 770 LINE SMOOTH",
"229 1092 OFFCURVE",
"245 1190 OFFCURVE",
"210 1190 CURVE SMOOTH",
"175 1190 OFFCURVE",
"153 1092 OFFCURVE",
"96 769 CURVE",
"74 769 LINE",
"136 1121 OFFCURVE",
"156 1212 OFFCURVE",
"213 1212 CURVE SMOOTH",
"270 1212 OFFCURVE",
"256 1121 OFFCURVE",
"194 770 CURVE SMOOTH",
"59 0 LINE",
"39 0 LINE",
"45 39 LINE",
"33 16 OFFCURVE",
"16 -6 OFFCURVE",
"-8 -6 CURVE SMOOTH"
);
},
{
closed = 1;
nodes = (
"20 16 OFFCURVE",
"42 60 OFFCURVE",
"51 81 CURVE",
"154 664 LINE",
"130 664 LINE SMOOTH",
"86 664 OFFCURVE",
"69 613 OFFCURVE",
"21 340 CURVE SMOOTH",
"-27 68 OFFCURVE",
"-29 16 OFFCURVE",
"-3 16 CURVE SMOOTH"
);
}
);
width = 200;
},
{
anchors = (
{
name = bottom;
position = "{980, 0}";
},
{
name = ogonek;
position = "{1870, 0}";
},
{
name = top;
position = "{1149, 1172}";
}
);
layerId = "E5A4176B-9C10-4B01-BBC9-D7999ECBFAF8";
paths = (
{
closed = 1;
nodes = (
"417 -20 OFFCURVE",
"4 34 OFFCURVE",
"42 362 CURVE SMOOTH",
"80 692 OFFCURVE",
"573 726 OFFCURVE",
"900 726 CURVE SMOOTH",
"1440 726 LINE",
"1441 728 LINE SMOOTH",
"1477 801 OFFCURVE",
"1279 840 OFFCURVE",
"1079 840 CURVE SMOOTH",
"898 840 OFFCURVE",
"725 798 OFFCURVE",
"664 758 CURVE",
"186 1009 LINE",
"306 1081 OFFCURVE",
"700 1184 OFFCURVE",
"1125 1184 CURVE SMOOTH",
"1686 1184 OFFCURVE",
"2052 1030 OFFCURVE",
"1989 673 CURVE SMOOTH",
"1870 0 LINE",
"1374 0 LINE",
"1364 165 LINE",
"1288 58 OFFCURVE",
"1027 -20 OFFCURVE",
"732 -20 CURVE SMOOTH"
);
},
{
closed = 1;
nodes = (
"1056 288 OFFCURVE",
"1342 343 OFFCURVE",
"1395 474 CURVE",
"1412 444 LINE",
"887 444 LINE SMOOTH",
"727 444 OFFCURVE",
"606 431 OFFCURVE",
"603 367 CURVE SMOOTH",
"600 301 OFFCURVE",
"745 288 OFFCURVE",
"879 288 CURVE SMOOTH"
);
}
);
width = 2150;
}
);
leftKerningGroup = a;
note = a;
rightKerningGroup = n;
unicode = 0061;
},
{
color = 6;
glyphname = a.ss01;
lastChange = "2022-02-25 13:27:12 +0000";
layers = (
{
anchors = (
{
name = bottom;
position = "{103, 0}";
},
{
name = ogonek;
position = "{152, 1}";
},
{
name = top;
position = "{98, 1200}";
}
);
layerId = "A1A0948C-E637-4A65-8CCC-05505AD98C44";
paths = (
{
closed = 1;
nodes = (
"140 1095 LINE",
"140 1200 LINE",
"162 1200 LINE",
"162 0 LINE",
"140 0 LINE"
);
},
{
closed = 1;
nodes = (
"34 -6 OFFCURVE",
"34 238 OFFCURVE",
"34 602 QCURVE SMOOTH",
"34 968 OFFCURVE",
"34 1212 OFFCURVE",
"82 1212 QCURVE SMOOTH",
"115 1212 OFFCURVE",
"148 1106 OFFCURVE",
"148 1056 QCURVE",
"140 1024 LINE",
"140 1068 OFFCURVE",
"105 1190 OFFCURVE",
"84 1190 QCURVE SMOOTH",
"56 1190 OFFCURVE",
"56 960 OFFCURVE",
"56 602 QCURVE SMOOTH",
"56 246 OFFCURVE",
"56 16 OFFCURVE",
"84 16 QCURVE SMOOTH",
"105 16 OFFCURVE",
"140 138 OFFCURVE",
"140 182 QCURVE",
"149 140 LINE",
"149 90 OFFCURVE",
"115 -6 OFFCURVE",
"82 -6 QCURVE SMOOTH"
);
}
);
width = 206;
},
{
anchors = (
{
name = bottom;
position = "{1053, 0}";
},
{
name = ogonek;
position = "{1546, 0}";
},
{
name = top;
position = "{1060, 1172}";
}
);
layerId = "C75D3228-2D13-4E9D-9829-45195F4951D0";
paths = (
{
closed = 1;
nodes = (
"1430 1029 LINE",
"1552 1172 LINE",
"1996 1172 LINE",
"1996 0 LINE",
"1430 0 LINE"
);
},
{
closed = 1;
nodes = (
"524 -10 OFFCURVE",
"80 280 OFFCURVE",
"80 590 QCURVE SMOOTH",
"80 900 OFFCURVE",
"524 1182 OFFCURVE",
"848 1182 QCURVE SMOOTH",
"1187 1182 OFFCURVE",
"1666 935 OFFCURVE",
"1666 870 QCURVE",
"1434 630 LINE",
"1434 690 OFFCURVE",
"1175 820 OFFCURVE",
"1018 820 QCURVE SMOOTH",
"842 820 OFFCURVE",
"650 693 OFFCURVE",
"650 586 QCURVE SMOOTH",
"650 479 OFFCURVE",
"842 352 OFFCURVE",
"1018 352 QCURVE SMOOTH",
"1175 352 OFFCURVE",
"1434 482 OFFCURVE",
"1434 542 QCURVE",
"1646 342 LINE",
"1646 277 OFFCURVE",
"1187 -10 OFFCURVE",
"848 -10 QCURVE SMOOTH"
);
}
);
width = 2196;
},
{
anchors = (
{
name = bottom;
position = "{369, 0}";
},
{
name = ogonek;
position = "{615, 0}";
},
{
name = top;
position = "{369, 1200}";
}
);
layerId = "BA0CA162-2A9B-49EE-921D-3B4346C7D39F";
paths = (
{
closed = 1;
nodes = (
"382 1043 LINE",
"473 1200 LINE",
"726 1200 LINE",
"726 0 LINE",
"382 0 LINE"
);
},
{
closed = 1;
nodes = (
"12 -5 OFFCURVE",
"12 386 OFFCURVE",
"12 602 QCURVE SMOOTH",
"12 818 OFFCURVE",
"12 1207 OFFCURVE",
"218 1207 QCURVE SMOOTH",
"336 1207 OFFCURVE",
"552 1057 OFFCURVE",
"552 857 QCURVE",
"382 739 LINE",
"382 865 OFFCURVE",
"382 955 OFFCURVE",
"368 955 QCURVE SMOOTH",
"354 955 OFFCURVE",
"354 865 OFFCURVE",
"354 602 QCURVE SMOOTH",
"354 334 OFFCURVE",
"354 244 OFFCURVE",
"368 244 QCURVE SMOOTH",
"382 244 OFFCURVE",
"382 334 OFFCURVE",
"382 464 QCURVE",
"512 352 LINE",
"512 152 OFFCURVE",
"336 -5 OFFCURVE",
"218 -5 QCURVE SMOOTH"
);
}
);
width = 738;
},
{
anchors = (
{
name = bottom;
position = "{897, 0}";
},
{
name = ogonek;
position = "{1541, 0}";
},
{
name = top;
position = "{875, 1168}";
}
);
layerId = "71977205-6510-4B11-BB00-17BACA883C8F";
paths = (
{
closed = 1;
nodes = (
"1530 792 LINE",
"1530 1168 LINE",
"1552 1168 LINE",
"1552 0 LINE",
"1530 0 LINE"
);
},
{
closed = 1;
nodes = (
"533 -10 OFFCURVE",
"121 286 OFFCURVE",
"121 586 QCURVE SMOOTH",
"121 886 OFFCURVE",
"533 1182 OFFCURVE",
"837 1182 QCURVE SMOOTH",
"1143 1182 OFFCURVE",
"1536 902 OFFCURVE",
"1536 780 QCURVE",
"1530 703 LINE",
"1530 879 OFFCURVE",
"1131 1160 OFFCURVE",
"837 1160 QCURVE SMOOTH",
"543 1160 OFFCURVE",
"145 876 OFFCURVE",
"145 586 QCURVE SMOOTH",
"145 296 OFFCURVE",
"543 12 OFFCURVE",
"837 12 QCURVE SMOOTH",
"1131 12 OFFCURVE",
"1530 293 OFFCURVE",
"1530 469 QCURVE",
"1536 392 LINE",
"1536 270 OFFCURVE",
"1143 -10 OFFCURVE",
"837 -10 QCURVE SMOOTH"
);
}
);
width = 1752;
},
{
anchors = (
{
name = bottom;
position = "{784, 0}";
},
{
name = ogonek;
position = "{1429, 0}";
},
{
name = top;
position = "{959, 1172}";
}
);
layerId = "5997A0D0-E78E-41EC-9011-DECBEAD8517D";
paths = (
{
closed = 1;
nodes = (
"1546 792 LINE",
"1613 1168 LINE",
"1635 1168 LINE",
"1429 0 LINE",
"1407 0 LINE"
);
},
{
closed = 1;
nodes = (
"408 -10 OFFCURVE",
"48 286 OFFCURVE",
"101 586 QCURVE SMOOTH",
"154 886 OFFCURVE",
"618 1182 OFFCURVE",
"922 1182 QCURVE SMOOTH",
"1228 1182 OFFCURVE",
"1572 902 OFFCURVE",
"1550 780 QCURVE",
"1531 703 LINE",
"1562 879 OFFCURVE",
"1212 1160 OFFCURVE",
"918 1160 QCURVE SMOOTH",
"624 1160 OFFCURVE",
"176 876 OFFCURVE",
"125 586 QCURVE SMOOTH",
"74 296 OFFCURVE",
"422 12 OFFCURVE",
"716 12 QCURVE SMOOTH",
"1010 12 OFFCURVE",
"1458 293 OFFCURVE",
"1489 469 QCURVE",
"1482 392 LINE",
"1460 270 OFFCURVE",
"1018 -10 OFFCURVE",
"712 -10 QCURVE SMOOTH"
);
}
);
width = 1752;
},
{
anchors = (
{
name = bottom;
position = "{270, 0}";
},
{
name = ogonek;
position = "{431, 0}";
},
{
name = top;
position = "{464, 1200}";
}
);
layerId = "55C4185A-9C39-4468-B19C-DE0A3E571700";
paths = (
{
closed = 1;
nodes = (
"463 1043 LINE",
"582 1200 LINE",
"835 1200 LINE",
"623 0 LINE",
"279 0 LINE"
);
},
{
closed = 1;
nodes = (
"-92 -5 OFFCURVE",
"-23 386 OFFCURVE",
"15 602 QCURVE SMOOTH",
"53 818 OFFCURVE",
"122 1207 OFFCURVE",
"328 1207 QCURVE SMOOTH",
"446 1207 OFFCURVE",
"635 1057 OFFCURVE",
"600 857 QCURVE",
"409 739 LINE",
"432 865 OFFCURVE",
"447 955 OFFCURVE",
"433 955 QCURVE SMOOTH",
"419 955 OFFCURVE",
"404 865 OFFCURVE",
"357 602 QCURVE SMOOTH",
"310 334 OFFCURVE",
"294 244 OFFCURVE",
"308 244 QCURVE SMOOTH",
"322 244 OFFCURVE",
"338 334 OFFCURVE",
"361 464 QCURVE",
"471 352 LINE",
"436 152 OFFCURVE",
"232 -5 OFFCURVE",
"114 -5 QCURVE SMOOTH"
);
}
);
width = 733;
},
{
anchors = (
{
name = bottom;
position = "{-5, 0}";
},
{
name = ogonek;
position = "{58, 0}";
},
{
name = top;
position = "{216, 1200}";
}
);
layerId = "4F53612F-C4F8-4368-83AD-8913BEEF8F1D";
paths = (
{
closed = 1;
nodes = (
"238 1095 LINE",
"256 1200 LINE",
"278 1200 LINE",
"67 0 LINE",
"45 0 LINE"
);
},
{
closed = 1;
nodes = (
"-62 -6 OFFCURVE",
"-19 238 OFFCURVE",
"45 602 QCURVE SMOOTH",
"109 968 OFFCURVE",
"152 1212 OFFCURVE",
"200 1212 QCURVE SMOOTH",
"233 1212 OFFCURVE",
"248 1106 OFFCURVE",
"239 1056 QCURVE",
"225 1024 LINE",
"233 1068 OFFCURVE",
"220 1190 OFFCURVE",
"199 1190 QCURVE SMOOTH",
"171 1190 OFFCURVE",
"130 960 OFFCURVE",
"67 602 QCURVE SMOOTH",
"4 246 OFFCURVE",
"-37 16 OFFCURVE",
"-9 16 QCURVE SMOOTH",
"12 16 OFFCURVE",
"69 138 OFFCURVE",
"77 182 QCURVE",
"78 140 LINE",
"70 90 OFFCURVE",
"19 -6 OFFCURVE",
"-14 -6 QCURVE SMOOTH"
);
}
);
width = 205;
},
{
anchors = (
{
name = bottom;
position = "{1002, 0}";
},
{
name = ogonek;
position = "{1437, 0}";
},
{
name = top;
position = "{1192, 1072}";
}
);
layerId = "E5A4176B-9C10-4B01-BBC9-D7999ECBFAF8";
paths = (
{
closed = 1;
nodes = (
"1496 1029 LINE",
"1643 1172 LINE",
"2087 1172 LINE",
"1881 0 LINE",
"1315 0 LINE"
);
},
{
closed = 1;
nodes = (
"407 -10 OFFCURVE",
"14 280 OFFCURVE",
"69 590 QCURVE SMOOTH",
"123 900 OFFCURVE",
"617 1182 OFFCURVE",
"941 1182 QCURVE SMOOTH",
"1280 1182 OFFCURVE",
"1716 935 OFFCURVE",
"1704 870 QCURVE",
"1430 630 LINE",
"1440 690 OFFCURVE",
"1204 820 OFFCURVE",
"1047 820 QCURVE SMOOTH",
"871 820 OFFCURVE",
"657 693 OFFCURVE",
"638 586 QCURVE SMOOTH",
"619 479 OFFCURVE",
"789 352 OFFCURVE",
"965 352 QCURVE SMOOTH",
"1122 352 OFFCURVE",
"1404 482 OFFCURVE",
"1414 542 QCURVE",
"1591 342 LINE",
"1580 277 OFFCURVE",
"1070 -10 OFFCURVE",
"731 -10 QCURVE SMOOTH"
);
}
);
width = 2182;
}
);
leftKerningGroup = o;
leftMetricsKey = d;
rightKerningGroup = l;
rightMetricsKey = d;
},
{
color = 3;
glyphname = ae;
lastChange = "2022-02-25 13:22:32 +0000";
layers = (
{
anchors = (
{
name = bottom;
position = "{151, 0}";
},
{
name = top;
position = "{146, 1200}";
}
);
components = (
{
alignment = -1;
name = e;
transform = "{1, 0, 0, 1, 100, 0}";
}
);
layerId = "A1A0948C-E637-4A65-8CCC-05505AD98C44";
paths = (
{
closed = 1;
nodes = (
"136 104 LINE",
"134 140 LINE",
"134 800 LINE SMOOTH",
"134 986 OFFCURVE",
"134 1188 OFFCURVE",
"96 1188 QCURVE SMOOTH",
"58 1188 OFFCURVE",
"58 986 OFFCURVE",
"58 740 QCURVE",
"36 740 LINE",
"36 992 OFFCURVE",
"36 1210 OFFCURVE",
"96 1210 QCURVE SMOOTH",
"156 1210 OFFCURVE",
"156 992 OFFCURVE",
"156 806 QCURVE SMOOTH",
"156 96 LINE"
);
},
{
closed = 1;
nodes = (
"36 -6 OFFCURVE",
"36 152 OFFCURVE",
"36 276 QCURVE SMOOTH",
"36 468 OFFCURVE",
"36 616 OFFCURVE",
"112 616 QCURVE SMOOTH",
"132 616 OFFCURVE",
"146 616 QCURVE",
"146 594 LINE",
"119 594 OFFCURVE",
"103 594 QCURVE SMOOTH",
"59 594 OFFCURVE",
"58 476 OFFCURVE",
"58 276 QCURVE SMOOTH",
"58 152 OFFCURVE",
"60 16 OFFCURVE",
"86 16 QCURVE SMOOTH",
"108 16 OFFCURVE",
"134 78 OFFCURVE",
"134 192 QCURVE",
"154 192 LINE",
"154 76 OFFCURVE",
"120 -6 OFFCURVE",
"86 -6 QCURVE SMOOTH"
);
}
);
width = 300;
},
{
anchors = (
{
name = bottom;
position = "{568, 0}";
},
{
name = top;
position = "{568, 1200}";
}
);
components = (
{
alignment = -1;
name = e;
transform = "{1, 0, 0, 1, 389, 0}";
}
);
layerId = "BA0CA162-2A9B-49EE-921D-3B4346C7D39F";
paths = (
{
closed = 1;
nodes = (
"467 182 LINE",
"401 182 LINE",
"401 789 LINE SMOOTH",
"401 921 OFFCURVE",
"401 985 OFFCURVE",
"387 985 QCURVE SMOOTH",
"373 985 OFFCURVE",
"373 919 OFFCURVE",
"373 720 QCURVE",
"23 720 LINE",
"23 919 OFFCURVE",
"23 1211 OFFCURVE",
"387 1211 QCURVE SMOOTH",
"749 1211 OFFCURVE",
"749 919 OFFCURVE",
"749 775 QCURVE SMOOTH",
"749 567 LINE"
);
},
{
closed = 1;
nodes = (
"145 -10 OFFCURVE",
"11 130 OFFCURVE",
"11 338 QCURVE SMOOTH",
"11 552 OFFCURVE",
"133 672 OFFCURVE",
"257 672 QCURVE SMOOTH",
"333 672 OFFCURVE",
"409 672 QCURVE",
"409 442 LINE",
"407 442 OFFCURVE",
"395 442 QCURVE SMOOTH",
"373 442 OFFCURVE",
"373 390 OFFCURVE",
"373 324 QCURVE SMOOTH",
"373 278 OFFCURVE",
"373 214 OFFCURVE",
"387 214 QCURVE SMOOTH",
"401 214 OFFCURVE",
"401 278 OFFCURVE",
"401 450 QCURVE",
"607 314 LINE",
"609 148 OFFCURVE",
"495 -10 OFFCURVE",
"261 -10 QCURVE SMOOTH"
);
}
);
width = 1137;
},
{
anchors = (
{
name = bottom;
position = "{1713, 0}";
},
{
name = top;
position = "{1727, 1172}";
}
);
components = (
{
alignment = -1;
name = e;
transform = "{1, 0, 0, 1, 1344, 0}";
}
);
layerId = "C75D3228-2D13-4E9D-9829-45195F4951D0";
paths = (
{
closed = 1;
nodes = (
"1502 286 LINE",
"1432 336 LINE",
"1432 688 LINE SMOOTH",
"1432 757 OFFCURVE",
"1226 838 OFFCURVE",
"1064 838 QCURVE SMOOTH",
"922 838 OFFCURVE",
"739 802 OFFCURVE",
"674 760 QCURVE",
"161 1014 LINE",
"278 1073 OFFCURVE",
"729 1182 OFFCURVE",
"1058 1182 QCURVE SMOOTH",
"1392 1182 OFFCURVE",
"1914 940 OFFCURVE",
"1914 624 QCURVE SMOOTH",
"1914 286 LINE"
);
},
{
closed = 1;
nodes = (
"510 -19 OFFCURVE",
"88 188 OFFCURVE",
"88 362 QCURVE SMOOTH",
"88 568 OFFCURVE",
"535 716 OFFCURVE",
"844 716 QCURVE SMOOTH",
"1076 716 OFFCURVE",
"1456 716 QCURVE",
"1456 442 LINE",
"1194 442 OFFCURVE",
"1018 442 QCURVE SMOOTH",
"818 442 OFFCURVE",
"664 406 OFFCURVE",
"664 374 QCURVE SMOOTH",
"664 344 OFFCURVE",
"789 298 OFFCURVE",
"998 298 QCURVE SMOOTH",
"1206 298 OFFCURVE",
"1437 408 OFFCURVE",
"1437 475 QCURVE",
"1727 340 LINE",
"1693 162 OFFCURVE",
"1176 -19 OFFCURVE",
"830 -19 QCURVE SMOOTH"
);
}
);
width = 3490;
},
{
anchors = (
{
name = bottom;
position = "{1497, 0}";
},
{
name = top;
position = "{1505, 1172}";
}
);
components = (
{
alignment = -1;
name = e;
transform = "{1, 0, 0, 1, 1328, 0}";
}
);
layerId = "71977205-6510-4B11-BB00-17BACA883C8F";
paths = (
{
closed = 1;
nodes = (
"1457 595 LINE",
"1457 610 LINE",
"1457 656 LINE SMOOTH",
"1457 906 OFFCURVE",
"1121 1156 OFFCURVE",
"839 1156 QCURVE SMOOTH",
"525 1156 OFFCURVE",
"173 929 OFFCURVE",
"173 791 QCURVE",
"147 791 LINE",
"147 942 OFFCURVE",
"515 1178 OFFCURVE",
"839 1178 QCURVE SMOOTH",
"1131 1178 OFFCURVE",
"1479 917 OFFCURVE",
"1479 669 QCURVE SMOOTH",
"1479 596 LINE"
);
},
{
closed = 1;
nodes = (
"439 -11 OFFCURVE",
"142 160 OFFCURVE",
"142 311 QCURVE SMOOTH",
"142 455 OFFCURVE",
"435 603 OFFCURVE",
"786 603 QCURVE SMOOTH",
"1069 603 OFFCURVE",
"1462 603 QCURVE",
"1462 581 LINE",
"1059 581 OFFCURVE",
"788 581 QCURVE SMOOTH",
"458 581 OFFCURVE",
"166 449 OFFCURVE",
"166 311 QCURVE SMOOTH",
"166 174 OFFCURVE",
"446 11 OFFCURVE",
"742 11 QCURVE SMOOTH",
"1060 11 OFFCURVE",
"1457 263 OFFCURVE",
"1457 582 QCURVE",
"1479 582 LINE",
"1479 248 OFFCURVE",
"1068 -11 OFFCURVE",
"742 -11 QCURVE SMOOTH"
);
}
);
width = 3159;
},
{
anchors = (
{
name = bottom;
position = "{1405, 0}";
},
{
name = top;
position = "{1573, 1172}";
}
);
components = (
{
alignment = -1;
name = e;
transform = "{1, 0, 0, 1, 1310, 0}";
}
);
layerId = "5997A0D0-E78E-41EC-9011-DECBEAD8517D";
paths = (
{
closed = 1;
nodes = (
"1440 595 LINE",
"1443 610 LINE",
"1451 656 LINE SMOOTH",
"1494 906 OFFCURVE",
"1203 1156 OFFCURVE",
"921 1156 QCURVE SMOOTH",
"607 1156 OFFCURVE",
"215 929 OFFCURVE",
"191 791 QCURVE",
"165 791 LINE",
"191 942 OFFCURVE",
"595 1178 OFFCURVE",
"920 1178 QCURVE SMOOTH",
"1211 1178 OFFCURVE",
"1519 917 OFFCURVE",
"1475 669 QCURVE SMOOTH",
"1462 596 LINE"
);
},
{
closed = 1;
nodes = (
"318 -11 OFFCURVE",
"60 160 OFFCURVE",
"75 311 QCURVE SMOOTH",
"89 456 OFFCURVE",
"419 603 OFFCURVE",
"770 603 QCURVE SMOOTH",
"1053 603 OFFCURVE",
"1446 603 QCURVE",
"1443 581 LINE",
"1040 581 OFFCURVE",
"769 581 QCURVE SMOOTH",
"439 581 OFFCURVE",
"113 450 OFFCURVE",
"99 311 QCURVE SMOOTH",
"85 174 OFFCURVE",
"326 11 OFFCURVE",
"622 11 QCURVE SMOOTH",
"940 11 OFFCURVE",
"1381 263 OFFCURVE",
"1438 582 QCURVE",
"1460 582 LINE",
"1401 248 OFFCURVE",
"947 -11 OFFCURVE",
"621 -11 QCURVE SMOOTH"
);
}
);
width = 3141;
},
{
anchors = (
{
name = bottom;
position = "{462, 0}";
},
{
name = top;
position = "{668, 1200}";
}
);
components = (
{
alignment = -1;
name = e;
transform = "{1, 0, 0, 1, 381, 0}";
}
);
layerId = "55C4185A-9C39-4468-B19C-DE0A3E571700";
paths = (
{
closed = 1;
nodes = (
"393 182 LINE",
"327 182 LINE",
"434 789 LINE SMOOTH",
"457 921 OFFCURVE",
"469 985 OFFCURVE",
"455 985 QCURVE SMOOTH",
"441 985 OFFCURVE",
"429 919 OFFCURVE",
"394 720 QCURVE",
"44 720 LINE",
"79 919 OFFCURVE",
"131 1211 OFFCURVE",
"495 1211 QCURVE SMOOTH",
"858 1211 OFFCURVE",
"805 917 OFFCURVE",
"780 775 QCURVE SMOOTH",
"669 148 LINE"
);
},
{
closed = 1;
nodes = (
"37 -10 OFFCURVE",
"-72 130 OFFCURVE",
"-35 339 QCURVE SMOOTH",
"2 552 OFFCURVE",
"147 672 OFFCURVE",
"270 672 QCURVE SMOOTH",
"346 672 OFFCURVE",
"422 672 QCURVE",
"381 442 LINE",
"379 442 OFFCURVE",
"367 442 QCURVE SMOOTH",
"345 442 OFFCURVE",
"336 390 OFFCURVE",
"324 324 QCURVE SMOOTH",
"316 281 OFFCURVE",
"305 214 OFFCURVE",
"319 214 QCURVE SMOOTH",
"333 214 OFFCURVE",
"344 278 OFFCURVE",
"374 450 QCURVE",
"556 314 LINE",
"529 148 OFFCURVE",
"427 -10 OFFCURVE",
"193 -10 QCURVE SMOOTH"
);
}
);
width = 1129;
},
{
anchors = (
{
name = bottom;
position = "{56, 0}";
},
{
name = top;
position = "{254, 1200}";
}
);
components = (
{
alignment = -1;
name = e;
transform = "{1, 0, 0, 1, 98, 0}";
}
);
layerId = "4F53612F-C4F8-4368-83AD-8913BEEF8F1D";
paths = (
{
closed = 1;
nodes = (
"57 104 LINE",
"62 140 LINE",
"178 800 LINE SMOOTH",
"210 983 OFFCURVE",
"246 1188 OFFCURVE",
"208 1188 QCURVE SMOOTH",
"170 1188 OFFCURVE",
"135 986 OFFCURVE",
"91 740 QCURVE",
"69 740 LINE",
"114 992 OFFCURVE",
"152 1210 OFFCURVE",
"212 1210 QCURVE SMOOTH",
"272 1210 OFFCURVE",
"234 991 OFFCURVE",
"201 806 QCURVE SMOOTH",
"76 96 LINE"
);
},
{
closed = 1;
nodes = (
"-62 -6 OFFCURVE",
"-34 151 OFFCURVE",
"-12 277 QCURVE SMOOTH",
"21 468 OFFCURVE",
"47 616 OFFCURVE",
"123 616 QCURVE SMOOTH",
"143 616 OFFCURVE",
"157 616 QCURVE",
"154 594 LINE",
"127 594 OFFCURVE",
"111 594 QCURVE SMOOTH",
"67 594 OFFCURVE",
"45 476 OFFCURVE",
"10 276 QCURVE SMOOTH",
"-12 149 OFFCURVE",
"-34 16 OFFCURVE",
"-8 16 QCURVE SMOOTH",
"14 16 OFFCURVE",
"51 78 OFFCURVE",
"71 192 QCURVE",
"91 192 LINE",
"70 76 OFFCURVE",
"28 -6 OFFCURVE",
"-12 -6 QCURVE SMOOTH"
);
}
);
width = 298;
},
{
anchors = (
{
name = bottom;
position = "{1589, 0}";
},
{
name = top;
position = "{1809, 1172}";
}
);
components = (
{
alignment = -1;
name = e;
transform = "{1, 0, 0, 1, 1345, 0}";
}
);
layerId = "E5A4176B-9C10-4B01-BBC9-D7999ECBFAF8";
paths = (
{
closed = 1;
nodes = (
"1443 286 LINE",
"1382 336 LINE",
"1444 688 LINE SMOOTH",
"1456 757 OFFCURVE",
"1264 838 OFFCURVE",
"1102 838 QCURVE SMOOTH",
"960 838 OFFCURVE",
"771 802 OFFCURVE",
"698 760 QCURVE",
"230 1014 LINE",
"358 1073 OFFCURVE",
"828 1182 OFFCURVE",
"1157 1182 QCURVE SMOOTH",
"1491 1182 OFFCURVE",
"1969 940 OFFCURVE",
"1914 624 QCURVE SMOOTH",
"1855 286 LINE"
);
},
{
closed = 1;
nodes = (
"397 -19 OFFCURVE",
"12 188 OFFCURVE",
"42 362 QCURVE SMOOTH",
"79 568 OFFCURVE",
"552 716 OFFCURVE",
"861 716 QCURVE SMOOTH",
"1093 716 OFFCURVE",
"1473 716 QCURVE",
"1424 442 LINE",
"1162 442 OFFCURVE",
"986 442 QCURVE SMOOTH",
"786 442 OFFCURVE",
"626 406 OFFCURVE",
"620 374 QCURVE SMOOTH",
"615 344 OFFCURVE",
"732 298 OFFCURVE",
"941 298 QCURVE SMOOTH",
"1149 298 OFFCURVE",
"1399 408 OFFCURVE",
"1411 475 QCURVE",
"1677 340 LINE",
"1612 162 OFFCURVE",
"1063 -19 OFFCURVE",
"717 -19 QCURVE SMOOTH"
);
}
);
width = 3491;
}
);
leftKerningGroup = a;
leftMetricsKey = a;
rightKerningGroup = e;
rightMetricsKey = e;
unicode = 00E6;
},
